<svg width="637" height="137" viewBox="0 0 637 137" fill="none" xmlns="http://www.w3.org/2000/svg">
<path d="M37.0567 126.678C57.5226 126.678 74.1134 110.083 74.1134 89.613C74.1134 69.1425 57.5226 52.5479 37.0567 52.5479C16.5909 52.5479 0 69.1425 0 89.613C0 110.083 16.5909 126.678 37.0567 126.678Z" fill="white"/>
<path d="M66.139 126.677C100.381 96.6497 81.6184 48.3242 42.2163 43.1633C63.7936 18.767 107.417 26.7432 111.639 66.153C148.227 69.4372 150.572 121.516 111.639 126.677H66.139Z" fill="white"/>
<path d="M175.907 94.0317C182.625 94.0317 188.471 90.9774 190.303 86.5268L191.088 92.8973H200.423V66.7171C200.423 54.7615 193.269 48.4783 181.665 48.4783C169.974 48.4783 162.296 54.587 162.296 63.9246H171.37C171.37 59.3867 174.86 56.7687 181.142 56.7687C186.551 56.7687 190.041 59.1249 190.041 64.9718V65.9317L177.128 66.8917C166.92 67.6771 161.162 72.6513 161.162 80.5926C161.162 88.7084 166.746 94.0317 175.907 94.0317ZM179.397 86.0032C174.598 86.0032 171.981 84.0833 171.981 80.1563C171.981 76.6656 174.511 74.4839 181.142 73.873L190.128 73.1749V75.4438C190.128 82.0761 185.94 86.0032 179.397 86.0032ZM221.611 92.8973V27.9705H211.055V92.8973H221.611ZM243.509 92.8973V27.9705H232.952V92.8973H243.509ZM274.875 79.8072C274.875 88.2721 281.68 94.0317 292.411 94.0317C303.056 94.0317 310.472 88.6212 310.472 79.8945C310.472 73.2622 306.807 69.946 299.566 68.2879L291.801 66.4553C288.136 65.5826 286.217 64.0118 286.217 61.5684C286.217 58.3395 288.66 56.4196 292.848 56.4196C296.948 56.4196 299.391 58.7758 299.478 62.441H309.599C309.512 54.0634 302.968 48.4783 293.284 48.4783C283.338 48.4783 276.183 53.5398 276.183 62.0047C276.183 68.8988 279.935 72.564 287.7 74.3094L295.465 76.142C299.304 77.0146 300.438 78.5854 300.438 80.7671C300.438 83.9087 297.733 85.9159 292.76 85.9159C287.874 85.9159 285.083 83.5597 284.995 79.8072H274.875ZM316.046 71.255C316.046 84.6941 325.73 93.9445 339.079 93.9445C352.428 93.9445 362.113 84.6941 362.113 71.255C362.113 57.8159 352.428 48.5656 339.079 48.5656C325.73 48.5656 316.046 57.8159 316.046 71.255ZM326.69 71.255C326.69 63.401 331.751 58.0777 339.079 58.0777C346.408 58.0777 351.468 63.401 351.468 71.255C351.468 79.1091 346.408 84.4323 339.079 84.4323C331.751 84.4323 326.69 79.1091 326.69 71.255ZM381.281 92.8973V27.9705H370.724V92.8973H381.281ZM421.674 49.7873V72.3895C421.674 80.5926 418.446 84.5196 411.728 84.5196C405.795 84.5196 402.567 81.2035 402.567 73.0004V49.7873H391.923V76.7528C391.923 87.3122 397.769 94.0317 407.715 94.0317C413.473 94.0317 419.057 91.2392 421.674 87.1376L422.46 92.8973H432.319V49.7873H421.674ZM457.97 92.8973V58.6885H466.346V49.7873H457.97V36.3482H447.326V49.7873H439.038V58.6885H447.326V92.8973H457.97ZM478.285 41.1479C481.775 41.1479 484.654 38.268 484.654 34.6901C484.654 31.1121 481.775 28.3196 478.285 28.3196C474.621 28.3196 471.741 31.1121 471.741 34.6901C471.741 38.268 474.621 41.1479 478.285 41.1479ZM472.963 92.8973H483.607V49.7873H472.963V92.8973ZM492.074 71.255C492.074 84.6941 501.758 93.9445 515.107 93.9445C528.456 93.9445 538.14 84.6941 538.14 71.255C538.14 57.8159 528.456 48.5656 515.107 48.5656C501.758 48.5656 492.074 57.8159 492.074 71.255ZM502.718 71.255C502.718 63.401 507.778 58.0777 515.107 58.0777C522.436 58.0777 527.496 63.401 527.496 71.255C527.496 79.1091 522.436 84.4323 515.107 84.4323C507.778 84.4323 502.718 79.1091 502.718 71.255ZM557.222 92.8973V69.6842C557.222 62.7028 561.236 58.1649 567.779 58.1649C573.276 58.1649 576.853 61.6556 576.853 68.8988V92.8973H587.497V66.368C587.497 55.1979 581.913 48.4783 571.095 48.4783C565.249 48.4783 560.014 51.009 557.31 55.3724L556.437 49.7873H546.578V92.8973H557.222ZM594.129 79.8072C594.129 88.2721 600.934 94.0317 611.666 94.0317C622.31 94.0317 629.726 88.6212 629.726 79.8945C629.726 73.2622 626.061 69.946 618.82 68.2879L611.055 66.4553C607.39 65.5826 605.471 64.0118 605.471 61.5684C605.471 58.3395 607.914 56.4196 612.102 56.4196C616.202 56.4196 618.645 58.7758 618.733 62.441H628.853C628.766 54.0634 622.223 48.4783 612.538 48.4783C602.592 48.4783 595.438 53.5398 595.438 62.0047C595.438 68.8988 599.189 72.564 606.954 74.3094L614.719 76.142C618.558 77.0146 619.692 78.5854 619.692 80.7671C619.692 83.9087 616.988 85.9159 612.015 85.9159C607.129 85.9159 604.337 83.5597 604.25 79.8072H594.129Z" fill="white"/>
<path d="M161.263 124.801V118.608H168.524V124.801H169.856V111.364H168.524V117.351H161.263V111.364H159.912V124.801H161.263ZM188.321 124.801V123.563H181.623V118.665H187.683V117.445H181.623V112.603H188.302V111.364H180.272V124.801H188.321ZM198.194 124.801L199.507 121.236H205.699L207.013 124.801H208.42L203.429 111.364H201.759L196.824 124.801H198.194ZM202.416 113.26C202.491 113.072 202.566 112.828 202.585 112.715C202.603 112.847 202.697 113.072 202.753 113.26L205.268 120.053H199.92L202.416 113.26ZM214.782 112.603H218.91V124.801H220.261V112.603H224.408V111.364H214.782V112.603ZM234.748 111.364H233.397V124.801H234.748V111.364ZM246.495 124.801V113.616L253.907 124.801H255.239V111.364H253.907V122.549L246.514 111.364H245.144V124.801H246.495ZM271.279 112.415C273.249 112.415 274.825 113.353 275.388 115.193H276.852C276.326 112.753 274.131 111.139 271.298 111.139C267.452 111.139 264.825 114.029 264.825 118.139C264.825 122.287 267.452 125.027 271.26 125.027C273.437 125.027 275.126 124.013 275.839 122.681L275.97 124.82H277.039V117.538H270.904V118.74H275.764V119.434C275.764 122.662 273.568 123.75 271.317 123.75C268.296 123.75 266.232 121.63 266.232 118.139C266.232 114.705 268.183 112.415 271.279 112.415ZM306.886 117.895V119.059H310.995V123.187H312.158V119.059H316.267V117.895H312.158V113.785H310.995V117.895H306.886ZM346.697 124.801L348.01 121.236H354.202L355.515 124.801H356.922L351.931 111.364H350.262L345.327 124.801H346.697ZM350.918 113.26C350.993 113.072 351.068 112.828 351.087 112.715C351.106 112.847 351.2 113.072 351.256 113.26L353.77 120.053H348.423L350.918 113.26ZM367.271 111.364H365.92V124.801H367.271V111.364ZM379.019 124.801V119.228H382.94L385.679 124.801H387.18L384.31 119.002C386.036 118.533 387.049 117.182 387.049 115.249C387.049 112.865 385.398 111.364 382.677 111.364H377.668V124.801H379.019ZM379.019 112.584H382.677C384.516 112.584 385.661 113.541 385.661 115.286C385.661 116.994 384.572 118.008 382.715 118.008H379.019V112.584ZM425.494 125.008C428.384 125.008 430.729 123.3 431.348 120.766H429.903C429.322 122.568 427.633 123.713 425.513 123.713C422.567 123.713 420.597 121.461 420.597 118.083C420.597 114.686 422.567 112.434 425.513 112.434C427.614 112.434 429.266 113.616 429.828 115.549H431.273C430.729 112.884 428.459 111.139 425.569 111.139C421.779 111.139 419.19 113.954 419.19 118.083C419.19 122.212 421.742 125.008 425.494 125.008ZM452.785 118.083C452.785 113.992 450.158 111.12 446.387 111.12C442.634 111.12 439.989 114.01 439.989 118.083C439.989 122.155 442.615 125.027 446.387 125.027C450.139 125.027 452.785 122.155 452.785 118.083ZM451.396 118.083C451.396 121.423 449.351 123.732 446.387 123.732C443.422 123.732 441.396 121.442 441.396 118.083C441.396 114.723 443.422 112.434 446.387 112.434C449.351 112.434 451.396 114.723 451.396 118.083ZM463.715 124.801V113.616L471.126 124.801H472.459V111.364H471.126V122.549L463.734 111.364H462.364V124.801H463.715ZM486.96 124.801C490.995 124.801 493.678 122.099 493.678 118.083C493.678 114.067 490.976 111.364 486.923 111.364H482.87V124.801H486.96ZM486.867 112.603C490.188 112.603 492.289 114.723 492.289 118.083C492.289 121.423 490.188 123.563 486.904 123.563H484.221V112.603H486.867ZM504.599 111.364H503.248V124.801H504.599V111.364ZM513.588 112.603H517.716V124.801H519.067V112.603H523.213V111.364H513.588V112.603ZM533.553 111.364H532.203V124.801H533.553V111.364ZM555.921 118.083C555.921 113.992 553.294 111.12 549.523 111.12C545.77 111.12 543.124 114.01 543.124 118.083C543.124 122.155 545.751 125.027 549.523 125.027C553.275 125.027 555.921 122.155 555.921 118.083ZM554.532 118.083C554.532 121.423 552.487 123.732 549.523 123.732C546.558 123.732 544.532 121.442 544.532 118.083C544.532 114.723 546.558 112.434 549.523 112.434C552.487 112.434 554.532 114.723 554.532 118.083ZM566.851 124.801V113.616L574.262 124.801H575.595V111.364H574.262V122.549L566.87 111.364H565.5V124.801H566.851ZM587.357 111.364H586.006V124.801H587.357V111.364ZM599.104 124.801V113.616L606.516 124.801H607.848V111.364H606.516V122.549L599.123 111.364H597.753V124.801H599.104ZM623.888 112.415C625.858 112.415 627.434 113.353 627.997 115.193H629.461C628.935 112.753 626.74 111.139 623.907 111.139C620.061 111.139 617.434 114.029 617.434 118.139C617.434 122.287 620.061 125.027 623.87 125.027C626.046 125.027 627.735 124.013 628.448 122.681L628.579 124.82H629.648V117.538H623.513V118.74H628.373V119.434C628.373 122.662 626.177 123.75 623.926 123.75C620.905 123.75 618.841 121.63 618.841 118.139C618.841 114.705 620.792 112.415 623.888 112.415Z" fill="white"/>
</svg>
