<svg width="654" height="141" viewBox="0 0 654 141" fill="none" xmlns="http://www.w3.org/2000/svg">
<path d="M38.0457 130.377C59.0577 130.377 76.0913 113.298 76.0913 92.2294C76.0913 71.1613 59.0577 54.0822 38.0457 54.0822C17.0336 54.0822 0 71.1613 0 92.2294C0 113.298 17.0336 130.377 38.0457 130.377Z" fill="#0E9BFF"/>
<path d="M67.9044 130.376C103.06 99.4716 83.7969 49.7352 43.3433 44.4235C65.4964 19.315 110.284 27.524 114.619 68.0845C152.183 71.4646 154.591 125.064 114.619 130.376H67.9044Z" fill="#0E9BFF"/>
<path d="M180.601 96.7772C187.499 96.7772 193.5 93.6337 195.381 89.0531L196.187 95.6096H205.772V68.6651C205.772 56.3605 198.427 49.8938 186.513 49.8938C174.51 49.8938 166.627 56.1808 166.627 65.791H175.943C175.943 61.1207 179.526 58.4262 185.976 58.4262C191.529 58.4262 195.112 60.8512 195.112 66.8688V67.8568L181.855 68.8448C171.375 69.6531 165.463 74.7725 165.463 82.9457C165.463 91.2985 171.196 96.7772 180.601 96.7772ZM184.184 88.5143C179.258 88.5143 176.57 86.5383 176.57 82.4966C176.57 78.904 179.168 76.6587 185.976 76.03L195.202 75.3114V77.6466C195.202 84.4726 190.902 88.5143 184.184 88.5143ZM227.525 95.6096V28.7872H216.687V95.6096H227.525ZM250.007 95.6096V28.7872H239.168V95.6096H250.007ZM282.21 82.1374C282.21 90.8494 289.197 96.7772 300.215 96.7772C311.143 96.7772 318.757 91.2087 318.757 82.2272C318.757 75.4012 314.995 71.9883 307.56 70.2818L299.588 68.3957C295.826 67.4975 293.855 65.8809 293.855 63.366C293.855 60.0429 296.363 58.0669 300.663 58.0669C304.873 58.0669 307.381 60.4919 307.47 64.2642H317.861C317.772 55.6419 311.053 49.8938 301.111 49.8938C290.899 49.8938 283.554 55.1031 283.554 63.8151C283.554 70.9105 287.405 74.6827 295.378 76.479L303.35 78.3651C307.291 79.2633 308.456 80.88 308.456 83.1253C308.456 86.3587 305.679 88.4244 300.573 88.4244C295.557 88.4244 292.69 85.9994 292.601 82.1374H282.21ZM324.48 73.3355C324.48 87.167 334.423 96.6874 348.128 96.6874C361.833 96.6874 371.776 87.167 371.776 73.3355C371.776 59.504 361.833 49.9836 348.128 49.9836C334.423 49.9836 324.48 59.504 324.48 73.3355ZM335.409 73.3355C335.409 65.2521 340.604 59.7734 348.128 59.7734C355.653 59.7734 360.848 65.2521 360.848 73.3355C360.848 81.4189 355.653 86.8976 348.128 86.8976C340.604 86.8976 335.409 81.4189 335.409 73.3355ZM391.456 95.6096V28.7872H380.617V95.6096H391.456ZM432.928 51.241V74.5031C432.928 82.9457 429.613 86.9874 422.716 86.9874C416.625 86.9874 413.311 83.5744 413.311 75.1318V51.241H402.382V78.9939C402.382 89.8615 408.384 96.7772 418.596 96.7772C424.508 96.7772 430.24 93.9032 432.928 89.6818L433.734 95.6096H443.856V51.241H432.928ZM470.192 95.6096V60.4021H478.791V51.241H470.192V37.4095H459.264V51.241H450.754V60.4021H459.264V95.6096H470.192ZM491.049 42.3493C494.632 42.3493 497.588 39.3854 497.588 35.703C497.588 32.0206 494.632 29.1465 491.049 29.1465C487.287 29.1465 484.331 32.0206 484.331 35.703C484.331 39.3854 487.287 42.3493 491.049 42.3493ZM485.585 95.6096H496.513V51.241H485.585V95.6096ZM505.206 73.3355C505.206 87.167 515.149 96.6874 528.854 96.6874C542.559 96.6874 552.502 87.167 552.502 73.3355C552.502 59.504 542.559 49.9836 528.854 49.9836C515.149 49.9836 505.206 59.504 505.206 73.3355ZM516.134 73.3355C516.134 65.2521 521.329 59.7734 528.854 59.7734C536.378 59.7734 541.574 65.2521 541.574 73.3355C541.574 81.4189 536.378 86.8976 528.854 86.8976C521.329 86.8976 516.134 81.4189 516.134 73.3355ZM572.093 95.6096V71.7188C572.093 64.5336 576.213 59.8632 582.932 59.8632C588.575 59.8632 592.247 63.4558 592.247 70.9105V95.6096H603.176V68.3059C603.176 56.8095 597.443 49.8938 586.335 49.8938C580.334 49.8938 574.959 52.4984 572.182 56.9892L571.287 51.241H561.165V95.6096H572.093ZM609.984 82.1374C609.984 90.8494 616.971 96.7772 627.989 96.7772C638.917 96.7772 646.531 91.2087 646.531 82.2272C646.531 75.4012 642.769 71.9883 635.334 70.2818L627.362 68.3957C623.6 67.4975 621.629 65.8809 621.629 63.366C621.629 60.0429 624.137 58.0669 628.437 58.0669C632.647 58.0669 635.155 60.4919 635.245 64.2642H645.636C645.546 55.6419 638.828 49.8938 628.885 49.8938C618.673 49.8938 611.328 55.1031 611.328 63.8151C611.328 70.9105 615.18 74.6827 623.152 76.479L631.124 78.3651C635.066 79.2633 636.23 80.88 636.23 83.1253C636.23 86.3587 633.453 88.4244 628.348 88.4244C623.331 88.4244 620.465 85.9994 620.375 82.1374H609.984Z" fill="#0E9BFF"/>
<path d="M165.567 128.445V122.071H173.022V128.445H174.39V114.616H173.022V120.777H165.567V114.616H164.18V128.445H165.567ZM193.347 128.445V127.17H186.47V122.129H192.692V120.874H186.47V115.89H193.328V114.616H185.083V128.445H193.347ZM203.484 128.445L204.832 124.775H211.189L212.538 128.445H213.982L208.858 114.616H207.144L202.078 128.445H203.484ZM207.818 116.566C207.895 116.373 207.972 116.122 207.991 116.006C208.011 116.141 208.107 116.373 208.165 116.566L210.746 123.558H205.256L207.818 116.566ZM220.515 115.89H224.753V128.445H226.14V115.89H230.397V114.616H220.515V115.89ZM241.013 114.616H239.626V128.445H241.013V114.616ZM253.074 128.445V116.933L260.683 128.445H262.051V114.616H260.683V126.127L253.093 114.616H251.687V128.445H253.074ZM278.519 115.697C280.542 115.697 282.16 116.663 282.738 118.556H284.241C283.701 116.045 281.447 114.384 278.539 114.384C274.59 114.384 271.893 117.358 271.893 121.588C271.893 125.857 274.59 128.677 278.5 128.677C280.735 128.677 282.468 127.634 283.2 126.263L283.335 128.465H284.433V120.97H278.134V122.206H283.123V122.921C283.123 126.243 280.87 127.364 278.558 127.364C275.456 127.364 273.338 125.181 273.338 121.588C273.338 118.054 275.341 115.697 278.519 115.697ZM315.076 121.337V122.535H319.295V126.784H320.489V122.535H324.708V121.337H320.489V117.107H319.295V121.337H315.076ZM355.95 128.445L357.298 124.775H363.655L365.003 128.445H366.448L361.324 114.616H359.61L354.543 128.445H355.95ZM360.284 116.566C360.361 116.373 360.438 116.122 360.457 116.006C360.476 116.141 360.573 116.373 360.631 116.566L363.212 123.558H357.722L360.284 116.566ZM377.073 114.616H375.686V128.445H377.073V114.616ZM389.134 128.445V122.709H393.16L395.973 128.445H397.514L394.566 122.477C396.339 121.994 397.379 120.603 397.379 118.614C397.379 116.161 395.684 114.616 392.89 114.616H387.747V128.445H389.134ZM389.134 115.871H392.89C394.778 115.871 395.953 116.856 395.953 118.652C395.953 120.41 394.836 121.453 392.929 121.453H389.134V115.871ZM436.85 128.658C439.817 128.658 442.225 126.9 442.86 124.292H441.377C440.78 126.147 439.046 127.325 436.869 127.325C433.845 127.325 431.822 125.007 431.822 121.53C431.822 118.034 433.845 115.717 436.869 115.717C439.027 115.717 440.722 116.933 441.3 118.923H442.783C442.225 116.18 439.894 114.384 436.927 114.384C433.036 114.384 430.377 117.281 430.377 121.53C430.377 125.78 432.997 128.658 436.85 128.658ZM464.869 121.53C464.869 117.32 462.172 114.365 458.3 114.365C454.447 114.365 451.731 117.339 451.731 121.53C451.731 125.722 454.428 128.677 458.3 128.677C462.153 128.677 464.869 125.722 464.869 121.53ZM463.443 121.53C463.443 124.968 461.344 127.344 458.3 127.344C455.256 127.344 453.176 124.988 453.176 121.53C453.176 118.073 455.256 115.717 458.3 115.717C461.344 115.717 463.443 118.073 463.443 121.53ZM476.091 128.445V116.933L483.7 128.445H485.068V114.616H483.7V126.127L476.11 114.616H474.704V128.445H476.091ZM499.957 128.445C504.098 128.445 506.853 125.664 506.853 121.53C506.853 117.397 504.079 114.616 499.918 114.616H495.757V128.445H499.957ZM499.86 115.89C503.27 115.89 505.428 118.073 505.428 121.53C505.428 124.968 503.27 127.17 499.899 127.17H497.144V115.89H499.86ZM518.065 114.616H516.678V128.445H518.065V114.616ZM527.295 115.89H531.533V128.445H532.92V115.89H537.177V114.616H527.295V115.89ZM547.793 114.616H546.406V128.445H547.793V114.616ZM570.757 121.53C570.757 117.32 568.06 114.365 564.188 114.365C560.336 114.365 557.619 117.339 557.619 121.53C557.619 125.722 560.316 128.677 564.188 128.677C568.041 128.677 570.757 125.722 570.757 121.53ZM569.332 121.53C569.332 124.968 567.232 127.344 564.188 127.344C561.145 127.344 559.064 124.988 559.064 121.53C559.064 118.073 561.145 115.717 564.188 115.717C567.232 115.717 569.332 118.073 569.332 121.53ZM581.979 128.445V116.933L589.588 128.445H590.956V114.616H589.588V126.127L581.999 114.616H580.592V128.445H581.979ZM603.032 114.616H601.645V128.445H603.032V114.616ZM615.093 128.445V116.933L622.703 128.445H624.07V114.616H622.703V126.127L615.113 114.616H613.706V128.445H615.093ZM640.539 115.697C642.561 115.697 644.18 116.663 644.757 118.556H646.26C645.721 116.045 643.467 114.384 640.558 114.384C636.609 114.384 633.912 117.358 633.912 121.588C633.912 125.857 636.609 128.677 640.52 128.677C642.754 128.677 644.488 127.634 645.22 126.263L645.355 128.465H646.453V120.97H640.154V122.206H645.143V122.921C645.143 126.243 642.889 127.364 640.577 127.364C637.476 127.364 635.357 125.181 635.357 121.588C635.357 118.054 637.36 115.697 640.539 115.697Z" fill="#0E9BFF"/>
</svg>
