<svg width="14" height="16" viewBox="0 0 14 16" fill="none" xmlns="http://www.w3.org/2000/svg">
<path d="M13.1574 2.97309C13.0958 2.89098 13.0299 2.81215 12.9601 2.73693C13.0303 2.5491 13.0837 2.35533 13.1195 2.15796C13.2252 1.43591 13.1334 0.698599 12.8539 0.024895C12.8539 0.024895 12.0042 -0.241738 10.0543 1.07619C9.22651 0.846686 8.37145 0.731357 7.51267 0.733376C6.65142 0.73186 5.79392 0.847174 4.96343 1.07619C3.01357 -0.256974 2.16382 0.024895 2.16382 0.024895C1.88772 0.691465 1.79597 1.42052 1.89828 2.1351C1.93428 2.34069 1.99018 2.54225 2.06519 2.73693C1.99691 2.81311 1.92863 2.89691 1.86793 2.97309C1.30177 3.68616 1.00124 4.57528 1.01818 5.48706C1.01638 5.7033 1.02651 5.91947 1.04853 6.13459C1.29132 9.5094 3.52948 10.2941 5.66144 10.5378C5.35969 10.8196 5.15508 11.1905 5.07723 11.5968C5.00672 11.8677 4.97353 12.1471 4.9786 12.4271V13.4251C4.12962 13.5013 3.25863 13.3771 2.98853 12.6168C2.69859 11.8891 2.21774 11.2539 1.59707 10.7786C1.55171 10.7539 1.50856 10.7254 1.46809 10.6932C1.41359 10.5494 1.31703 10.4255 1.1911 10.3378C1.06516 10.2501 0.915754 10.2027 0.762501 10.2019H0.758708C0.558143 10.2019 0.365737 10.2816 0.223561 10.4237C0.0813859 10.5657 0.0010091 10.7585 6.28214e-06 10.9599C-0.00226982 11.5785 0.614554 11.9784 0.867202 12.114C1.16238 12.4127 1.39982 12.7637 1.56748 13.1493C1.84365 13.9286 2.65167 15.1133 4.95584 14.9594L4.95736 15.034L4.9604 15.2382C4.9604 15.4402 5.04033 15.634 5.18261 15.7769C5.3249 15.9197 5.51788 16 5.7191 16H9.29561C9.49683 16 9.68981 15.9197 9.8321 15.7769C9.97438 15.634 10.0543 15.4402 10.0543 15.2382C10.0543 15.2382 10.0604 12.8309 10.0604 12.4271C10.0654 12.1471 10.0323 11.8677 9.96175 11.5968L9.96024 11.5922L9.96327 11.5968C9.95644 11.5701 9.94658 11.5488 9.93899 11.5229C9.85446 11.1454 9.65884 10.8022 9.37755 10.5378L9.38666 10.5538L9.37148 10.5386C11.5034 10.2948 13.7264 9.49493 13.9692 6.13535C13.9912 5.92024 14.0014 5.70406 13.9996 5.48782C14.013 4.57785 13.7158 3.69067 13.1574 2.97385V2.97309Z" fill="#223843"/>
</svg>
