<svg width="383" height="245" viewBox="0 0 383 245" fill="none" xmlns="http://www.w3.org/2000/svg">
<path d="M0.359863 126V95.7202H2.15986V109.4L1.67986 109.2C2.10653 107.787 2.94653 106.654 4.19986 105.8C5.47986 104.92 6.95986 104.48 8.63986 104.48C10.0532 104.48 11.3599 104.8 12.5599 105.44C13.7599 106.08 14.7199 106.987 15.4399 108.16C16.1865 109.307 16.5599 110.654 16.5599 112.2V126H14.7599V112.4C14.7599 111.12 14.4799 110.027 13.9199 109.12C13.3599 108.187 12.5999 107.467 11.6399 106.96C10.7065 106.454 9.6532 106.2 8.47986 106.2C7.14653 106.2 5.99986 106.52 5.03986 107.16C4.10653 107.774 3.38653 108.614 2.87986 109.68C2.39986 110.72 2.15986 111.894 2.15986 113.2V126H0.359863Z" fill="#F6F5F0"/>
<path d="M32.8924 126.48C30.8924 126.48 29.0924 126 27.4924 125.04C25.8924 124.08 24.6257 122.774 23.6924 121.12C22.759 119.44 22.2924 117.56 22.2924 115.48C22.2924 113.374 22.759 111.494 23.6924 109.84C24.6257 108.187 25.8924 106.88 27.4924 105.92C29.0924 104.96 30.8924 104.48 32.8924 104.48C34.919 104.48 36.719 104.96 38.2924 105.92C39.8924 106.88 41.159 108.187 42.0924 109.84C43.0257 111.494 43.4924 113.374 43.4924 115.48C43.4924 117.56 43.0257 119.44 42.0924 121.12C41.159 122.774 39.8924 124.08 38.2924 125.04C36.719 126 34.919 126.48 32.8924 126.48ZM32.8924 124.76C34.519 124.76 35.9857 124.36 37.2924 123.56C38.599 122.734 39.639 121.614 40.4124 120.2C41.1857 118.787 41.5724 117.214 41.5724 115.48C41.5724 113.72 41.1857 112.147 40.4124 110.76C39.6657 109.347 38.639 108.24 37.3324 107.44C36.0257 106.614 34.5457 106.2 32.8924 106.2C31.2657 106.2 29.7857 106.614 28.4524 107.44C27.1457 108.24 26.1057 109.347 25.3324 110.76C24.5857 112.147 24.2124 113.72 24.2124 115.48C24.2124 117.214 24.599 118.787 25.3724 120.2C26.1457 121.614 27.1857 122.734 28.4924 123.56C29.799 124.36 31.2657 124.76 32.8924 124.76Z" fill="#F6F5F0"/>
<path d="M49.6567 126V104.96H51.4567V109.4L50.9767 109.2C51.4034 107.787 52.2434 106.654 53.4967 105.8C54.7767 104.92 56.2567 104.48 57.9367 104.48C59.3501 104.48 60.6567 104.8 61.8567 105.44C63.0567 106.08 64.0167 106.987 64.7367 108.16C65.4834 109.307 65.8567 110.654 65.8567 112.2V126H64.0567V112.4C64.0567 111.12 63.7767 110.027 63.2167 109.12C62.6567 108.187 61.8967 107.467 60.9367 106.96C60.0034 106.454 58.9501 106.2 57.7767 106.2C56.4434 106.2 55.2967 106.52 54.3367 107.16C53.4034 107.774 52.6834 108.614 52.1767 109.68C51.6967 110.72 51.4567 111.894 51.4567 113.2V126H49.6567Z" fill="#F6F5F0"/>
<path d="M82.1892 126.48C80.1892 126.48 78.3892 126 76.7892 125.04C75.1892 124.054 73.9226 122.734 72.9892 121.08C72.0559 119.4 71.5892 117.534 71.5892 115.48C71.5892 113.4 72.0426 111.534 72.9492 109.88C73.8559 108.2 75.0692 106.88 76.5892 105.92C78.1359 104.96 79.8692 104.48 81.7892 104.48C83.1492 104.48 84.4159 104.734 85.5892 105.24C86.7626 105.747 87.7759 106.454 88.6292 107.36C89.5092 108.267 90.1892 109.334 90.6692 110.56C91.1492 111.76 91.3892 113.067 91.3892 114.48C91.3892 114.747 91.3759 115 91.3492 115.24C91.3492 115.48 91.3226 115.747 91.2692 116.04H72.5092V114.44H90.2292L89.5492 114.96C89.6292 113.307 89.3359 111.827 88.6692 110.52C88.0026 109.187 87.0692 108.134 85.8692 107.36C84.6692 106.56 83.3092 106.16 81.7892 106.16C80.2159 106.16 78.7892 106.574 77.5092 107.4C76.2559 108.227 75.2559 109.347 74.5092 110.76C73.7626 112.147 73.3892 113.72 73.3892 115.48C73.3892 117.24 73.7759 118.827 74.5492 120.24C75.3226 121.654 76.3626 122.774 77.6692 123.6C79.0026 124.4 80.5092 124.8 82.1892 124.8C83.7092 124.8 85.0826 124.44 86.3092 123.72C87.5359 123 88.5226 121.987 89.2692 120.68L90.7892 121.48C90.2826 122.494 89.5892 123.387 88.7092 124.16C87.8292 124.907 86.8292 125.48 85.7092 125.88C84.6159 126.28 83.4426 126.48 82.1892 126.48Z" fill="#F6F5F0"/>
<path d="M97.2674 134.8C96.9474 134.8 96.574 134.774 96.1474 134.72C95.7207 134.667 95.3074 134.574 94.9074 134.44V132.8C95.2807 132.907 95.6674 132.974 96.0674 133C96.494 133.054 96.854 133.08 97.1474 133.08C98.454 133.054 99.494 132.694 100.267 132C101.067 131.334 101.747 130.347 102.307 129.04L103.987 125.12L104.067 126.96L95.1474 104.96H97.1874L105.227 124.8H104.107L112.227 104.96H114.307L104.227 129.24C103.934 129.96 103.494 130.747 102.907 131.6C102.347 132.48 101.601 133.227 100.667 133.84C99.7607 134.48 98.6274 134.8 97.2674 134.8Z" fill="#F6F5F0"/>
<path d="M125.599 126.48C123.733 126.48 122.079 126.027 120.639 125.12C119.199 124.187 118.119 122.907 117.399 121.28L119.079 120.52C119.773 121.854 120.679 122.894 121.799 123.64C122.946 124.387 124.213 124.76 125.599 124.76C127.093 124.76 128.346 124.387 129.359 123.64C130.399 122.894 130.919 121.907 130.919 120.68C130.919 120.04 130.773 119.467 130.479 118.96C130.186 118.454 129.746 118.014 129.159 117.64C128.599 117.24 127.906 116.934 127.079 116.72L123.599 115.76C121.893 115.307 120.613 114.614 119.759 113.68C118.906 112.72 118.479 111.56 118.479 110.2C118.479 109.08 118.759 108.094 119.319 107.24C119.906 106.36 120.693 105.68 121.679 105.2C122.666 104.72 123.759 104.48 124.959 104.48C126.666 104.48 128.213 104.92 129.599 105.8C131.013 106.654 131.986 107.787 132.519 109.2L130.759 110C130.173 108.8 129.373 107.867 128.359 107.2C127.346 106.534 126.213 106.2 124.959 106.2C123.626 106.2 122.519 106.574 121.639 107.32C120.759 108.067 120.319 109.014 120.319 110.16C120.319 110.747 120.453 111.28 120.719 111.76C120.986 112.214 121.386 112.614 121.919 112.96C122.453 113.307 123.106 113.587 123.879 113.8L127.399 114.8C129.133 115.28 130.466 116.027 131.399 117.04C132.333 118.027 132.799 119.214 132.799 120.6C132.799 121.72 132.479 122.734 131.839 123.64C131.199 124.52 130.333 125.214 129.239 125.72C128.173 126.227 126.959 126.48 125.599 126.48Z" fill="#F6F5F0"/>
<path d="M146.434 126.48C145.047 126.48 143.754 126.174 142.554 125.56C141.354 124.947 140.38 124.054 139.634 122.88C138.887 121.707 138.514 120.267 138.514 118.56V104.96H140.314V118.56C140.314 119.894 140.594 121.027 141.154 121.96C141.74 122.894 142.514 123.6 143.474 124.08C144.434 124.534 145.474 124.76 146.594 124.76C147.954 124.76 149.1 124.454 150.034 123.84C150.994 123.2 151.714 122.347 152.194 121.28C152.674 120.214 152.914 119.04 152.914 117.76V104.96H154.714V126H152.914V121.56L153.394 121.76C152.967 123.147 152.127 124.28 150.874 125.16C149.647 126.04 148.167 126.48 146.434 126.48Z" fill="#F6F5F0"/>
<path d="M171.366 126.48C169.419 126.48 167.646 126 166.046 125.04C164.473 124.08 163.219 122.774 162.286 121.12C161.353 119.44 160.886 117.56 160.886 115.48C160.886 113.374 161.353 111.494 162.286 109.84C163.219 108.187 164.473 106.88 166.046 105.92C167.646 104.96 169.419 104.48 171.366 104.48C172.673 104.48 173.873 104.694 174.966 105.12C176.086 105.547 177.059 106.134 177.886 106.88C178.739 107.627 179.406 108.48 179.886 109.44L178.366 110.28C177.619 108.947 176.646 107.934 175.446 107.24C174.246 106.52 172.886 106.16 171.366 106.16C169.739 106.16 168.273 106.547 166.966 107.32C165.659 108.094 164.619 109.187 163.846 110.6C163.073 111.987 162.686 113.614 162.686 115.48C162.686 117.347 163.073 118.987 163.846 120.4C164.619 121.787 165.659 122.867 166.966 123.64C168.273 124.414 169.739 124.8 171.366 124.8C172.886 124.8 174.246 124.44 175.446 123.72C176.646 123 177.619 121.987 178.366 120.68L179.886 121.48C179.406 122.414 178.739 123.267 177.886 124.04C177.059 124.787 176.086 125.387 174.966 125.84C173.873 126.267 172.673 126.48 171.366 126.48Z" fill="#F6F5F0"/>
<path d="M186.063 126V95.7202H187.863V117.8H186.663L199.743 104.96H202.463L193.743 113.48L203.263 126H200.863L191.743 114.04L192.983 114L187.583 119.48L187.863 118.72V126H186.063Z" fill="#F6F5F0"/>
<path d="M207.665 126V95.7202H209.465V126H207.665Z" fill="#F6F5F0"/>
<path d="M226.213 126.48C224.213 126.48 222.413 126 220.813 125.04C219.213 124.054 217.946 122.734 217.013 121.08C216.079 119.4 215.613 117.534 215.613 115.48C215.613 113.4 216.066 111.534 216.973 109.88C217.879 108.2 219.093 106.88 220.613 105.92C222.159 104.96 223.893 104.48 225.813 104.48C227.173 104.48 228.439 104.734 229.613 105.24C230.786 105.747 231.799 106.454 232.653 107.36C233.533 108.267 234.213 109.334 234.693 110.56C235.173 111.76 235.413 113.067 235.413 114.48C235.413 114.747 235.399 115 235.373 115.24C235.373 115.48 235.346 115.747 235.293 116.04H216.533V114.44H234.253L233.573 114.96C233.653 113.307 233.359 111.827 232.693 110.52C232.026 109.187 231.093 108.134 229.893 107.36C228.693 106.56 227.333 106.16 225.813 106.16C224.239 106.16 222.813 106.574 221.533 107.4C220.279 108.227 219.279 109.347 218.533 110.76C217.786 112.147 217.413 113.72 217.413 115.48C217.413 117.24 217.799 118.827 218.573 120.24C219.346 121.654 220.386 122.774 221.693 123.6C223.026 124.4 224.533 124.8 226.213 124.8C227.733 124.8 229.106 124.44 230.333 123.72C231.559 123 232.546 121.987 233.293 120.68L234.813 121.48C234.306 122.494 233.613 123.387 232.733 124.16C231.853 124.907 230.853 125.48 229.733 125.88C228.639 126.28 227.466 126.48 226.213 126.48Z" fill="#F6F5F0"/>
<path d="M254.857 126.48C252.99 126.48 251.337 126.027 249.897 125.12C248.457 124.187 247.377 122.907 246.657 121.28L248.337 120.52C249.03 121.854 249.937 122.894 251.057 123.64C252.204 124.387 253.47 124.76 254.857 124.76C256.35 124.76 257.604 124.387 258.617 123.64C259.657 122.894 260.177 121.907 260.177 120.68C260.177 120.04 260.03 119.467 259.737 118.96C259.444 118.454 259.004 118.014 258.417 117.64C257.857 117.24 257.164 116.934 256.337 116.72L252.857 115.76C251.15 115.307 249.87 114.614 249.017 113.68C248.164 112.72 247.737 111.56 247.737 110.2C247.737 109.08 248.017 108.094 248.577 107.24C249.164 106.36 249.95 105.68 250.937 105.2C251.924 104.72 253.017 104.48 254.217 104.48C255.924 104.48 257.47 104.92 258.857 105.8C260.27 106.654 261.244 107.787 261.777 109.2L260.017 110C259.43 108.8 258.63 107.867 257.617 107.2C256.604 106.534 255.47 106.2 254.217 106.2C252.884 106.2 251.777 106.574 250.897 107.32C250.017 108.067 249.577 109.014 249.577 110.16C249.577 110.747 249.71 111.28 249.977 111.76C250.244 112.214 250.644 112.614 251.177 112.96C251.71 113.307 252.364 113.587 253.137 113.8L256.657 114.8C258.39 115.28 259.724 116.027 260.657 117.04C261.59 118.027 262.057 119.214 262.057 120.6C262.057 121.72 261.737 122.734 261.097 123.64C260.457 124.52 259.59 125.214 258.497 125.72C257.43 126.227 256.217 126.48 254.857 126.48Z" fill="#F6F5F0"/>
<path d="M275.491 126.24C273.865 126.24 272.611 125.8 271.731 124.92C270.851 124.04 270.411 122.72 270.411 120.96V106.56H266.411V104.96H268.411C269.105 104.96 269.611 104.787 269.931 104.44C270.251 104.094 270.411 103.547 270.411 102.8V100H272.211V104.96H276.771V106.56H272.211V120.96C272.211 121.44 272.278 121.96 272.411 122.52C272.571 123.08 272.891 123.56 273.371 123.96C273.878 124.334 274.638 124.52 275.651 124.52C275.865 124.52 276.131 124.507 276.451 124.48C276.771 124.454 277.025 124.427 277.211 124.4V126C276.945 126.08 276.625 126.134 276.251 126.16C275.905 126.214 275.651 126.24 275.491 126.24Z" fill="#F6F5F0"/>
<path d="M290.848 126.48C289.461 126.48 288.168 126.174 286.968 125.56C285.768 124.947 284.794 124.054 284.048 122.88C283.301 121.707 282.928 120.267 282.928 118.56V104.96H284.728V118.56C284.728 119.894 285.008 121.027 285.568 121.96C286.154 122.894 286.928 123.6 287.888 124.08C288.848 124.534 289.888 124.76 291.008 124.76C292.368 124.76 293.514 124.454 294.448 123.84C295.408 123.2 296.128 122.347 296.608 121.28C297.088 120.214 297.328 119.04 297.328 117.76V104.96H299.128V126H297.328V121.56L297.808 121.76C297.381 123.147 296.541 124.28 295.288 125.16C294.061 126.04 292.581 126.48 290.848 126.48Z" fill="#F6F5F0"/>
<path d="M315.66 126.48C313.714 126.48 311.954 126 310.38 125.04C308.807 124.054 307.567 122.734 306.66 121.08C305.754 119.427 305.3 117.56 305.3 115.48C305.3 113.4 305.754 111.534 306.66 109.88C307.567 108.2 308.807 106.88 310.38 105.92C311.954 104.96 313.714 104.48 315.66 104.48C317.687 104.48 319.5 105.014 321.1 106.08C322.7 107.12 323.874 108.507 324.62 110.24L324.3 110.92V95.7202H326.1V126H324.3V120.04L324.62 120.72C323.874 122.454 322.7 123.854 321.1 124.92C319.5 125.96 317.687 126.48 315.66 126.48ZM315.66 124.68C317.287 124.68 318.74 124.28 320.02 123.48C321.3 122.68 322.314 121.587 323.06 120.2C323.807 118.814 324.18 117.24 324.18 115.48C324.18 113.694 323.807 112.12 323.06 110.76C322.314 109.374 321.3 108.28 320.02 107.48C318.74 106.68 317.287 106.28 315.66 106.28C314.034 106.28 312.58 106.68 311.3 107.48C310.047 108.28 309.047 109.374 308.3 110.76C307.58 112.147 307.22 113.72 307.22 115.48C307.22 117.24 307.58 118.814 308.3 120.2C309.047 121.587 310.047 122.68 311.3 123.48C312.58 124.28 314.034 124.68 315.66 124.68Z" fill="#F6F5F0"/>
<path d="M333.133 126V104.96H334.933V126H333.133ZM333.133 100.6V96.2002H334.933V100.6H333.133Z" fill="#F6F5F0"/>
<path d="M351.681 126.48C349.681 126.48 347.881 126 346.281 125.04C344.681 124.08 343.415 122.774 342.481 121.12C341.548 119.44 341.081 117.56 341.081 115.48C341.081 113.374 341.548 111.494 342.481 109.84C343.415 108.187 344.681 106.88 346.281 105.92C347.881 104.96 349.681 104.48 351.681 104.48C353.708 104.48 355.508 104.96 357.081 105.92C358.681 106.88 359.948 108.187 360.881 109.84C361.815 111.494 362.281 113.374 362.281 115.48C362.281 117.56 361.815 119.44 360.881 121.12C359.948 122.774 358.681 124.08 357.081 125.04C355.508 126 353.708 126.48 351.681 126.48ZM351.681 124.76C353.308 124.76 354.775 124.36 356.081 123.56C357.388 122.734 358.428 121.614 359.201 120.2C359.975 118.787 360.361 117.214 360.361 115.48C360.361 113.72 359.975 112.147 359.201 110.76C358.455 109.347 357.428 108.24 356.121 107.44C354.815 106.614 353.335 106.2 351.681 106.2C350.055 106.2 348.575 106.614 347.241 107.44C345.935 108.24 344.895 109.347 344.121 110.76C343.375 112.147 343.001 113.72 343.001 115.48C343.001 117.214 343.388 118.787 344.161 120.2C344.935 121.614 345.975 122.734 347.281 123.56C348.588 124.36 350.055 124.76 351.681 124.76Z" fill="#F6F5F0"/>
<path d="M375.326 126.48C373.459 126.48 371.806 126.027 370.366 125.12C368.926 124.187 367.846 122.907 367.126 121.28L368.806 120.52C369.499 121.854 370.406 122.894 371.526 123.64C372.672 124.387 373.939 124.76 375.326 124.76C376.819 124.76 378.072 124.387 379.086 123.64C380.126 122.894 380.646 121.907 380.646 120.68C380.646 120.04 380.499 119.467 380.206 118.96C379.912 118.454 379.472 118.014 378.886 117.64C378.326 117.24 377.632 116.934 376.806 116.72L373.326 115.76C371.619 115.307 370.339 114.614 369.486 113.68C368.632 112.72 368.206 111.56 368.206 110.2C368.206 109.08 368.486 108.094 369.046 107.24C369.632 106.36 370.419 105.68 371.406 105.2C372.392 104.72 373.486 104.48 374.686 104.48C376.392 104.48 377.939 104.92 379.326 105.8C380.739 106.654 381.712 107.787 382.246 109.2L380.486 110C379.899 108.8 379.099 107.867 378.086 107.2C377.072 106.534 375.939 106.2 374.686 106.2C373.352 106.2 372.246 106.574 371.366 107.32C370.486 108.067 370.046 109.014 370.046 110.16C370.046 110.747 370.179 111.28 370.446 111.76C370.712 112.214 371.112 112.614 371.646 112.96C372.179 113.307 372.832 113.587 373.606 113.8L377.126 114.8C378.859 115.28 380.192 116.027 381.126 117.04C382.059 118.027 382.526 119.214 382.526 120.6C382.526 121.72 382.206 122.734 381.566 123.64C380.926 124.52 380.059 125.214 378.966 125.72C377.899 126.227 376.686 126.48 375.326 126.48Z" fill="#F6F5F0"/>
<path d="M124.771 158.192C123.971 158.192 123.251 158 122.611 157.616C121.971 157.222 121.464 156.688 121.091 156.016C120.717 155.334 120.531 154.571 120.531 153.728C120.531 152.886 120.712 152.134 121.075 151.472C121.437 150.8 121.928 150.272 122.547 149.888C123.165 149.504 123.859 149.312 124.627 149.312C125.213 149.312 125.741 149.419 126.211 149.632C126.691 149.846 127.101 150.144 127.443 150.528C127.795 150.902 128.061 151.334 128.243 151.824C128.435 152.304 128.531 152.811 128.531 153.344C128.531 153.451 128.525 153.563 128.515 153.68C128.504 153.798 128.488 153.92 128.467 154.048H121.091V153.168H127.923L127.491 153.504C127.555 152.886 127.464 152.331 127.219 151.84C126.973 151.339 126.621 150.944 126.163 150.656C125.715 150.358 125.203 150.208 124.627 150.208C124.051 150.208 123.523 150.363 123.043 150.672C122.563 150.971 122.184 151.387 121.907 151.92C121.629 152.443 121.501 153.051 121.523 153.744C121.501 154.438 121.635 155.051 121.923 155.584C122.211 156.118 122.605 156.539 123.107 156.848C123.608 157.147 124.163 157.296 124.771 157.296C125.389 157.296 125.928 157.152 126.387 156.864C126.845 156.566 127.219 156.171 127.507 155.68L128.323 156.112C128.131 156.507 127.859 156.864 127.507 157.184C127.155 157.494 126.744 157.739 126.275 157.92C125.816 158.102 125.315 158.192 124.771 158.192Z" fill="#F6F5F0"/>
<path d="M130.852 161.52C130.703 161.52 130.538 161.504 130.356 161.472C130.186 161.451 130.02 161.414 129.86 161.36V160.464C129.988 160.496 130.132 160.523 130.292 160.544C130.463 160.566 130.618 160.576 130.756 160.576C131.279 160.566 131.69 160.438 131.988 160.192C132.287 159.947 132.559 159.542 132.804 158.976L133.412 157.552V158.448L129.812 149.504H130.868L133.956 157.216H133.572L136.676 149.504H137.748L133.78 159.184C133.631 159.536 133.434 159.894 133.188 160.256C132.943 160.619 132.628 160.918 132.244 161.152C131.871 161.398 131.407 161.52 130.852 161.52Z" fill="#F6F5F0"/>
<path d="M143.083 158.192C142.283 158.192 141.563 158 140.923 157.616C140.283 157.222 139.777 156.688 139.403 156.016C139.03 155.334 138.843 154.571 138.843 153.728C138.843 152.886 139.025 152.134 139.387 151.472C139.75 150.8 140.241 150.272 140.859 149.888C141.478 149.504 142.171 149.312 142.939 149.312C143.526 149.312 144.054 149.419 144.523 149.632C145.003 149.846 145.414 150.144 145.755 150.528C146.107 150.902 146.374 151.334 146.555 151.824C146.747 152.304 146.843 152.811 146.843 153.344C146.843 153.451 146.838 153.563 146.827 153.68C146.817 153.798 146.801 153.92 146.779 154.048H139.403V153.168H146.235L145.803 153.504C145.867 152.886 145.777 152.331 145.531 151.84C145.286 151.339 144.934 150.944 144.475 150.656C144.027 150.358 143.515 150.208 142.939 150.208C142.363 150.208 141.835 150.363 141.355 150.672C140.875 150.971 140.497 151.387 140.219 151.92C139.942 152.443 139.814 153.051 139.835 153.744C139.814 154.438 139.947 155.051 140.235 155.584C140.523 156.118 140.918 156.539 141.419 156.848C141.921 157.147 142.475 157.296 143.083 157.296C143.702 157.296 144.241 157.152 144.699 156.864C145.158 156.566 145.531 156.171 145.819 155.68L146.635 156.112C146.443 156.507 146.171 156.864 145.819 157.184C145.467 157.494 145.057 157.739 144.587 157.92C144.129 158.102 143.627 158.192 143.083 158.192Z" fill="#F6F5F0"/>
<path d="M149.133 158V145.888H150.093V158H149.133Z" fill="#F6F5F0"/>
<path d="M155.158 158.192C154.625 158.192 154.15 158.091 153.734 157.888C153.318 157.686 152.988 157.403 152.742 157.04C152.497 156.678 152.374 156.262 152.374 155.792C152.374 155.376 152.465 154.987 152.646 154.624C152.828 154.262 153.121 153.952 153.526 153.696C153.932 153.43 154.46 153.243 155.11 153.136L158.55 152.56V153.456L155.366 153.984C154.641 154.102 154.129 154.32 153.83 154.64C153.532 154.96 153.382 155.334 153.382 155.76C153.382 156.219 153.553 156.592 153.894 156.88C154.246 157.168 154.689 157.312 155.222 157.312C155.841 157.312 156.38 157.174 156.838 156.896C157.297 156.608 157.654 156.235 157.91 155.776C158.166 155.307 158.294 154.795 158.294 154.24V152.128C158.294 151.563 158.092 151.104 157.686 150.752C157.281 150.4 156.753 150.224 156.102 150.224C155.569 150.224 155.089 150.358 154.662 150.624C154.236 150.891 153.91 151.238 153.686 151.664L152.822 151.2C152.982 150.859 153.228 150.544 153.558 150.256C153.889 149.968 154.273 149.739 154.71 149.568C155.148 149.398 155.612 149.312 156.102 149.312C156.721 149.312 157.265 149.435 157.734 149.68C158.214 149.915 158.588 150.246 158.854 150.672C159.121 151.088 159.254 151.574 159.254 152.128V158H158.294V156.224L158.406 156.304C158.268 156.646 158.038 156.96 157.718 157.248C157.398 157.526 157.02 157.755 156.582 157.936C156.156 158.107 155.681 158.192 155.158 158.192Z" fill="#F6F5F0"/>
<path d="M164.762 158.192C163.973 158.192 163.28 157.995 162.682 157.6C162.085 157.206 161.648 156.667 161.37 155.984L162.202 155.6C162.469 156.123 162.826 156.539 163.274 156.848C163.722 157.147 164.218 157.296 164.762 157.296C165.317 157.296 165.781 157.163 166.154 156.896C166.538 156.619 166.73 156.256 166.73 155.808C166.73 155.531 166.656 155.296 166.506 155.104C166.368 154.912 166.186 154.758 165.962 154.64C165.738 154.512 165.498 154.416 165.242 154.352L163.93 153.984C163.194 153.782 162.65 153.483 162.298 153.088C161.957 152.694 161.786 152.23 161.786 151.696C161.786 151.216 161.909 150.8 162.154 150.448C162.4 150.086 162.73 149.808 163.146 149.616C163.562 149.414 164.021 149.312 164.522 149.312C165.226 149.312 165.866 149.494 166.442 149.856C167.018 150.219 167.424 150.71 167.658 151.328L166.794 151.728C166.57 151.248 166.256 150.875 165.85 150.608C165.445 150.331 164.997 150.192 164.506 150.192C163.994 150.192 163.578 150.331 163.258 150.608C162.938 150.875 162.778 151.216 162.778 151.632C162.778 151.899 162.842 152.123 162.97 152.304C163.098 152.475 163.264 152.619 163.466 152.736C163.68 152.843 163.898 152.928 164.122 152.992L165.546 153.408C166.24 153.6 166.773 153.904 167.146 154.32C167.53 154.736 167.722 155.227 167.722 155.792C167.722 156.251 167.594 156.662 167.338 157.024C167.082 157.387 166.73 157.675 166.282 157.888C165.834 158.091 165.328 158.192 164.762 158.192Z" fill="#F6F5F0"/>
<path d="M170.023 158V145.888H170.983V151.216L170.743 151.152C170.935 150.587 171.277 150.139 171.767 149.808C172.269 149.478 172.85 149.312 173.511 149.312C174.098 149.312 174.631 149.446 175.111 149.712C175.591 149.979 175.975 150.352 176.263 150.832C176.551 151.302 176.695 151.84 176.695 152.448V158H175.735V152.72C175.735 152.208 175.629 151.771 175.415 151.408C175.213 151.035 174.93 150.752 174.567 150.56C174.215 150.358 173.815 150.256 173.367 150.256C172.887 150.256 172.466 150.368 172.103 150.592C171.751 150.816 171.474 151.126 171.271 151.52C171.079 151.915 170.983 152.368 170.983 152.88V158H170.023Z" fill="#F6F5F0"/>
<path d="M185.708 158.192C184.908 158.192 184.188 158 183.548 157.616C182.908 157.222 182.402 156.688 182.028 156.016C181.655 155.334 181.468 154.571 181.468 153.728C181.468 152.886 181.65 152.134 182.012 151.472C182.375 150.8 182.866 150.272 183.484 149.888C184.103 149.504 184.796 149.312 185.564 149.312C186.151 149.312 186.679 149.419 187.148 149.632C187.628 149.846 188.039 150.144 188.38 150.528C188.732 150.902 188.999 151.334 189.18 151.824C189.372 152.304 189.468 152.811 189.468 153.344C189.468 153.451 189.463 153.563 189.452 153.68C189.442 153.798 189.426 153.92 189.404 154.048H182.028V153.168H188.86L188.428 153.504C188.492 152.886 188.402 152.331 188.156 151.84C187.911 151.339 187.559 150.944 187.1 150.656C186.652 150.358 186.14 150.208 185.564 150.208C184.988 150.208 184.46 150.363 183.98 150.672C183.5 150.971 183.122 151.387 182.844 151.92C182.567 152.443 182.439 153.051 182.46 153.744C182.439 154.438 182.572 155.051 182.86 155.584C183.148 156.118 183.543 156.539 184.044 156.848C184.546 157.147 185.1 157.296 185.708 157.296C186.327 157.296 186.866 157.152 187.324 156.864C187.783 156.566 188.156 156.171 188.444 155.68L189.26 156.112C189.068 156.507 188.796 156.864 188.444 157.184C188.092 157.494 187.682 157.739 187.212 157.92C186.754 158.102 186.252 158.192 185.708 158.192Z" fill="#F6F5F0"/>
<path d="M190.545 158L193.537 153.744L190.561 149.504H191.761L194.497 153.424H193.777L196.497 149.504H197.697L194.721 153.744L197.697 158H196.497L193.777 154.064H194.497L191.745 158H190.545Z" fill="#F6F5F0"/>
<path d="M202.393 158.096C201.689 158.096 201.145 157.899 200.761 157.504C200.377 157.099 200.185 156.512 200.185 155.744V150.416H198.585V149.504H199.193C199.513 149.504 199.758 149.408 199.929 149.216C200.099 149.024 200.185 148.763 200.185 148.432V147.52H201.145V149.504H203.001V150.416H201.145V155.744C201.145 155.979 201.177 156.208 201.241 156.432C201.315 156.656 201.454 156.838 201.657 156.976C201.859 157.115 202.153 157.184 202.537 157.184C202.622 157.184 202.723 157.179 202.841 157.168C202.969 157.158 203.07 157.147 203.145 157.136V158C203.027 158.032 202.894 158.054 202.745 158.064C202.595 158.086 202.478 158.096 202.393 158.096Z" fill="#F6F5F0"/>
<path d="M209.021 158.192C208.221 158.192 207.501 158 206.861 157.616C206.221 157.222 205.714 156.688 205.341 156.016C204.967 155.334 204.781 154.571 204.781 153.728C204.781 152.886 204.962 152.134 205.325 151.472C205.687 150.8 206.178 150.272 206.797 149.888C207.415 149.504 208.109 149.312 208.877 149.312C209.463 149.312 209.991 149.419 210.461 149.632C210.941 149.846 211.351 150.144 211.693 150.528C212.045 150.902 212.311 151.334 212.493 151.824C212.685 152.304 212.781 152.811 212.781 153.344C212.781 153.451 212.775 153.563 212.765 153.68C212.754 153.798 212.738 153.92 212.717 154.048H205.341V153.168H212.173L211.741 153.504C211.805 152.886 211.714 152.331 211.469 151.84C211.223 151.339 210.871 150.944 210.413 150.656C209.965 150.358 209.453 150.208 208.877 150.208C208.301 150.208 207.773 150.363 207.293 150.672C206.813 150.971 206.434 151.387 206.157 151.92C205.879 152.443 205.751 153.051 205.773 153.744C205.751 154.438 205.885 155.051 206.173 155.584C206.461 156.118 206.855 156.539 207.357 156.848C207.858 157.147 208.413 157.296 209.021 157.296C209.639 157.296 210.178 157.152 210.637 156.864C211.095 156.566 211.469 156.171 211.757 155.68L212.573 156.112C212.381 156.507 212.109 156.864 211.757 157.184C211.405 157.494 210.994 157.739 210.525 157.92C210.066 158.102 209.565 158.192 209.021 158.192Z" fill="#F6F5F0"/>
<path d="M215.07 158V149.504H216.03V151.216L215.79 151.152C215.982 150.587 216.324 150.139 216.814 149.808C217.316 149.478 217.897 149.312 218.558 149.312C219.145 149.312 219.678 149.446 220.158 149.712C220.638 149.979 221.022 150.352 221.31 150.832C221.598 151.302 221.742 151.84 221.742 152.448V158H220.782V152.72C220.782 152.208 220.681 151.771 220.478 151.408C220.276 151.035 219.993 150.752 219.63 150.56C219.278 150.358 218.873 150.256 218.414 150.256C217.934 150.256 217.513 150.368 217.15 150.592C216.788 150.816 216.51 151.126 216.318 151.52C216.126 151.915 216.03 152.368 216.03 152.88V158H215.07Z" fill="#F6F5F0"/>
<path d="M227.09 158.192C226.301 158.192 225.608 157.995 225.01 157.6C224.413 157.206 223.976 156.667 223.698 155.984L224.53 155.6C224.797 156.123 225.154 156.539 225.602 156.848C226.05 157.147 226.546 157.296 227.09 157.296C227.645 157.296 228.109 157.163 228.482 156.896C228.866 156.619 229.058 156.256 229.058 155.808C229.058 155.531 228.984 155.296 228.834 155.104C228.696 154.912 228.514 154.758 228.29 154.64C228.066 154.512 227.826 154.416 227.57 154.352L226.258 153.984C225.522 153.782 224.978 153.483 224.626 153.088C224.285 152.694 224.114 152.23 224.114 151.696C224.114 151.216 224.237 150.8 224.482 150.448C224.728 150.086 225.058 149.808 225.474 149.616C225.89 149.414 226.349 149.312 226.85 149.312C227.554 149.312 228.194 149.494 228.77 149.856C229.346 150.219 229.752 150.71 229.986 151.328L229.122 151.728C228.898 151.248 228.584 150.875 228.178 150.608C227.773 150.331 227.325 150.192 226.834 150.192C226.322 150.192 225.906 150.331 225.586 150.608C225.266 150.875 225.106 151.216 225.106 151.632C225.106 151.899 225.17 152.123 225.298 152.304C225.426 152.475 225.592 152.619 225.794 152.736C226.008 152.843 226.226 152.928 226.45 152.992L227.874 153.408C228.568 153.6 229.101 153.904 229.474 154.32C229.858 154.736 230.05 155.227 230.05 155.792C230.05 156.251 229.922 156.662 229.666 157.024C229.41 157.387 229.058 157.675 228.61 157.888C228.162 158.091 227.656 158.192 227.09 158.192Z" fill="#F6F5F0"/>
<path d="M232.351 158V149.504H233.311V158H232.351ZM232.351 147.84V146.08H233.311V147.84H232.351Z" fill="#F6F5F0"/>
<path d="M239.897 158.192C239.087 158.192 238.356 158 237.705 157.616C237.055 157.232 236.537 156.704 236.153 156.032C235.78 155.35 235.593 154.587 235.593 153.744C235.593 152.902 235.78 152.144 236.153 151.472C236.537 150.8 237.049 150.272 237.689 149.888C238.34 149.504 239.076 149.312 239.897 149.312C240.708 149.312 241.439 149.504 242.089 149.888C242.74 150.272 243.252 150.8 243.625 151.472C243.999 152.134 244.185 152.891 244.185 153.744C244.185 154.598 243.993 155.36 243.609 156.032C243.225 156.704 242.708 157.232 242.057 157.616C241.417 158 240.697 158.192 239.897 158.192ZM239.897 157.248C240.505 157.248 241.055 157.099 241.545 156.8C242.047 156.491 242.441 156.07 242.729 155.536C243.017 155.003 243.161 154.406 243.161 153.744C243.161 153.083 243.017 152.491 242.729 151.968C242.441 151.446 242.052 151.03 241.561 150.72C241.071 150.411 240.516 150.256 239.897 150.256C239.279 150.256 238.719 150.411 238.217 150.72C237.727 151.019 237.337 151.435 237.049 151.968C236.761 152.491 236.617 153.083 236.617 153.744C236.617 154.406 236.761 155.003 237.049 155.536C237.348 156.07 237.743 156.491 238.233 156.8C238.724 157.099 239.279 157.248 239.897 157.248Z" fill="#F6F5F0"/>
<path d="M246.492 158V149.504H247.452V151.216L247.212 151.152C247.404 150.587 247.745 150.139 248.236 149.808C248.737 149.478 249.319 149.312 249.98 149.312C250.567 149.312 251.1 149.446 251.58 149.712C252.06 149.979 252.444 150.352 252.732 150.832C253.02 151.302 253.164 151.84 253.164 152.448V158H252.204V152.72C252.204 152.208 252.103 151.771 251.9 151.408C251.697 151.035 251.415 150.752 251.052 150.56C250.7 150.358 250.295 150.256 249.836 150.256C249.356 150.256 248.935 150.368 248.572 150.592C248.209 150.816 247.932 151.126 247.74 151.52C247.548 151.915 247.452 152.368 247.452 152.88V158H246.492Z" fill="#F6F5F0"/>
<path d="M258.512 158.192C257.723 158.192 257.03 157.995 256.432 157.6C255.835 157.206 255.398 156.667 255.12 155.984L255.952 155.6C256.219 156.123 256.576 156.539 257.024 156.848C257.472 157.147 257.968 157.296 258.512 157.296C259.067 157.296 259.531 157.163 259.904 156.896C260.288 156.619 260.48 156.256 260.48 155.808C260.48 155.531 260.406 155.296 260.256 155.104C260.118 154.912 259.936 154.758 259.712 154.64C259.488 154.512 259.248 154.416 258.992 154.352L257.68 153.984C256.944 153.782 256.4 153.483 256.048 153.088C255.707 152.694 255.536 152.23 255.536 151.696C255.536 151.216 255.659 150.8 255.904 150.448C256.15 150.086 256.48 149.808 256.896 149.616C257.312 149.414 257.771 149.312 258.272 149.312C258.976 149.312 259.616 149.494 260.192 149.856C260.768 150.219 261.174 150.71 261.408 151.328L260.544 151.728C260.32 151.248 260.006 150.875 259.6 150.608C259.195 150.331 258.747 150.192 258.256 150.192C257.744 150.192 257.328 150.331 257.008 150.608C256.688 150.875 256.528 151.216 256.528 151.632C256.528 151.899 256.592 152.123 256.72 152.304C256.848 152.475 257.014 152.619 257.216 152.736C257.43 152.843 257.648 152.928 257.872 152.992L259.296 153.408C259.99 153.6 260.523 153.904 260.896 154.32C261.28 154.736 261.472 155.227 261.472 155.792C261.472 156.251 261.344 156.662 261.088 157.024C260.832 157.387 260.48 157.675 260.032 157.888C259.584 158.091 259.078 158.192 258.512 158.192Z" fill="#F6F5F0"/>
<path d="M305.794 163.895C297.274 187.627 281.637 208.151 261.019 222.666C240.402 237.182 215.807 244.981 190.592 245C165.377 245.019 140.77 237.256 120.131 222.772C99.4911 208.287 83.8241 187.786 75.2681 164.067L77.5727 163.236C85.9576 186.48 101.311 206.571 121.538 220.766C141.765 234.961 165.879 242.568 190.59 242.55C215.301 242.531 239.403 234.888 259.609 220.663C279.815 206.438 295.138 186.324 303.488 163.067L305.794 163.895Z" fill="#F6F5F0"/>
<path d="M305.794 81.1052C297.274 57.3735 281.637 36.8492 261.019 22.3338C240.402 7.81832 215.807 0.0188942 190.592 3.42848e-05C165.377 -0.0188256 140.77 7.7438 120.131 22.2284C99.4911 36.713 83.8241 57.2138 75.2681 80.9328L77.5727 81.7641C85.9576 58.5195 101.311 38.4287 121.538 24.2338C141.765 10.0389 165.879 2.43155 190.59 2.45003C215.301 2.46851 239.403 10.1119 259.609 24.3371C279.815 38.5622 295.138 58.676 303.488 81.9331L305.794 81.1052Z" fill="#F6F5F0"/>
</svg>
