<svg width="94" height="91" viewBox="0 0 94 91" fill="none" xmlns="http://www.w3.org/2000/svg">
<path d="M25.6363 10.6735L27.2219 9.99018C27.3792 10.2307 27.5618 10.4251 27.7699 10.5734C27.9791 10.7245 28.2046 10.8318 28.4464 10.8951C28.6882 10.9585 28.9402 10.9755 29.2024 10.9463C29.463 10.9211 29.7261 10.8513 29.9918 10.7368C30.4638 10.5334 30.831 10.2344 31.0932 9.83981C31.3567 9.44809 31.4936 8.98025 31.5038 8.43629C31.5152 7.89515 31.3802 7.29814 31.0988 6.64526C30.8126 5.98108 30.4682 5.46593 30.0658 5.09981C29.6617 4.73774 29.2289 4.51879 28.7672 4.44295C28.304 4.37115 27.8377 4.43636 27.3686 4.63857C27.1085 4.75064 26.8801 4.88931 26.6832 5.05459C26.4847 5.22392 26.3243 5.4154 26.2019 5.62902C26.0766 5.84386 25.9945 6.077 25.9554 6.32844C25.9135 6.5811 25.9233 6.84497 25.9849 7.12005L24.3957 7.79493C24.2772 7.35671 24.2389 6.91408 24.2808 6.46704C24.3199 6.02122 24.438 5.59161 24.6352 5.1782C24.8336 4.76761 25.1113 4.39324 25.4682 4.05507C25.8264 3.71973 26.2641 3.4406 26.7813 3.21769C27.5444 2.88879 28.3017 2.77187 29.0531 2.86692C29.8046 2.96196 30.4965 3.26869 31.1287 3.78709C31.761 4.30549 32.2782 5.03104 32.6801 5.96372C33.0833 6.89924 33.2543 7.774 33.1929 8.58802C33.1327 9.40486 32.8792 10.119 32.4323 10.7306C31.9854 11.3421 31.3832 11.8111 30.6257 12.1376C30.1424 12.3459 29.6638 12.4717 29.1899 12.5151C28.7159 12.5585 28.2598 12.5188 27.8215 12.3961C27.3844 12.2761 26.9796 12.0719 26.6073 11.7833C26.2333 11.4987 25.9096 11.1288 25.6363 10.6735Z" fill="#F05454"/>
<path d="M17.3838 9.51087L23.654 16.5871L22.3721 17.723L17.0541 11.7213L13.9375 14.4829L12.9853 13.4083L17.3838 9.51087Z" fill="#F05454"/>
<path d="M8.10739 29.507C7.22721 28.9942 6.56939 28.3901 6.13396 27.6946C5.69963 27.0035 5.48128 26.2778 5.47891 25.5177C5.47499 24.7603 5.68143 24.0239 6.09822 23.3086C6.51502 22.5933 7.05462 22.0493 7.71705 21.6766C8.38058 21.308 9.12087 21.141 9.9379 21.1753C10.756 21.2139 11.6039 21.4889 12.4814 22.0002C13.3616 22.513 14.0189 23.1151 14.4532 23.8063C14.8886 24.5017 15.1083 25.2281 15.1122 25.9855C15.1146 26.7456 14.9074 27.4833 14.4906 28.1986C14.0738 28.9139 13.535 29.4566 12.8741 29.8267C12.2117 30.1994 11.4714 30.3665 10.6532 30.3279C9.83619 30.2935 8.98758 30.0199 8.10739 29.507ZM8.9743 28.0192C9.59388 28.3802 10.173 28.5876 10.7115 28.6414C11.2512 28.6994 11.7293 28.6218 12.1456 28.4084C12.5647 28.1967 12.9036 27.8687 13.1623 27.4247C13.4211 26.9806 13.5393 26.524 13.5169 26.0551C13.4972 25.5876 13.3298 25.1321 13.0148 24.6886C12.7009 24.2492 12.2341 23.849 11.6145 23.488C10.9949 23.127 10.4153 22.9175 9.8756 22.8595C9.33702 22.8057 8.85822 22.8847 8.43918 23.0964C8.0228 23.3098 7.68523 23.6385 7.42648 24.0826C7.16773 24.5266 7.04821 24.9824 7.06794 25.4498C7.09033 25.9188 7.25847 26.373 7.57238 26.8123C7.8874 27.2559 8.35471 27.6582 8.9743 28.0192Z" fill="#F05454"/>
<path d="M7.97286 40.4013C8.37671 40.4376 8.71997 40.3206 9.00264 40.0503C9.28472 39.7831 9.47518 39.4005 9.57402 38.9024C9.64352 38.5522 9.65029 38.2413 9.59436 37.9698C9.53842 37.6983 9.43307 37.4781 9.2783 37.3094C9.12354 37.1406 8.93023 37.0316 8.69838 36.9825C8.50518 36.9442 8.32895 36.9547 8.16969 37.0141C8.00984 37.0765 7.86482 37.1748 7.73465 37.309C7.6075 37.4438 7.49214 37.5981 7.38859 37.7721C7.28503 37.9461 7.19175 38.1237 7.10872 38.3049L6.71884 39.1312C6.56784 39.4652 6.39086 39.7799 6.1879 40.0754C5.98433 40.3738 5.75143 40.6304 5.4892 40.8451C5.22636 41.0627 4.93054 41.2174 4.60173 41.309C4.27291 41.4007 3.90776 41.4066 3.50626 41.327C2.96288 41.2191 2.51196 40.9853 2.1535 40.6255C1.79806 40.2663 1.55623 39.801 1.42802 39.2296C1.30223 38.6618 1.31302 38.0066 1.46039 37.264C1.60357 36.5425 1.83957 35.9383 2.1684 35.4513C2.49662 34.9674 2.90472 34.6185 3.3927 34.4047C3.88007 34.1939 4.43407 34.1376 5.0547 34.2356L4.72671 35.8884C4.39891 35.8485 4.11047 35.8948 3.86139 36.0273C3.61231 36.1599 3.40708 36.3561 3.24571 36.6158C3.08374 36.8786 2.96801 37.1851 2.89852 37.5353C2.82604 37.9006 2.81687 38.2313 2.87103 38.5276C2.92761 38.8275 3.03844 39.0754 3.20351 39.2713C3.3716 39.4678 3.58817 39.594 3.85322 39.6497C4.09533 39.6946 4.30864 39.6632 4.49318 39.5555C4.68073 39.4484 4.8522 39.28 5.00758 39.0504C5.16538 38.8245 5.31949 38.5538 5.46991 38.2385L5.95097 37.2374C6.29876 36.5126 6.71592 35.9678 7.20246 35.6031C7.69142 35.2421 8.26797 35.1274 8.9321 35.2592C9.4785 35.3677 9.92763 35.6105 10.2795 35.9879C10.6307 36.3682 10.8686 36.8374 10.9932 37.3955C11.1208 37.9543 11.1202 38.5581 10.9914 39.2072C10.8608 39.8653 10.6316 40.4191 10.304 40.8686C9.97872 41.3218 9.58568 41.6501 9.12485 41.8536C8.66704 42.0577 8.17611 42.1125 7.65206 42.0179L7.97286 40.4013Z" fill="#F05454"/>
<path d="M1.20064 48.7993L10.5846 47.6464L11.3344 53.7497L9.90943 53.9247L9.36847 49.5214L6.82086 49.8344L7.32298 53.9216L5.89797 54.0966L5.39585 50.0094L2.8345 50.3241L3.37996 54.7641L1.95495 54.9392L1.20064 48.7993Z" fill="#F05454"/>
<path d="M28.2919 80.1496L26.9032 79.1237C27.0318 78.8667 27.1078 78.611 27.1312 78.3566C27.1565 78.0998 27.1356 77.8509 27.0686 77.6101C27.0016 77.3693 26.8895 77.143 26.7322 76.9311C26.5793 76.7186 26.3864 76.5264 26.1537 76.3545C25.7404 76.0491 25.2972 75.8824 24.8242 75.8545C24.3531 75.824 23.88 75.9413 23.4049 76.2063C22.9316 76.4689 22.4837 76.8861 22.0612 77.4579C21.6315 78.0396 21.3597 78.5965 21.246 79.1285C21.1366 79.6599 21.1653 80.1441 21.3322 80.5812C21.5034 81.0176 21.7945 81.3876 22.2054 81.6912C22.4331 81.8594 22.6679 81.987 22.9099 82.0739C23.1561 82.1602 23.4023 82.2024 23.6485 82.2006C23.8972 82.2007 24.14 82.1543 24.3769 82.0615C24.6163 81.9705 24.8394 81.8291 25.046 81.6375L26.4293 82.6708C26.1103 82.9938 25.7471 83.2497 25.3397 83.4386C24.9349 83.6292 24.5042 83.7435 24.0477 83.7812C23.5931 83.8165 23.1298 83.7651 22.6579 83.6269C22.1879 83.4863 21.7263 83.2486 21.2733 82.9139C20.605 82.4202 20.1227 81.8247 19.8265 81.1276C19.5303 80.4305 19.447 79.6783 19.5766 78.871C19.7062 78.0637 20.0728 77.2516 20.6763 76.4347C21.2816 75.6153 21.9514 75.0273 22.6856 74.6705C23.4217 74.3113 24.1664 74.1708 24.9198 74.249C25.6731 74.3273 26.3815 74.6115 27.0449 75.1016C27.4682 75.4143 27.8179 75.7645 28.094 76.1522C28.3701 76.5398 28.5655 76.9539 28.6801 77.3944C28.7965 77.8325 28.8238 78.285 28.7619 78.752C28.7043 79.2184 28.5476 79.6843 28.2919 80.1496Z" fill="#F05454"/>
<path d="M31.4419 87.8654L34.3993 78.8853L36.0261 79.421L33.5178 87.0375L37.4729 88.34L37.0238 89.7037L31.4419 87.8654Z" fill="#F05454"/>
<path d="M53.3893 85.8136C53.3893 86.8323 53.1985 87.7048 52.8168 88.4311C52.4383 89.1544 51.9212 89.7083 51.2657 90.093C50.6132 90.4777 49.8731 90.6701 49.0452 90.6701C48.2173 90.6701 47.4756 90.4777 46.82 90.093C46.1676 89.7053 45.6505 89.1497 45.2689 88.4265C44.8904 87.7002 44.7011 86.8292 44.7011 85.8136C44.7011 84.7949 44.8904 83.9239 45.2689 83.2006C45.6505 82.4743 46.1676 81.9188 46.82 81.5341C47.4756 81.1494 48.2173 80.957 49.0452 80.957C49.8731 80.957 50.6132 81.1494 51.2657 81.5341C51.9212 81.9188 52.4383 82.4743 52.8168 83.2006C53.1985 83.9239 53.3893 84.7949 53.3893 85.8136ZM51.6673 85.8136C51.6673 85.0965 51.555 84.4917 51.3303 83.9993C51.1087 83.5038 50.801 83.1298 50.407 82.8775C50.0131 82.622 49.5592 82.4943 49.0452 82.4943C48.5312 82.4943 48.0773 82.622 47.6833 82.8775C47.2894 83.1298 46.9801 83.5038 46.7554 83.9993C46.5338 84.4917 46.423 85.0965 46.423 85.8136C46.423 86.5307 46.5338 87.1369 46.7554 87.6325C46.9801 88.1249 47.2894 88.4988 47.6833 88.7543C48.0773 89.0066 48.5312 89.1328 49.0452 89.1328C49.5592 89.1328 50.0131 89.0066 50.407 88.7543C50.801 88.4988 51.1087 88.1249 51.3303 87.6325C51.555 87.1369 51.6673 86.5307 51.6673 85.8136Z" fill="#F05454"/>
<path d="M62.87 80.4451C62.698 80.078 62.4241 79.8403 62.0483 79.7321C61.6754 79.6229 61.2489 79.651 60.7688 79.8163C60.4312 79.9326 60.1593 80.0832 59.9528 80.2683C59.7464 80.4533 59.6092 80.6551 59.5413 80.8738C59.4734 81.0925 59.4765 81.3144 59.5508 81.5395C59.6149 81.7257 59.7128 81.8727 59.8442 81.9804C59.9786 82.0871 60.1366 82.1629 60.3181 82.2078C60.4985 82.2498 60.69 82.2717 60.8925 82.2736C61.0949 82.2755 61.2953 82.2667 61.4937 82.2472L62.4039 82.1681C62.7685 82.1304 63.1296 82.1249 63.487 82.1515C63.8474 82.1771 64.1863 82.2492 64.5038 82.3677C64.8242 82.4852 65.1068 82.663 65.3515 82.9009C65.5962 83.1389 65.7852 83.4514 65.9185 83.8384C66.0989 84.3622 66.1239 84.8695 65.9935 85.3604C65.862 85.8483 65.5818 86.2915 65.1526 86.69C64.7253 87.0845 64.1538 87.405 63.438 87.6516C62.7425 87.8911 62.1016 87.9914 61.5153 87.9524C60.9319 87.9125 60.425 87.7355 59.9946 87.4215C59.5671 87.1065 59.2395 86.6562 59.0118 86.0706L60.605 85.5219C60.7355 85.8253 60.9207 86.0512 61.1607 86.1996C61.4006 86.3481 61.6734 86.4267 61.9791 86.4353C62.2877 86.443 62.6108 86.3887 62.9483 86.2724C63.3004 86.1511 63.5908 85.9925 63.8196 85.7966C64.0502 85.5967 64.2086 85.3762 64.2948 85.1349C64.3799 84.8907 64.3799 84.6401 64.2946 84.383C64.2115 84.1512 64.077 83.9827 63.891 83.8775C63.7041 83.7694 63.4723 83.706 63.1957 83.6873C62.921 83.6648 62.6096 83.6679 62.2614 83.6966L61.1542 83.785C60.3529 83.8494 59.6722 83.7632 59.1121 83.5264C58.554 83.2857 58.1647 82.8453 57.9442 82.2051C57.7628 81.6784 57.7465 81.1681 57.8954 80.6741C58.0472 80.1791 58.3328 79.7374 58.7524 79.3487C59.1709 78.9572 59.693 78.6537 60.3186 78.4383C60.953 78.2198 61.5468 78.1389 62.1002 78.1957C62.6555 78.2486 63.1371 78.4229 63.5449 78.7186C63.9517 79.0115 64.2462 79.4081 64.4283 79.9085L62.87 80.4451Z" fill="#F05454"/>
<path d="M73.5355 82.0687L67.8151 74.5411L72.711 70.8206L73.5797 71.9637L70.0474 74.6479L71.6004 76.6915L74.8791 74.2L75.7478 75.3432L72.4691 77.8347L74.0305 79.8893L77.5922 77.1827L78.4608 78.3259L73.5355 82.0687Z" fill="#F05454"/>
<path d="M86.9843 42.878L86.797 44.5943C86.5101 44.6126 86.2509 44.6756 86.0194 44.7835C85.7847 44.891 85.5802 45.0343 85.4059 45.2134C85.2315 45.3925 85.0924 45.6034 84.9886 45.8459C84.882 46.085 84.813 46.3484 84.7816 46.636C84.7258 47.1469 84.8049 47.6137 85.0189 48.0365C85.2297 48.4588 85.5693 48.8086 86.0375 49.0857C86.5026 49.3625 87.0885 49.5394 87.7953 49.6165C88.5143 49.695 89.1322 49.6494 89.6492 49.4798C90.1634 49.3069 90.5673 49.0383 90.8609 48.674C91.1518 48.3064 91.325 47.8686 91.3804 47.3608C91.4111 47.0793 91.4031 46.8122 91.3564 46.5594C91.307 46.3032 91.2195 46.0692 91.094 45.8574C90.9689 45.6425 90.8066 45.4561 90.6071 45.2981C90.4079 45.137 90.1735 45.0155 89.9039 44.9334L90.1004 43.218C90.54 43.331 90.944 43.516 91.3122 43.7729C91.6808 44.0267 91.9963 44.3413 92.2587 44.7167C92.5181 45.0918 92.7069 45.5179 92.8251 45.9952C92.9402 46.4722 92.9672 46.9906 92.9061 47.5505C92.816 48.3766 92.5443 49.093 92.0911 49.6999C91.6378 50.3068 91.0299 50.7574 90.2671 51.0519C89.5043 51.3464 88.6181 51.4385 87.6085 51.3283C86.5958 51.2178 85.7505 50.9351 85.0726 50.4804C84.3916 50.0253 83.8953 49.4525 83.5836 48.7622C83.272 48.0718 83.1609 47.3167 83.2504 46.4967C83.3075 45.9736 83.434 45.4951 83.6299 45.0614C83.8259 44.6277 84.0853 44.2504 84.4082 43.9296C84.7281 43.6085 85.1054 43.3571 85.5401 43.1755C85.972 42.9904 86.4534 42.8912 86.9843 42.878Z" fill="#F05454"/>
<path d="M92.0651 36.2717L82.8171 38.2374L82.461 36.5621L90.3046 34.8949L89.4389 30.8219L90.8432 30.5234L92.0651 36.2717Z" fill="#F05454"/>
<path d="M79.2429 18.3416C80.1231 17.8288 80.973 17.5544 81.7927 17.5184C82.6082 17.4814 83.3472 17.6492 84.0096 18.022C84.6705 18.392 85.2093 18.9347 85.6261 19.6501C86.0429 20.3654 86.2501 21.1031 86.2477 21.8632C86.2412 22.6221 86.0215 23.3485 85.5887 24.0424C85.1517 24.7351 84.4945 25.3372 83.6169 25.8485C82.7368 26.3613 81.8889 26.6363 81.0734 26.6733C80.2537 26.7092 79.5134 26.5422 78.8526 26.1721C78.1901 25.7994 77.6505 25.2553 77.2337 24.54C76.817 23.8247 76.6105 23.0883 76.6144 22.3309C76.6168 21.5708 76.8365 20.8444 77.2735 20.1517C77.7062 19.4578 78.3627 18.8545 79.2429 18.3416ZM80.1098 19.8294C79.4902 20.1904 79.0243 20.592 78.7119 21.034C78.3953 21.4749 78.2272 21.9291 78.2075 22.3965C78.1851 22.8655 78.3033 23.322 78.562 23.7661C78.8208 24.2102 79.1597 24.5381 79.5787 24.7499C79.9951 24.9632 80.4739 25.0422 81.0151 24.9869C81.5521 24.9304 82.1304 24.7217 82.75 24.3607C83.3696 23.9996 83.8377 23.5987 84.1543 23.1578C84.4666 22.7157 84.634 22.2602 84.6564 21.7913C84.6761 21.3238 84.5566 20.8681 84.2979 20.424C84.0391 19.9799 83.7015 19.6512 83.2852 19.4379C82.8661 19.2261 82.3881 19.1484 81.8511 19.2049C81.3098 19.2602 80.7294 19.4684 80.1098 19.8294Z" fill="#F05454"/>
<path d="M69.8315 12.8526C69.6008 13.1861 69.5333 13.5424 69.6291 13.9216C69.7224 14.2988 69.9614 14.6531 70.346 14.9847C70.6164 15.2179 70.8835 15.377 71.1473 15.4623C71.4111 15.5475 71.6546 15.5644 71.8777 15.513C72.1008 15.4615 72.291 15.3471 72.448 15.1696C72.5767 15.0205 72.6544 14.8619 72.6813 14.6941C72.7058 14.5243 72.6918 14.3496 72.6392 14.1702C72.5846 13.9931 72.5072 13.8167 72.4069 13.6408C72.3066 13.4649 72.1981 13.2962 72.0814 13.1346L71.5548 12.388C71.3387 12.0919 71.1522 11.7828 70.9952 11.4605C70.8359 11.1362 70.7275 10.8071 70.6701 10.4731C70.6103 10.1371 70.6216 9.8035 70.7041 9.47226C70.7865 9.14101 70.9613 8.82039 71.2286 8.51038C71.5904 8.09082 72.0161 7.81382 72.5059 7.67938C72.9937 7.54728 73.5177 7.56633 74.078 7.73654C74.634 7.90707 75.1987 8.23953 75.7721 8.73392C76.3292 9.21424 76.7385 9.71749 77 10.2437C77.2592 10.7679 77.3615 11.2949 77.3068 11.8249C77.2499 12.3528 77.0257 12.8626 76.6344 13.3542L75.3582 12.2538C75.5546 11.9884 75.6566 11.7146 75.6641 11.4325C75.6716 11.1505 75.6021 10.8752 75.4557 10.6067C75.3069 10.3362 75.0973 10.0844 74.827 9.8513C74.5449 9.60812 74.2617 9.43705 73.9772 9.33808C73.6884 9.23943 73.4181 9.21361 73.1663 9.26061C72.9124 9.30994 72.6959 9.43616 72.5167 9.63927C72.3583 9.82775 72.2804 10.0288 72.2831 10.2425C72.2838 10.4585 72.3457 10.6906 72.4689 10.939C72.5876 11.1877 72.7471 11.4553 72.9472 11.7416L73.581 12.6538C74.0401 13.3137 74.3083 13.9453 74.3857 14.5484C74.4587 15.1518 74.2741 15.7099 73.832 16.2227C73.4682 16.6446 73.0355 16.9155 72.5337 17.0356C72.0297 17.1536 71.5041 17.1292 70.9571 16.9624C70.4082 16.7979 69.8831 16.4996 69.382 16.0675C68.8738 15.6294 68.505 15.157 68.2755 14.6502C68.0416 14.1438 67.9498 13.64 68 13.1387C68.0481 12.6398 68.2426 12.1857 68.5833 11.7764L69.8315 12.8526Z" fill="#F05454"/>
<path d="M65.8647 2.82009L62.2405 11.5524L56.5611 9.19527L57.1114 7.86922L61.209 9.56984L62.1929 7.19914L58.3896 5.62063L58.9399 4.29458L62.7433 5.87309L63.7325 3.48961L59.6008 1.77484L60.1512 0.448786L65.8647 2.82009Z" fill="#F05454"/>
</svg>
