<svg width="32" height="32" viewBox="0 0 32 32" fill="none" xmlns="http://www.w3.org/2000/svg">
<circle cx="16" cy="16" r="15" fill="#DDDDDD"/>
<path d="M32 16C32 24.8366 24.8366 32 16 32C7.16344 32 0 24.8366 0 16C0 7.16344 7.16344 0 16 0C24.8366 0 32 7.16344 32 16ZM3.70342 16C3.70342 22.7912 9.20879 28.2966 16 28.2966C22.7912 28.2966 28.2966 22.7912 28.2966 16C28.2966 9.20879 22.7912 3.70342 16 3.70342C9.20879 3.70342 3.70342 9.20879 3.70342 16Z" fill="#F05454"/>
<path fill-rule="evenodd" clip-rule="evenodd" d="M16 3.2C8.92801 3.2 3.20001 8.88935 3.20001 15.9136C3.20001 21.5394 6.86401 26.2911 11.952 27.9757C12.592 28.087 12.832 27.7055 12.832 27.3718C12.832 27.0699 12.816 26.0687 12.816 25.0039C9.60001 25.5919 8.76801 24.2252 8.51201 23.51C8.36801 23.1445 7.74401 22.0162 7.20001 21.7142C6.75201 21.4759 6.11201 20.8879 7.18401 20.872C8.19201 20.8561 8.91201 21.7937 9.15201 22.1751C10.304 24.098 12.144 23.5577 12.88 23.224C12.992 22.3976 13.328 21.8414 13.696 21.5235C10.848 21.2057 7.87201 20.1091 7.87201 15.2462C7.87201 13.8636 8.36801 12.7193 9.18401 11.8294C9.05601 11.5115 8.60801 10.2084 9.31201 8.46027C9.31201 8.46027 10.384 8.12653 12.832 9.76341C13.856 9.47736 14.944 9.33433 16.032 9.33433C17.12 9.33433 18.208 9.47736 19.232 9.76341C21.68 8.11064 22.752 8.46027 22.752 8.46027C23.456 10.2084 23.008 11.5115 22.88 11.8294C23.696 12.7193 24.192 13.8477 24.192 15.2462C24.192 20.125 21.2 21.2057 18.352 21.5235C18.816 21.9208 19.216 22.6837 19.216 23.8756C19.216 25.576 19.2 26.9427 19.2 27.3718C19.2 27.7055 19.44 28.1028 20.08 27.9757C22.621 27.1236 24.829 25.5015 26.3933 23.3377C27.9575 21.174 28.7992 18.5774 28.8 15.9136C28.8 8.88935 23.072 3.2 16 3.2Z" fill="#F05454"/>
</svg>
