<svg width="32" height="33" viewBox="0 0 32 33" fill="none" xmlns="http://www.w3.org/2000/svg">
<path d="M32 16.2C32 25.0366 24.8366 32.2 16 32.2C7.16344 32.2 0 25.0366 0 16.2C0 7.36346 7.16344 0.200012 16 0.200012C24.8366 0.200012 32 7.36346 32 16.2ZM3.70342 16.2C3.70342 22.9912 9.20879 28.4966 16 28.4966C22.7912 28.4966 28.2966 22.9912 28.2966 16.2C28.2966 9.4088 22.7912 3.90343 16 3.90343C9.20879 3.90343 3.70342 9.4088 3.70342 16.2Z" fill="#F05454"/>
<path fill-rule="evenodd" clip-rule="evenodd" d="M16 3.40001C8.92801 3.40001 3.20001 9.08936 3.20001 16.1137C3.20001 21.7394 6.86401 26.4912 11.952 28.1757C12.592 28.287 12.832 27.9056 12.832 27.5718C12.832 27.2699 12.816 26.2687 12.816 25.2039C9.60001 25.7919 8.76801 24.4252 8.51201 23.7101C8.36801 23.3445 7.74401 22.2162 7.20001 21.9143C6.75201 21.6759 6.11201 21.0879 7.18401 21.072C8.19201 21.0561 8.91201 21.9937 9.15201 22.3751C10.304 24.2981 12.144 23.7577 12.88 23.424C12.992 22.5976 13.328 22.0414 13.696 21.7235C10.848 21.4057 7.87201 20.3092 7.87201 15.4462C7.87201 14.0636 8.36801 12.9193 9.18401 12.0294C9.05601 11.7116 8.60801 10.4084 9.31201 8.66028C9.31201 8.66028 10.384 8.32655 12.832 9.96343C13.856 9.67737 14.944 9.53434 16.032 9.53434C17.12 9.53434 18.208 9.67737 19.232 9.96343C21.68 8.31065 22.752 8.66028 22.752 8.66028C23.456 10.4084 23.008 11.7116 22.88 12.0294C23.696 12.9193 24.192 14.0477 24.192 15.4462C24.192 20.325 21.2 21.4057 18.352 21.7235C18.816 22.1208 19.216 22.8837 19.216 24.0756C19.216 25.776 19.2 27.1427 19.2 27.5718C19.2 27.9056 19.44 28.3029 20.08 28.1757C22.621 27.3236 24.829 25.7015 26.3933 23.5377C27.9575 21.374 28.7992 18.7775 28.8 16.1137C28.8 9.08936 23.072 3.40001 16 3.40001Z" fill="#F05454"/>
</svg>
