<svg width="23" height="26" viewBox="0 0 23 26" fill="none" xmlns="http://www.w3.org/2000/svg">
<path d="M9.20016 0.450667C9.34983 0.64342 9.44153 0.879314 9.4634 1.12787C9.48526 1.37642 9.4363 1.62622 9.32283 1.84498C8.43633 3.56994 7.97337 5.50348 7.97654 7.46771C7.97654 14.0021 13.0029 19.2933 19.1977 19.2933C20.0057 19.2933 20.7924 19.204 21.5483 19.0333C21.78 18.9801 22.0214 19.0005 22.2423 19.0918C22.4632 19.1831 22.6538 19.3414 22.7903 19.5468C22.9344 19.7605 23.0079 20.0186 22.9993 20.281C22.9907 20.5434 22.9005 20.7955 22.7428 20.998C21.5402 22.5637 20.023 23.8251 18.3019 24.6905C16.5809 25.5558 14.6993 26.0032 12.7944 26C5.72556 26 0 19.9645 0 12.5282C0 6.93144 3.24152 2.13099 7.85694 0.0964022C8.08684 -0.00657536 8.34207 -0.027711 8.58428 0.0361701C8.82649 0.100051 9.04261 0.2455 9.20016 0.450667Z" fill="#DDDDDD"/>
</svg>
