<svg width="21" height="22" viewBox="0 0 21 22" fill="none" xmlns="http://www.w3.org/2000/svg">
<path d="M9.32406 0H11.0779C11.2338 0 11.3118 0.07795 11.3118 0.23385V20.8127C11.3118 20.9686 11.2338 21.0465 11.0779 21.0465H9.32406C9.16816 21.0465 9.09021 20.9686 9.09021 20.8127V0.23385C9.09021 0.07795 9.16816 0 9.32406 0Z" fill="#DDDDDD"/>
<path d="M0.379297 9.41248H20.0227C20.1786 9.41248 20.2566 9.49043 20.2566 9.64633V11.4002C20.2566 11.5561 20.1786 11.6341 20.0227 11.6341H0.379297C0.223397 11.6341 0.145447 11.5561 0.145447 11.4002V9.64633C0.145447 9.49043 0.223397 9.41248 0.379297 9.41248Z" fill="#DDDDDD"/>
</svg>
