<svg width="301" height="218" viewBox="0 0 301 218" fill="none" xmlns="http://www.w3.org/2000/svg">
<path d="M0.688 1.688C1.584 1.73067 2.75733 1.77333 4.208 1.816C5.65867 1.85866 7.088 1.88 8.496 1.88C10.5013 1.88 12.4213 1.85866 14.256 1.816C16.0907 1.77333 17.392 1.752 18.16 1.752C22.64 1.752 26.0107 2.69066 28.272 4.568C30.5333 6.44533 31.664 8.856 31.664 11.8C31.664 13.2933 31.344 14.7653 30.704 16.216C30.1067 17.624 29.0827 18.9253 27.632 20.12C26.224 21.272 24.3253 22.2107 21.936 22.936V23.064C25.3067 23.4907 27.9307 24.3013 29.808 25.496C31.728 26.648 33.072 28.0133 33.84 29.592C34.608 31.1707 34.992 32.8347 34.992 34.584C34.992 37.016 34.3733 39.1707 33.136 41.048C31.9413 42.8827 30.192 44.3333 27.888 45.4C25.584 46.4667 22.832 47 19.632 47C18.6933 47 17.2853 46.9787 15.408 46.936C13.5307 46.8507 11.2693 46.808 8.624 46.808C7.13067 46.808 5.65867 46.8293 4.208 46.872C2.75733 46.872 1.584 46.9147 0.688 47V45.72C2.13867 45.6347 3.22667 45.464 3.952 45.208C4.72 44.952 5.232 44.44 5.488 43.672C5.744 42.904 5.872 41.752 5.872 40.216V8.472C5.872 6.89333 5.744 5.74133 5.488 5.016C5.232 4.248 4.72 3.736 3.952 3.48C3.22667 3.18133 2.13867 3.01066 0.688 2.968V1.688ZM16.56 2.968C14.5973 2.968 13.3173 3.33067 12.72 4.056C12.1227 4.78133 11.824 6.25333 11.824 8.472V40.216C11.824 41.7093 11.952 42.84 12.208 43.608C12.464 44.376 12.9333 44.888 13.616 45.144C14.2987 45.4 15.3013 45.528 16.624 45.528C20.8053 45.528 23.8347 44.568 25.712 42.648C27.632 40.6853 28.592 37.912 28.592 34.328C28.592 31.0427 27.696 28.504 25.904 26.712C24.1547 24.92 21.2533 24.024 17.2 24.024H10.608C10.608 24.024 10.608 23.8533 10.608 23.512C10.608 23.128 10.608 22.936 10.608 22.936H16.112C18.6293 22.936 20.5707 22.4667 21.936 21.528C23.3013 20.5467 24.24 19.2667 24.752 17.688C25.264 16.0667 25.52 14.3387 25.52 12.504C25.52 9.34666 24.816 6.97866 23.408 5.4C22.0427 3.77866 19.76 2.968 16.56 2.968ZM64.179 0.791996C68.2323 0.791996 71.7737 1.70933 74.803 3.544C77.875 5.37866 80.243 8.024 81.907 11.48C83.6137 14.8933 84.467 19.0533 84.467 23.96C84.467 28.7387 83.5923 32.92 81.843 36.504C80.1363 40.088 77.747 42.8827 74.675 44.888C71.603 46.8933 68.083 47.896 64.115 47.896C60.0617 47.896 56.499 46.9787 53.427 45.144C50.3977 43.3093 48.0297 40.664 46.323 37.208C44.659 33.752 43.827 29.592 43.827 24.728C43.827 19.9493 44.7017 15.768 46.451 12.184C48.2003 8.6 50.5897 5.80533 53.619 3.8C56.691 1.79466 60.211 0.791996 64.179 0.791996ZM63.923 1.944C61.1497 1.944 58.739 2.904 56.691 4.824C54.643 6.744 53.043 9.38933 51.891 12.76C50.7817 16.1307 50.227 20.0347 50.227 24.472C50.227 28.9947 50.8457 32.9413 52.083 36.312C53.363 39.64 55.0697 42.2213 57.203 44.056C59.379 45.848 61.7683 46.744 64.371 46.744C67.1443 46.744 69.555 45.784 71.603 43.864C73.651 41.944 75.2297 39.2987 76.339 35.928C77.491 32.5147 78.067 28.6107 78.067 24.216C78.067 19.6507 77.427 15.704 76.147 12.376C74.9097 9.048 73.2243 6.488 71.091 4.696C68.9577 2.86133 66.5683 1.944 63.923 1.944ZM132.813 1.688V2.968C131.362 3.01066 130.253 3.224 129.485 3.608C128.759 3.992 128.269 4.61066 128.013 5.464C127.757 6.31733 127.629 7.53333 127.629 9.112V47.32C127.373 47.32 127.117 47.32 126.861 47.32C126.647 47.32 126.413 47.32 126.157 47.32L99.2765 5.784V39.576C99.2765 41.112 99.4045 42.328 99.6605 43.224C99.9592 44.0773 100.514 44.696 101.325 45.08C102.178 45.4213 103.437 45.6347 105.101 45.72V47C104.333 46.9147 103.33 46.872 102.093 46.872C100.855 46.8293 99.6818 46.808 98.5725 46.808C97.5058 46.808 96.4178 46.8293 95.3085 46.872C94.2418 46.872 93.3458 46.9147 92.6205 47V45.72C94.0712 45.6347 95.1592 45.4213 95.8845 45.08C96.6525 44.696 97.1645 44.0773 97.4205 43.224C97.6765 42.328 97.8045 41.112 97.8045 39.576V8.472C97.8045 6.89333 97.6765 5.74133 97.4205 5.016C97.1645 4.248 96.6525 3.736 95.8845 3.48C95.1592 3.18133 94.0712 3.01066 92.6205 2.968V1.688C93.3458 1.73067 94.2418 1.77333 95.3085 1.816C96.4178 1.85866 97.5058 1.88 98.5725 1.88C99.5112 1.88 100.407 1.85866 101.261 1.816C102.114 1.77333 102.882 1.73067 103.565 1.688L126.157 36.504V9.112C126.157 7.53333 126.007 6.31733 125.709 5.464C125.453 4.61066 124.898 3.992 124.045 3.608C123.234 3.224 121.997 3.01066 120.333 2.968V1.688C121.101 1.73067 122.103 1.77333 123.341 1.816C124.621 1.85866 125.794 1.88 126.861 1.88C127.97 1.88 129.058 1.85866 130.125 1.816C131.234 1.77333 132.13 1.73067 132.813 1.688ZM180.56 1.688V2.968C179.109 3.01066 178 3.224 177.232 3.608C176.507 3.992 176.016 4.61066 175.76 5.464C175.504 6.31733 175.376 7.53333 175.376 9.112V47.32C175.12 47.32 174.864 47.32 174.608 47.32C174.395 47.32 174.16 47.32 173.904 47.32L147.024 5.784V39.576C147.024 41.112 147.152 42.328 147.408 43.224C147.707 44.0773 148.261 44.696 149.072 45.08C149.925 45.4213 151.184 45.6347 152.848 45.72V47C152.08 46.9147 151.077 46.872 149.84 46.872C148.603 46.8293 147.429 46.808 146.32 46.808C145.253 46.808 144.165 46.8293 143.056 46.872C141.989 46.872 141.093 46.9147 140.368 47V45.72C141.819 45.6347 142.907 45.4213 143.632 45.08C144.4 44.696 144.912 44.0773 145.168 43.224C145.424 42.328 145.552 41.112 145.552 39.576V8.472C145.552 6.89333 145.424 5.74133 145.168 5.016C144.912 4.248 144.4 3.736 143.632 3.48C142.907 3.18133 141.819 3.01066 140.368 2.968V1.688C141.093 1.73067 141.989 1.77333 143.056 1.816C144.165 1.85866 145.253 1.88 146.32 1.88C147.259 1.88 148.155 1.85866 149.008 1.816C149.861 1.77333 150.629 1.73067 151.312 1.688L173.904 36.504V9.112C173.904 7.53333 173.755 6.31733 173.456 5.464C173.2 4.61066 172.645 3.992 171.792 3.608C170.981 3.224 169.744 3.01066 168.08 2.968V1.688C168.848 1.73067 169.851 1.77333 171.088 1.816C172.368 1.85866 173.541 1.88 174.608 1.88C175.717 1.88 176.805 1.85866 177.872 1.816C178.981 1.77333 179.877 1.73067 180.56 1.688ZM204.436 1.688V2.968C202.985 3.01066 201.876 3.18133 201.108 3.48C200.382 3.736 199.892 4.248 199.636 5.016C199.38 5.74133 199.252 6.89333 199.252 8.472V40.216C199.252 41.752 199.38 42.904 199.636 43.672C199.892 44.44 200.382 44.952 201.108 45.208C201.876 45.464 202.985 45.6347 204.436 45.72V47C203.454 46.9147 202.217 46.872 200.724 46.872C199.273 46.8293 197.801 46.808 196.308 46.808C194.644 46.808 193.086 46.8293 191.636 46.872C190.185 46.872 189.012 46.9147 188.116 47V45.72C189.566 45.6347 190.654 45.464 191.38 45.208C192.148 44.952 192.66 44.44 192.916 43.672C193.172 42.904 193.3 41.752 193.3 40.216V8.472C193.3 6.89333 193.172 5.74133 192.916 5.016C192.66 4.248 192.148 3.736 191.38 3.48C190.654 3.18133 189.566 3.01066 188.116 2.968V1.688C189.012 1.73067 190.185 1.77333 191.636 1.816C193.086 1.85866 194.644 1.88 196.308 1.88C197.801 1.88 199.273 1.85866 200.724 1.816C202.217 1.77333 203.454 1.73067 204.436 1.688ZM244.299 1.688C244.128 3.18133 244 4.632 243.915 6.04C243.872 7.448 243.851 8.51466 243.851 9.24C243.851 10.008 243.872 10.7547 243.915 11.48C243.958 12.1627 244 12.7387 244.043 13.208H242.571C242.315 10.6907 241.952 8.70667 241.483 7.256C241.014 5.76266 240.203 4.71733 239.051 4.12C237.942 3.48 236.256 3.16 233.995 3.16H228.683C227.232 3.16 226.123 3.288 225.355 3.544C224.63 3.75733 224.139 4.248 223.883 5.016C223.627 5.74133 223.499 6.89333 223.499 8.472V40.216C223.499 41.752 223.627 42.904 223.883 43.672C224.139 44.44 224.63 44.952 225.355 45.208C226.123 45.4213 227.232 45.528 228.683 45.528H233.355C236.043 45.528 238.07 45.1653 239.435 44.44C240.843 43.7147 241.846 42.5413 242.443 40.92C243.083 39.256 243.552 37.016 243.851 34.2H245.323C245.195 35.352 245.131 36.888 245.131 38.808C245.131 39.6187 245.152 40.792 245.195 42.328C245.28 43.8213 245.408 45.3787 245.579 47C243.403 46.9147 240.95 46.872 238.219 46.872C235.488 46.8293 233.056 46.808 230.923 46.808C229.984 46.808 228.768 46.808 227.275 46.808C225.824 46.808 224.246 46.8293 222.539 46.872C220.832 46.872 219.104 46.8933 217.355 46.936C215.606 46.936 213.942 46.9573 212.363 47V45.72C213.814 45.6347 214.902 45.464 215.627 45.208C216.395 44.952 216.907 44.44 217.163 43.672C217.419 42.904 217.547 41.752 217.547 40.216V8.472C217.547 6.89333 217.419 5.74133 217.163 5.016C216.907 4.248 216.395 3.736 215.627 3.48C214.902 3.18133 213.814 3.01066 212.363 2.968V1.688C213.942 1.73067 215.606 1.77333 217.355 1.816C219.104 1.816 220.832 1.83733 222.539 1.88C224.246 1.88 225.824 1.88 227.275 1.88C228.768 1.88 229.984 1.88 230.923 1.88C232.886 1.88 235.104 1.88 237.579 1.88C240.096 1.83733 242.336 1.77333 244.299 1.688ZM233.291 23.576C233.291 23.576 233.291 23.7893 233.291 24.216C233.291 24.6427 233.291 24.856 233.291 24.856H221.579C221.579 24.856 221.579 24.6427 221.579 24.216C221.579 23.7893 221.579 23.576 221.579 23.576H233.291ZM235.147 15.128C234.976 17.56 234.891 19.416 234.891 20.696C234.934 21.976 234.955 23.1493 234.955 24.216C234.955 25.2827 234.976 26.456 235.019 27.736C235.062 29.016 235.168 30.872 235.339 33.304H233.867C233.696 31.9387 233.483 30.616 233.227 29.336C233.014 28.0133 232.502 26.9467 231.691 26.136C230.923 25.2827 229.6 24.856 227.723 24.856V23.576C229.131 23.576 230.198 23.2987 230.923 22.744C231.691 22.1467 232.246 21.4 232.587 20.504C232.928 19.608 233.163 18.6907 233.291 17.752C233.419 16.7707 233.547 15.896 233.675 15.128H235.147ZM258.787 0.791996C259.726 0.791996 260.494 0.983996 261.091 1.368C261.688 1.752 262.179 2.24266 262.563 2.84C263.032 3.52266 263.331 4.26933 263.459 5.08C263.587 5.89066 263.651 6.552 263.651 7.064C263.651 9.15466 263.118 11.0533 262.051 12.76C260.984 14.4667 259.32 15.8533 257.059 16.92L256.483 15.768C257.806 15.2133 258.936 14.3387 259.875 13.144C260.856 11.9493 261.347 10.7333 261.347 9.496C261.347 8.984 261.283 8.536 261.155 8.152C260.472 8.70666 259.683 8.984 258.787 8.984C257.678 8.984 256.718 8.62133 255.907 7.896C255.096 7.17067 254.691 6.168 254.691 4.888C254.691 3.69333 255.096 2.712 255.907 1.944C256.718 1.176 257.678 0.791996 258.787 0.791996ZM285.867 0.983997C288 0.983997 289.621 1.24 290.731 1.752C291.84 2.22133 292.821 2.75466 293.675 3.352C294.187 3.65067 294.592 3.88533 294.891 4.056C295.232 4.184 295.552 4.248 295.851 4.248C296.277 4.248 296.576 4.01333 296.747 3.544C296.96 3.07466 297.131 2.37066 297.259 1.432H298.731C298.688 2.15733 298.624 3.032 298.539 4.056C298.496 5.03733 298.453 6.36 298.411 8.024C298.411 9.64533 298.411 11.8 298.411 14.488H296.939C296.811 12.44 296.363 10.4773 295.595 8.6C294.827 6.72266 293.696 5.18666 292.203 3.992C290.752 2.79733 288.832 2.2 286.443 2.2C284.181 2.2 282.304 2.88266 280.811 4.248C279.36 5.61333 278.635 7.40533 278.635 9.624C278.635 11.544 279.125 13.1653 280.107 14.488C281.088 15.768 282.389 16.9413 284.011 18.008C285.675 19.032 287.467 20.1413 289.387 21.336C291.605 22.7013 293.568 24.0667 295.275 25.432C297.024 26.7547 298.389 28.2267 299.371 29.848C300.395 31.4693 300.907 33.432 300.907 35.736C300.907 38.4667 300.288 40.728 299.051 42.52C297.813 44.312 296.171 45.656 294.123 46.552C292.075 47.448 289.813 47.896 287.339 47.896C285.077 47.896 283.285 47.64 281.963 47.128C280.64 46.616 279.509 46.0827 278.571 45.528C277.632 44.9307 276.907 44.632 276.395 44.632C275.968 44.632 275.648 44.8667 275.435 45.336C275.264 45.8053 275.115 46.5093 274.987 47.448H273.515C273.6 46.552 273.643 45.5067 273.643 44.312C273.685 43.0747 273.707 41.4747 273.707 39.512C273.749 37.5493 273.771 35.0747 273.771 32.088H275.243C275.413 34.648 275.883 37.0373 276.651 39.256C277.461 41.4747 278.677 43.2667 280.299 44.632C281.963 45.9547 284.16 46.616 286.891 46.616C288.299 46.616 289.621 46.3387 290.859 45.784C292.139 45.1867 293.184 44.2693 293.995 43.032C294.805 41.752 295.211 40.1093 295.211 38.104C295.211 36.3547 294.784 34.84 293.931 33.56C293.12 32.2373 291.968 31.0213 290.475 29.912C288.981 28.76 287.232 27.5867 285.227 26.392C283.221 25.1547 281.344 23.896 279.595 22.616C277.845 21.336 276.437 19.864 275.371 18.2C274.347 16.4933 273.835 14.4453 273.835 12.056C273.835 9.53867 274.389 7.46933 275.499 5.848C276.651 4.184 278.144 2.968 279.979 2.2C281.813 1.38933 283.776 0.983997 285.867 0.983997ZM18.16 86.688C25.7973 86.688 31.472 88.608 35.184 92.448C38.896 96.2453 40.752 101.707 40.752 108.832C40.752 113.483 39.8347 117.557 38 121.056C36.208 124.512 33.584 127.2 30.128 129.12C26.672 131.04 22.4907 132 17.584 132C16.944 132 16.0907 131.979 15.024 131.936C13.9573 131.893 12.848 131.872 11.696 131.872C10.5867 131.829 9.56267 131.808 8.624 131.808C7.13067 131.808 5.65867 131.829 4.208 131.872C2.75733 131.872 1.584 131.915 0.688 132V130.72C2.13867 130.635 3.22667 130.464 3.952 130.208C4.72 129.952 5.232 129.44 5.488 128.672C5.744 127.904 5.872 126.752 5.872 125.216V93.472C5.872 91.8933 5.744 90.7413 5.488 90.016C5.232 89.248 4.72 88.736 3.952 88.48C3.22667 88.1813 2.13867 88.0107 0.688 87.968V86.688C1.584 86.7307 2.75733 86.7947 4.208 86.88C5.65867 86.9227 7.088 86.9227 8.496 86.88C9.98933 86.8373 11.6747 86.7947 13.552 86.752C15.4293 86.7093 16.9653 86.688 18.16 86.688ZM16.56 87.84C14.5973 87.84 13.3173 88.2027 12.72 88.928C12.1227 89.6533 11.824 91.1253 11.824 93.344V125.344C11.824 127.563 12.1227 129.035 12.72 129.76C13.36 130.485 14.6613 130.848 16.624 130.848C21.2747 130.848 24.88 130.016 27.44 128.352C30 126.645 31.792 124.171 32.816 120.928C33.84 117.685 34.352 113.739 34.352 109.088C34.352 104.309 33.776 100.363 32.624 97.248C31.5147 94.0907 29.6587 91.744 27.056 90.208C24.496 88.6293 20.9973 87.84 16.56 87.84ZM66.107 86.368L81.723 126.624C82.363 128.245 83.0883 129.333 83.899 129.888C84.7097 130.4 85.4563 130.677 86.139 130.72V132C85.2857 131.915 84.2403 131.872 83.003 131.872C81.7657 131.829 80.5283 131.808 79.291 131.808C77.627 131.808 76.0697 131.829 74.619 131.872C73.1683 131.872 71.995 131.915 71.099 132V130.72C73.275 130.635 74.6617 130.272 75.259 129.632C75.8563 128.949 75.7283 127.52 74.875 125.344L62.971 93.536L63.995 92.704L52.859 121.632C52.1763 123.339 51.771 124.789 51.643 125.984C51.515 127.136 51.6217 128.053 51.963 128.736C52.347 129.419 52.9657 129.909 53.819 130.208C54.715 130.507 55.8243 130.677 57.147 130.72V132C55.9523 131.915 54.6937 131.872 53.371 131.872C52.091 131.829 50.8963 131.808 49.787 131.808C48.7203 131.808 47.803 131.829 47.035 131.872C46.3097 131.872 45.627 131.915 44.987 132V130.72C45.8403 130.507 46.715 130.016 47.611 129.248C48.507 128.437 49.3177 127.072 50.043 125.152L65.083 86.368C65.2537 86.368 65.4243 86.368 65.595 86.368C65.7657 86.368 65.9363 86.368 66.107 86.368ZM73.915 113.568V114.848H54.843L55.483 113.568H73.915ZM129.938 86.688V87.968C128.487 88.0107 127.378 88.224 126.61 88.608C125.884 88.992 125.394 89.6107 125.138 90.464C124.882 91.3173 124.754 92.5333 124.754 94.112V132.32C124.498 132.32 124.242 132.32 123.986 132.32C123.772 132.32 123.538 132.32 123.282 132.32L96.4015 90.784V124.576C96.4015 126.112 96.5295 127.328 96.7855 128.224C97.0842 129.077 97.6388 129.696 98.4495 130.08C99.3028 130.421 100.562 130.635 102.226 130.72V132C101.458 131.915 100.455 131.872 99.2175 131.872C97.9802 131.829 96.8068 131.808 95.6975 131.808C94.6308 131.808 93.5428 131.829 92.4335 131.872C91.3668 131.872 90.4708 131.915 89.7455 132V130.72C91.1962 130.635 92.2842 130.421 93.0095 130.08C93.7775 129.696 94.2895 129.077 94.5455 128.224C94.8015 127.328 94.9295 126.112 94.9295 124.576V93.472C94.9295 91.8933 94.8015 90.7413 94.5455 90.016C94.2895 89.248 93.7775 88.736 93.0095 88.48C92.2842 88.1813 91.1962 88.0107 89.7455 87.968V86.688C90.4708 86.7307 91.3668 86.7733 92.4335 86.816C93.5428 86.8587 94.6308 86.88 95.6975 86.88C96.6362 86.88 97.5322 86.8587 98.3855 86.816C99.2388 86.7733 100.007 86.7307 100.69 86.688L123.282 121.504V94.112C123.282 92.5333 123.132 91.3173 122.834 90.464C122.578 89.6107 122.023 88.992 121.17 88.608C120.359 88.224 119.122 88.0107 117.458 87.968V86.688C118.226 86.7307 119.228 86.7733 120.466 86.816C121.746 86.8587 122.919 86.88 123.986 86.88C125.095 86.88 126.183 86.8587 127.25 86.816C128.359 86.7733 129.255 86.7307 129.938 86.688ZM158.111 85.792C160.927 85.792 163.231 86.2187 165.023 87.072C166.858 87.8827 168.479 88.8427 169.887 89.952C170.741 90.592 171.381 90.6773 171.807 90.208C172.277 89.696 172.597 88.5227 172.767 86.688H174.239C174.154 88.2667 174.09 90.1867 174.047 92.448C174.005 94.7093 173.983 97.696 173.983 101.408H172.511C172.213 99.5733 171.935 98.1227 171.679 97.056C171.423 95.9467 171.103 95.008 170.719 94.24C170.378 93.472 169.909 92.704 169.311 91.936C167.989 90.1867 166.325 88.928 164.319 88.16C162.314 87.3493 160.202 86.944 157.983 86.944C155.893 86.944 153.994 87.4773 152.287 88.544C150.623 89.568 149.173 91.0613 147.935 93.024C146.741 94.9867 145.802 97.3547 145.119 100.128C144.479 102.901 144.159 106.016 144.159 109.472C144.159 113.056 144.522 116.235 145.247 119.008C145.973 121.739 146.975 124.043 148.255 125.92C149.578 127.797 151.114 129.227 152.863 130.208C154.655 131.147 156.575 131.616 158.623 131.616C160.543 131.616 162.549 131.232 164.639 130.464C166.73 129.696 168.373 128.459 169.567 126.752C170.506 125.515 171.146 124.171 171.487 122.72C171.871 121.269 172.213 119.243 172.511 116.64H173.983C173.983 120.523 174.005 123.659 174.047 126.048C174.09 128.395 174.154 130.379 174.239 132H172.767C172.597 130.165 172.298 129.013 171.871 128.544C171.487 128.075 170.826 128.139 169.887 128.736C168.309 129.845 166.623 130.827 164.831 131.68C163.082 132.491 160.821 132.896 158.047 132.896C153.994 132.896 150.431 131.979 147.359 130.144C144.33 128.309 141.962 125.664 140.255 122.208C138.591 118.752 137.759 114.592 137.759 109.728C137.759 104.949 138.634 100.768 140.383 97.184C142.133 93.6 144.522 90.8053 147.551 88.8C150.623 86.7947 154.143 85.792 158.111 85.792ZM215.614 86.688C215.443 88.1813 215.315 89.632 215.23 91.04C215.187 92.448 215.166 93.5147 215.166 94.24C215.166 95.008 215.187 95.7547 215.23 96.48C215.273 97.1627 215.315 97.7387 215.358 98.208H213.886C213.63 95.6907 213.267 93.7067 212.798 92.256C212.329 90.7627 211.518 89.7173 210.366 89.12C209.257 88.48 207.571 88.16 205.31 88.16H199.998C198.547 88.16 197.438 88.288 196.67 88.544C195.945 88.7573 195.454 89.248 195.198 90.016C194.942 90.7413 194.814 91.8933 194.814 93.472V125.216C194.814 126.752 194.942 127.904 195.198 128.672C195.454 129.44 195.945 129.952 196.67 130.208C197.438 130.421 198.547 130.528 199.998 130.528H204.67C207.358 130.528 209.385 130.165 210.75 129.44C212.158 128.715 213.161 127.541 213.758 125.92C214.398 124.256 214.867 122.016 215.166 119.2H216.638C216.51 120.352 216.446 121.888 216.446 123.808C216.446 124.619 216.467 125.792 216.51 127.328C216.595 128.821 216.723 130.379 216.894 132C214.718 131.915 212.265 131.872 209.534 131.872C206.803 131.829 204.371 131.808 202.238 131.808C201.299 131.808 200.083 131.808 198.59 131.808C197.139 131.808 195.561 131.829 193.854 131.872C192.147 131.872 190.419 131.893 188.67 131.936C186.921 131.936 185.257 131.957 183.678 132V130.72C185.129 130.635 186.217 130.464 186.942 130.208C187.71 129.952 188.222 129.44 188.478 128.672C188.734 127.904 188.862 126.752 188.862 125.216V93.472C188.862 91.8933 188.734 90.7413 188.478 90.016C188.222 89.248 187.71 88.736 186.942 88.48C186.217 88.1813 185.129 88.0107 183.678 87.968V86.688C185.257 86.7307 186.921 86.7733 188.67 86.816C190.419 86.816 192.147 86.8373 193.854 86.88C195.561 86.88 197.139 86.88 198.59 86.88C200.083 86.88 201.299 86.88 202.238 86.88C204.201 86.88 206.419 86.88 208.894 86.88C211.411 86.8373 213.651 86.7733 215.614 86.688ZM204.606 108.576C204.606 108.576 204.606 108.789 204.606 109.216C204.606 109.643 204.606 109.856 204.606 109.856H192.894C192.894 109.856 192.894 109.643 192.894 109.216C192.894 108.789 192.894 108.576 192.894 108.576H204.606ZM206.462 100.128C206.291 102.56 206.206 104.416 206.206 105.696C206.249 106.976 206.27 108.149 206.27 109.216C206.27 110.283 206.291 111.456 206.334 112.736C206.377 114.016 206.483 115.872 206.654 118.304H205.182C205.011 116.939 204.798 115.616 204.542 114.336C204.329 113.013 203.817 111.947 203.006 111.136C202.238 110.283 200.915 109.856 199.038 109.856V108.576C200.446 108.576 201.513 108.299 202.238 107.744C203.006 107.147 203.561 106.4 203.902 105.504C204.243 104.608 204.478 103.691 204.606 102.752C204.734 101.771 204.862 100.896 204.99 100.128H206.462ZM14.384 170.984C16.5173 170.984 18.1387 171.24 19.248 171.752C20.3573 172.221 21.3387 172.755 22.192 173.352C22.704 173.651 23.1093 173.885 23.408 174.056C23.7493 174.184 24.0693 174.248 24.368 174.248C24.7947 174.248 25.0933 174.013 25.264 173.544C25.4773 173.075 25.648 172.371 25.776 171.432H27.248C27.2053 172.157 27.1413 173.032 27.056 174.056C27.0133 175.037 26.9707 176.36 26.928 178.024C26.928 179.645 26.928 181.8 26.928 184.488H25.456C25.328 182.44 24.88 180.477 24.112 178.6C23.344 176.723 22.2133 175.187 20.72 173.992C19.2693 172.797 17.3493 172.2 14.96 172.2C12.6987 172.2 10.8213 172.883 9.328 174.248C7.87733 175.613 7.152 177.405 7.152 179.624C7.152 181.544 7.64267 183.165 8.624 184.488C9.60533 185.768 10.9067 186.941 12.528 188.008C14.192 189.032 15.984 190.141 17.904 191.336C20.1227 192.701 22.0853 194.067 23.792 195.432C25.5413 196.755 26.9067 198.227 27.888 199.848C28.912 201.469 29.424 203.432 29.424 205.736C29.424 208.467 28.8053 210.728 27.568 212.52C26.3307 214.312 24.688 215.656 22.64 216.552C20.592 217.448 18.3307 217.896 15.856 217.896C13.5947 217.896 11.8027 217.64 10.48 217.128C9.15733 216.616 8.02667 216.083 7.088 215.528C6.14933 214.931 5.424 214.632 4.912 214.632C4.48533 214.632 4.16533 214.867 3.952 215.336C3.78133 215.805 3.632 216.509 3.504 217.448H2.032C2.11733 216.552 2.16 215.507 2.16 214.312C2.20267 213.075 2.224 211.475 2.224 209.512C2.26667 207.549 2.288 205.075 2.288 202.088H3.76C3.93067 204.648 4.4 207.037 5.168 209.256C5.97867 211.475 7.19467 213.267 8.816 214.632C10.48 215.955 12.6773 216.616 15.408 216.616C16.816 216.616 18.1387 216.339 19.376 215.784C20.656 215.187 21.7013 214.269 22.512 213.032C23.3227 211.752 23.728 210.109 23.728 208.104C23.728 206.355 23.3013 204.84 22.448 203.56C21.6373 202.237 20.4853 201.021 18.992 199.912C17.4987 198.76 15.7493 197.587 13.744 196.392C11.7387 195.155 9.86133 193.896 8.112 192.616C6.36267 191.336 4.95467 189.864 3.888 188.2C2.864 186.493 2.352 184.445 2.352 182.056C2.352 179.539 2.90667 177.469 4.016 175.848C5.168 174.184 6.66133 172.968 8.496 172.2C10.3307 171.389 12.2933 170.984 14.384 170.984ZM58.8665 170.792C61.6825 170.792 63.9865 171.219 65.7785 172.072C67.6132 172.883 69.2345 173.843 70.6425 174.952C71.4958 175.592 72.1358 175.677 72.5625 175.208C73.0318 174.696 73.3518 173.523 73.5225 171.688H74.9945C74.9092 173.267 74.8452 175.187 74.8025 177.448C74.7598 179.709 74.7385 182.696 74.7385 186.408H73.2665C72.9678 184.573 72.6905 183.123 72.4345 182.056C72.1785 180.947 71.8585 180.008 71.4745 179.24C71.1332 178.472 70.6638 177.704 70.0665 176.936C68.7438 175.187 67.0798 173.928 65.0745 173.16C63.0692 172.349 60.9572 171.944 58.7385 171.944C56.6478 171.944 54.7492 172.477 53.0425 173.544C51.3785 174.568 49.9278 176.061 48.6905 178.024C47.4958 179.987 46.5572 182.355 45.8745 185.128C45.2345 187.901 44.9145 191.016 44.9145 194.472C44.9145 198.056 45.2772 201.235 46.0025 204.008C46.7278 206.739 47.7305 209.043 49.0105 210.92C50.3332 212.797 51.8692 214.227 53.6185 215.208C55.4105 216.147 57.3305 216.616 59.3785 216.616C61.2985 216.616 63.3038 216.232 65.3945 215.464C67.4852 214.696 69.1278 213.459 70.3225 211.752C71.2612 210.515 71.9012 209.171 72.2425 207.72C72.6265 206.269 72.9678 204.243 73.2665 201.64H74.7385C74.7385 205.523 74.7598 208.659 74.8025 211.048C74.8452 213.395 74.9092 215.379 74.9945 217H73.5225C73.3518 215.165 73.0532 214.013 72.6265 213.544C72.2425 213.075 71.5812 213.139 70.6425 213.736C69.0638 214.845 67.3785 215.827 65.5865 216.68C63.8372 217.491 61.5758 217.896 58.8025 217.896C54.7492 217.896 51.1865 216.979 48.1145 215.144C45.0852 213.309 42.7172 210.664 41.0105 207.208C39.3465 203.752 38.5145 199.592 38.5145 194.728C38.5145 189.949 39.3892 185.768 41.1385 182.184C42.8878 178.6 45.2772 175.805 48.3065 173.8C51.3785 171.795 54.8985 170.792 58.8665 170.792ZM111.185 217V215.72C112.636 215.635 113.724 215.464 114.449 215.208C115.217 214.952 115.729 214.44 115.985 213.672C116.241 212.904 116.369 211.752 116.369 210.216V178.472C116.369 176.893 116.241 175.741 115.985 175.016C115.729 174.248 115.217 173.736 114.449 173.48C113.724 173.181 112.636 173.011 111.185 172.968V171.688C112.166 171.731 113.404 171.773 114.897 171.816C116.39 171.859 117.862 171.88 119.313 171.88C120.977 171.88 122.534 171.859 123.985 171.816C125.436 171.773 126.609 171.731 127.505 171.688V172.968C126.054 173.011 124.945 173.181 124.177 173.48C123.452 173.736 122.961 174.248 122.705 175.016C122.449 175.741 122.321 176.893 122.321 178.472V210.216C122.321 211.752 122.449 212.904 122.705 213.672C122.961 214.44 123.452 214.952 124.177 215.208C124.945 215.464 126.054 215.635 127.505 215.72V217C126.609 216.915 125.436 216.872 123.985 216.872C122.534 216.829 120.977 216.808 119.313 216.808C117.862 216.808 116.39 216.829 114.897 216.872C113.404 216.872 112.166 216.915 111.185 217ZM84.433 217V215.72C85.8837 215.635 86.9717 215.464 87.697 215.208C88.465 214.952 88.977 214.44 89.233 213.672C89.489 212.904 89.617 211.752 89.617 210.216V178.472C89.617 176.893 89.489 175.741 89.233 175.016C88.977 174.248 88.465 173.736 87.697 173.48C86.9717 173.181 85.8837 173.011 84.433 172.968V171.688C85.329 171.731 86.5023 171.773 87.953 171.816C89.4037 171.859 90.961 171.88 92.625 171.88C94.1183 171.88 95.5903 171.859 97.041 171.816C98.5343 171.773 99.7717 171.731 100.753 171.688V172.968C99.3023 173.011 98.193 173.181 97.425 173.48C96.6997 173.736 96.209 174.248 95.953 175.016C95.697 175.741 95.569 176.893 95.569 178.472V210.216C95.569 211.752 95.697 212.904 95.953 213.672C96.209 214.44 96.6997 214.952 97.425 215.208C98.193 215.464 99.3023 215.635 100.753 215.72V217C99.7717 216.915 98.5343 216.872 97.041 216.872C95.5903 216.829 94.1183 216.808 92.625 216.808C90.961 216.808 89.4037 216.829 87.953 216.872C86.5023 216.872 85.329 216.915 84.433 217ZM93.329 194.856V193.576H118.609V194.856H93.329ZM155.986 170.792C160.04 170.792 163.581 171.709 166.61 173.544C169.682 175.379 172.05 178.024 173.714 181.48C175.421 184.893 176.274 189.053 176.274 193.96C176.274 198.739 175.4 202.92 173.65 206.504C171.944 210.088 169.554 212.883 166.482 214.888C163.41 216.893 159.89 217.896 155.922 217.896C151.869 217.896 148.306 216.979 145.234 215.144C142.205 213.309 139.837 210.664 138.13 207.208C136.466 203.752 135.634 199.592 135.634 194.728C135.634 189.949 136.509 185.768 138.258 182.184C140.008 178.6 142.397 175.805 145.426 173.8C148.498 171.795 152.018 170.792 155.986 170.792ZM155.73 171.944C152.957 171.944 150.546 172.904 148.498 174.824C146.45 176.744 144.85 179.389 143.698 182.76C142.589 186.131 142.034 190.035 142.034 194.472C142.034 198.995 142.653 202.941 143.89 206.312C145.17 209.64 146.877 212.221 149.01 214.056C151.186 215.848 153.576 216.744 156.178 216.744C158.952 216.744 161.362 215.784 163.41 213.864C165.458 211.944 167.037 209.299 168.146 205.928C169.298 202.515 169.874 198.611 169.874 194.216C169.874 189.651 169.234 185.704 167.954 182.376C166.717 179.048 165.032 176.488 162.898 174.696C160.765 172.861 158.376 171.944 155.73 171.944ZM205.984 170.792C210.037 170.792 213.579 171.709 216.608 173.544C219.68 175.379 222.048 178.024 223.712 181.48C225.419 184.893 226.272 189.053 226.272 193.96C226.272 198.739 225.397 202.92 223.648 206.504C221.941 210.088 219.552 212.883 216.48 214.888C213.408 216.893 209.888 217.896 205.92 217.896C201.867 217.896 198.304 216.979 195.232 215.144C192.203 213.309 189.835 210.664 188.128 207.208C186.464 203.752 185.632 199.592 185.632 194.728C185.632 189.949 186.507 185.768 188.256 182.184C190.005 178.6 192.395 175.805 195.424 173.8C198.496 171.795 202.016 170.792 205.984 170.792ZM205.728 171.944C202.955 171.944 200.544 172.904 198.496 174.824C196.448 176.744 194.848 179.389 193.696 182.76C192.587 186.131 192.032 190.035 192.032 194.472C192.032 198.995 192.651 202.941 193.888 206.312C195.168 209.64 196.875 212.221 199.008 214.056C201.184 215.848 203.573 216.744 206.176 216.744C208.949 216.744 211.36 215.784 213.408 213.864C215.456 211.944 217.035 209.299 218.144 205.928C219.296 202.515 219.872 198.611 219.872 194.216C219.872 189.651 219.232 185.704 217.952 182.376C216.715 179.048 215.029 176.488 212.896 174.696C210.763 172.861 208.373 171.944 205.728 171.944ZM250.746 171.688V172.968C249.295 173.011 248.186 173.181 247.418 173.48C246.692 173.736 246.202 174.248 245.946 175.016C245.69 175.741 245.562 176.893 245.562 178.472V210.216C245.562 211.752 245.69 212.904 245.946 213.672C246.202 214.44 246.692 214.952 247.418 215.208C248.186 215.421 249.295 215.528 250.746 215.528H255.418C257.423 215.528 259.044 215.315 260.282 214.888C261.562 214.461 262.564 213.8 263.29 212.904C264.058 211.965 264.634 210.728 265.018 209.192C265.402 207.656 265.7 205.779 265.914 203.56H267.386C267.258 204.883 267.194 206.632 267.194 208.808C267.194 209.619 267.215 210.792 267.258 212.328C267.343 213.821 267.471 215.379 267.642 217C265.466 216.915 263.012 216.872 260.282 216.872C257.551 216.829 255.119 216.808 252.986 216.808C252.047 216.808 250.831 216.808 249.338 216.808C247.887 216.808 246.308 216.829 244.602 216.872C242.895 216.872 241.167 216.893 239.418 216.936C237.668 216.936 236.004 216.957 234.426 217V215.72C235.876 215.635 236.964 215.464 237.69 215.208C238.458 214.952 238.97 214.44 239.226 213.672C239.482 212.904 239.61 211.752 239.61 210.216V178.472C239.61 176.893 239.482 175.741 239.226 175.016C238.97 174.248 238.458 173.736 237.69 173.48C236.964 173.181 235.876 173.011 234.426 172.968V171.688C235.322 171.731 236.495 171.773 237.946 171.816C239.396 171.859 240.954 171.88 242.618 171.88C244.111 171.88 245.583 171.859 247.034 171.816C248.527 171.773 249.764 171.731 250.746 171.688Z" fill="#FCFCFC"/>
</svg>
