<svg width="450" height="500" viewBox="0 0 450 500" fill="none" xmlns="http://www.w3.org/2000/svg">
<path opacity="0.2" d="M24 0C10.7664 0 0 10.7944 0 24.0625H9.6C9.6 16.1026 16.0608 9.625 24 9.625C31.9392 9.625 38.4 16.1026 38.4 24.0625C38.4 29.2071 36.2208 31.1128 31.2912 34.9147C29.4576 36.3296 27.3888 37.9273 25.4064 39.9101C19.1088 46.2192 19.176 52.4418 19.2 52.9375V62.5625H28.8V52.8942C28.8 52.7787 28.9104 50.0019 32.1936 46.7149C33.7296 45.1749 35.4672 43.8371 37.1424 42.5425C42.2304 38.6155 48 34.1688 48 24.0625C48 10.7944 37.2336 0 24 0ZM19.2 67.375H28.8V77H19.2V67.375Z" fill="#DDDDDD"/>
<path opacity="0.2" d="M122 105C108.766 105 98 115.794 98 129.062H107.6C107.6 121.103 114.061 114.625 122 114.625C129.939 114.625 136.4 121.103 136.4 129.062C136.4 134.207 134.221 136.113 129.291 139.915C127.458 141.33 125.389 142.927 123.406 144.91C117.109 151.219 117.176 157.442 117.2 157.938V167.562H126.8V157.894C126.8 157.779 126.91 155.002 130.194 151.715C131.73 150.175 133.467 148.837 135.142 147.542C140.23 143.616 146 139.169 146 129.062C146 115.794 135.234 105 122 105ZM117.2 172.375H126.8V182H117.2V172.375Z" fill="#DDDDDD"/>
<path opacity="0.2" d="M220 0C206.766 0 196 10.7944 196 24.0625H205.6C205.6 16.1026 212.061 9.625 220 9.625C227.939 9.625 234.4 16.1026 234.4 24.0625C234.4 29.2071 232.221 31.1128 227.291 34.9147C225.458 36.3296 223.389 37.9273 221.406 39.9101C215.109 46.2192 215.176 52.4418 215.2 52.9375V62.5625H224.8V52.8942C224.8 52.7787 224.91 50.0019 228.194 46.7149C229.73 45.1749 231.467 43.8371 233.142 42.5425C238.23 38.6155 244 34.1688 244 24.0625C244 10.7944 233.234 0 220 0ZM215.2 67.375H224.8V77H215.2V67.375Z" fill="#DDDDDD"/>
<path opacity="0.2" d="M426 0C412.766 0 402 10.7944 402 24.0625H411.6C411.6 16.1026 418.061 9.625 426 9.625C433.939 9.625 440.4 16.1026 440.4 24.0625C440.4 29.2071 438.221 31.1128 433.291 34.9147C431.458 36.3296 429.389 37.9273 427.406 39.9101C421.109 46.2192 421.176 52.4418 421.2 52.9375V62.5625H430.8V52.8942C430.8 52.7787 430.91 50.0019 434.194 46.7149C435.73 45.1749 437.467 43.8371 439.142 42.5425C444.23 38.6155 450 34.1688 450 24.0625C450 10.7944 439.234 0 426 0ZM421.2 67.375H430.8V77H421.2V67.375Z" fill="#DDDDDD"/>
<path opacity="0.2" d="M24 211C10.7664 211 0 221.794 0 235.062H9.6C9.6 227.103 16.0608 220.625 24 220.625C31.9392 220.625 38.4 227.103 38.4 235.062C38.4 240.207 36.2208 242.113 31.2912 245.915C29.4576 247.33 27.3888 248.927 25.4064 250.91C19.1088 257.219 19.176 263.442 19.2 263.938V273.562H28.8V263.894C28.8 263.779 28.9104 261.002 32.1936 257.715C33.7296 256.175 35.4672 254.837 37.1424 253.542C42.2304 249.616 48 245.169 48 235.062C48 221.794 37.2336 211 24 211ZM19.2 278.375H28.8V288H19.2V278.375Z" fill="#DDDDDD"/>
<path opacity="0.2" d="M220 211C206.766 211 196 221.794 196 235.062H205.6C205.6 227.103 212.061 220.625 220 220.625C227.939 220.625 234.4 227.103 234.4 235.062C234.4 240.207 232.221 242.113 227.291 245.915C225.458 247.33 223.389 248.927 221.406 250.91C215.109 257.219 215.176 263.442 215.2 263.938V273.562H224.8V263.894C224.8 263.779 224.91 261.002 228.194 257.715C229.73 256.175 231.467 254.837 233.142 253.542C238.23 249.616 244 245.169 244 235.062C244 221.794 233.234 211 220 211ZM215.2 278.375H224.8V288H215.2V278.375Z" fill="#DDDDDD"/>
<path d="M225 151C190.813 151 163 178.757 163 212.875H187.8C187.8 192.407 204.49 175.75 225 175.75C245.51 175.75 262.2 192.407 262.2 212.875C262.2 226.104 256.57 231.004 243.836 240.781C239.099 244.419 233.754 248.527 228.633 253.626C212.364 269.85 212.538 285.85 212.6 287.125V311.875H237.4V287.014C237.4 286.717 237.685 279.576 246.167 271.124C250.135 267.164 254.624 263.724 258.951 260.395C272.095 250.297 287 238.862 287 212.875C287 178.757 259.187 151 225 151ZM212.6 324.25H237.4V349H212.6V324.25Z" fill="#DDDDDD"/>
<path opacity="0.2" d="M426 211C412.766 211 402 221.794 402 235.062H411.6C411.6 227.103 418.061 220.625 426 220.625C433.939 220.625 440.4 227.103 440.4 235.062C440.4 240.207 438.221 242.113 433.291 245.915C431.458 247.33 429.389 248.927 427.406 250.91C421.109 257.219 421.176 263.442 421.2 263.938V273.562H430.8V263.894C430.8 263.779 430.91 261.002 434.194 257.715C435.73 256.175 437.467 254.837 439.142 253.542C444.23 249.616 450 245.169 450 235.062C450 221.794 439.234 211 426 211ZM421.2 278.375H430.8V288H421.2V278.375Z" fill="#DDDDDD"/>
<path opacity="0.2" d="M318 105C304.766 105 294 115.794 294 129.062H303.6C303.6 121.103 310.061 114.625 318 114.625C325.939 114.625 332.4 121.103 332.4 129.062C332.4 134.207 330.221 136.113 325.291 139.915C323.458 141.33 321.389 142.927 319.406 144.91C313.109 151.219 313.176 157.442 313.2 157.938V167.562H322.8V157.894C322.8 157.779 322.91 155.002 326.194 151.715C327.73 150.175 329.467 148.837 331.142 147.542C336.23 143.616 342 139.169 342 129.062C342 115.794 331.234 105 318 105ZM313.2 172.375H322.8V182H313.2V172.375Z" fill="#DDDDDD"/>
<path opacity="0.2" d="M122 317C108.766 317 98 327.794 98 341.062H107.6C107.6 333.103 114.061 326.625 122 326.625C129.939 326.625 136.4 333.103 136.4 341.062C136.4 346.207 134.221 348.113 129.291 351.915C127.458 353.33 125.389 354.927 123.406 356.91C117.109 363.219 117.176 369.442 117.2 369.938V379.562H126.8V369.894C126.8 369.779 126.91 367.002 130.194 363.715C131.73 362.175 133.467 360.837 135.142 359.542C140.23 355.616 146 351.169 146 341.062C146 327.794 135.234 317 122 317ZM117.2 384.375H126.8V394H117.2V384.375Z" fill="#DDDDDD"/>
<path opacity="0.2" d="M24 423C10.7664 423 0 433.794 0 447.062H9.6C9.6 439.103 16.0608 432.625 24 432.625C31.9392 432.625 38.4 439.103 38.4 447.062C38.4 452.207 36.2208 454.113 31.2912 457.915C29.4576 459.33 27.3888 460.927 25.4064 462.91C19.1088 469.219 19.176 475.442 19.2 475.938V485.562H28.8V475.894C28.8 475.779 28.9104 473.002 32.1936 469.715C33.7296 468.175 35.4672 466.837 37.1424 465.542C42.2304 461.616 48 457.169 48 447.062C48 433.794 37.2336 423 24 423ZM19.2 490.375H28.8V500H19.2V490.375Z" fill="#DDDDDD"/>
<path opacity="0.2" d="M220 423C206.766 423 196 433.794 196 447.062H205.6C205.6 439.103 212.061 432.625 220 432.625C227.939 432.625 234.4 439.103 234.4 447.062C234.4 452.207 232.221 454.113 227.291 457.915C225.458 459.33 223.389 460.927 221.406 462.91C215.109 469.219 215.176 475.442 215.2 475.938V485.562H224.8V475.894C224.8 475.779 224.91 473.002 228.194 469.715C229.73 468.175 231.467 466.837 233.142 465.542C238.23 461.616 244 457.169 244 447.062C244 433.794 233.234 423 220 423ZM215.2 490.375H224.8V500H215.2V490.375Z" fill="#DDDDDD"/>
<path opacity="0.2" d="M426 423C412.766 423 402 433.794 402 447.062H411.6C411.6 439.103 418.061 432.625 426 432.625C433.939 432.625 440.4 439.103 440.4 447.062C440.4 452.207 438.221 454.113 433.291 457.915C431.458 459.33 429.389 460.927 427.406 462.91C421.109 469.219 421.176 475.442 421.2 475.938V485.562H430.8V475.894C430.8 475.779 430.91 473.002 434.194 469.715C435.73 468.175 437.467 466.837 439.142 465.542C444.23 461.616 450 457.169 450 447.062C450 433.794 439.234 423 426 423ZM421.2 490.375H430.8V500H421.2V490.375Z" fill="#DDDDDD"/>
<path opacity="0.2" d="M318 317C304.766 317 294 327.794 294 341.062H303.6C303.6 333.103 310.061 326.625 318 326.625C325.939 326.625 332.4 333.103 332.4 341.062C332.4 346.207 330.221 348.113 325.291 351.915C323.458 353.33 321.389 354.927 319.406 356.91C313.109 363.219 313.176 369.442 313.2 369.938V379.562H322.8V369.894C322.8 369.779 322.91 367.002 326.194 363.715C327.73 362.175 329.467 360.837 331.142 359.542C336.23 355.616 342 351.169 342 341.062C342 327.794 331.234 317 318 317ZM313.2 384.375H322.8V394H313.2V384.375Z" fill="#DDDDDD"/>
</svg>
