<svg width="384" height="247" viewBox="0 0 384 247" fill="none" xmlns="http://www.w3.org/2000/svg">
<path d="M0 126.063V95.7827H3V108.783L2.32 108.623C2.85333 107.236 3.72 106.143 4.92 105.343C6.14667 104.543 7.56 104.143 9.16 104.143C10.68 104.143 12.04 104.489 13.24 105.183C14.4667 105.876 15.4267 106.836 16.12 108.063C16.84 109.263 17.2 110.623 17.2 112.143V126.063H14.2V113.303C14.2 111.996 13.96 110.889 13.48 109.983C13 109.076 12.3333 108.383 11.48 107.903C10.6533 107.396 9.70667 107.143 8.64 107.143C7.57333 107.143 6.61333 107.396 5.76 107.903C4.90667 108.383 4.22667 109.089 3.72 110.023C3.24 110.929 3 112.023 3 113.303V126.063H0Z" fill="white"/>
<path d="M0 126.063V95.7827H3V108.783L2.32 108.623C2.85333 107.236 3.72 106.143 4.92 105.343C6.14667 104.543 7.56 104.143 9.16 104.143C10.68 104.143 12.04 104.489 13.24 105.183C14.4667 105.876 15.4267 106.836 16.12 108.063C16.84 109.263 17.2 110.623 17.2 112.143V126.063H14.2V113.303C14.2 111.996 13.96 110.889 13.48 109.983C13 109.076 12.3333 108.383 11.48 107.903C10.6533 107.396 9.70667 107.143 8.64 107.143C7.57333 107.143 6.61333 107.396 5.76 107.903C4.90667 108.383 4.22667 109.089 3.72 110.023C3.24 110.929 3 112.023 3 113.303V126.063H0Z" fill="white"/>
<path d="M32.9697 126.543C30.943 126.543 29.103 126.063 27.4497 125.103C25.7964 124.116 24.4764 122.783 23.4897 121.103C22.5297 119.396 22.0497 117.463 22.0497 115.303C22.0497 113.169 22.5297 111.263 23.4897 109.583C24.4497 107.903 25.743 106.583 27.3697 105.623C29.023 104.636 30.8897 104.143 32.9697 104.143C35.0497 104.143 36.903 104.623 38.5297 105.583C40.183 106.543 41.4764 107.863 42.4097 109.543C43.3697 111.223 43.8497 113.143 43.8497 115.303C43.8497 117.489 43.3564 119.436 42.3697 121.143C41.383 122.823 40.063 124.143 38.4097 125.103C36.783 126.063 34.9697 126.543 32.9697 126.543ZM32.9697 123.543C34.4097 123.543 35.703 123.183 36.8497 122.463C38.023 121.743 38.943 120.756 39.6097 119.503C40.303 118.249 40.6497 116.849 40.6497 115.303C40.6497 113.756 40.303 112.369 39.6097 111.143C38.943 109.916 38.023 108.943 36.8497 108.223C35.703 107.503 34.4097 107.143 32.9697 107.143C31.5297 107.143 30.223 107.503 29.0497 108.223C27.903 108.943 26.983 109.916 26.2897 111.143C25.5964 112.369 25.2497 113.756 25.2497 115.303C25.2497 116.849 25.5964 118.249 26.2897 119.503C26.983 120.756 27.903 121.743 29.0497 122.463C30.223 123.183 31.5297 123.543 32.9697 123.543Z" fill="white"/>
<path d="M32.9697 126.543C30.943 126.543 29.103 126.063 27.4497 125.103C25.7964 124.116 24.4764 122.783 23.4897 121.103C22.5297 119.396 22.0497 117.463 22.0497 115.303C22.0497 113.169 22.5297 111.263 23.4897 109.583C24.4497 107.903 25.743 106.583 27.3697 105.623C29.023 104.636 30.8897 104.143 32.9697 104.143C35.0497 104.143 36.903 104.623 38.5297 105.583C40.183 106.543 41.4764 107.863 42.4097 109.543C43.3697 111.223 43.8497 113.143 43.8497 115.303C43.8497 117.489 43.3564 119.436 42.3697 121.143C41.383 122.823 40.063 124.143 38.4097 125.103C36.783 126.063 34.9697 126.543 32.9697 126.543ZM32.9697 123.543C34.4097 123.543 35.703 123.183 36.8497 122.463C38.023 121.743 38.943 120.756 39.6097 119.503C40.303 118.249 40.6497 116.849 40.6497 115.303C40.6497 113.756 40.303 112.369 39.6097 111.143C38.943 109.916 38.023 108.943 36.8497 108.223C35.703 107.503 34.4097 107.143 32.9697 107.143C31.5297 107.143 30.223 107.503 29.0497 108.223C27.903 108.943 26.983 109.916 26.2897 111.143C25.5964 112.369 25.2497 113.756 25.2497 115.303C25.2497 116.849 25.5964 118.249 26.2897 119.503C26.983 120.756 27.903 121.743 29.0497 122.463C30.223 123.183 31.5297 123.543 32.9697 123.543Z" fill="white"/>
<path d="M49.1406 126.063V104.623H52.1406V108.783L51.4606 108.623C51.994 107.236 52.8606 106.143 54.0606 105.343C55.2873 104.543 56.7006 104.143 58.3006 104.143C59.8206 104.143 61.1806 104.489 62.3806 105.183C63.6073 105.876 64.5673 106.836 65.2606 108.063C65.9806 109.263 66.3406 110.623 66.3406 112.143V126.063H63.3406V113.303C63.3406 111.996 63.1006 110.889 62.6206 109.983C62.1673 109.076 61.514 108.383 60.6606 107.903C59.834 107.396 58.874 107.143 57.7806 107.143C56.6873 107.143 55.714 107.396 54.8606 107.903C54.0073 108.383 53.3406 109.089 52.8606 110.023C52.3806 110.929 52.1406 112.023 52.1406 113.303V126.063H49.1406Z" fill="white"/>
<path d="M49.1406 126.063V104.623H52.1406V108.783L51.4606 108.623C51.994 107.236 52.8606 106.143 54.0606 105.343C55.2873 104.543 56.7006 104.143 58.3006 104.143C59.8206 104.143 61.1806 104.489 62.3806 105.183C63.6073 105.876 64.5673 106.836 65.2606 108.063C65.9806 109.263 66.3406 110.623 66.3406 112.143V126.063H63.3406V113.303C63.3406 111.996 63.1006 110.889 62.6206 109.983C62.1673 109.076 61.514 108.383 60.6606 107.903C59.834 107.396 58.874 107.143 57.7806 107.143C56.6873 107.143 55.714 107.396 54.8606 107.903C54.0073 108.383 53.3406 109.089 52.8606 110.023C52.3806 110.929 52.1406 112.023 52.1406 113.303V126.063H49.1406Z" fill="white"/>
<path d="M81.8303 126.543C79.8303 126.543 78.017 126.063 76.3903 125.103C74.7903 124.116 73.5236 122.769 72.5903 121.063C71.657 119.356 71.1903 117.423 71.1903 115.263C71.1903 113.103 71.6436 111.196 72.5503 109.543C73.457 107.863 74.6836 106.543 76.2303 105.583C77.8036 104.623 79.5636 104.143 81.5103 104.143C83.057 104.143 84.4303 104.436 85.6303 105.023C86.857 105.583 87.897 106.356 88.7503 107.343C89.6036 108.303 90.257 109.396 90.7103 110.623C91.1636 111.823 91.3903 113.063 91.3903 114.343C91.3903 114.609 91.377 114.916 91.3503 115.263C91.3236 115.583 91.2836 115.916 91.2303 116.263H73.1103V113.463H89.5103L88.0703 114.663C88.3103 113.196 88.137 111.889 87.5503 110.743C86.9903 109.569 86.177 108.649 85.1103 107.983C84.0436 107.289 82.8437 106.943 81.5103 106.943C80.177 106.943 78.937 107.289 77.7903 107.983C76.6703 108.676 75.7903 109.649 75.1503 110.903C74.5103 112.129 74.257 113.596 74.3903 115.303C74.257 117.009 74.5237 118.503 75.1903 119.783C75.8837 121.036 76.817 122.009 77.9903 122.703C79.1903 123.396 80.4703 123.743 81.8303 123.743C83.4036 123.743 84.7236 123.369 85.7903 122.623C86.857 121.876 87.7236 120.943 88.3903 119.823L90.9503 121.183C90.5236 122.143 89.8703 123.036 88.9903 123.863C88.1103 124.663 87.057 125.316 85.8303 125.823C84.6303 126.303 83.297 126.543 81.8303 126.543Z" fill="white"/>
<path d="M81.8303 126.543C79.8303 126.543 78.017 126.063 76.3903 125.103C74.7903 124.116 73.5236 122.769 72.5903 121.063C71.657 119.356 71.1903 117.423 71.1903 115.263C71.1903 113.103 71.6436 111.196 72.5503 109.543C73.457 107.863 74.6836 106.543 76.2303 105.583C77.8036 104.623 79.5636 104.143 81.5103 104.143C83.057 104.143 84.4303 104.436 85.6303 105.023C86.857 105.583 87.897 106.356 88.7503 107.343C89.6036 108.303 90.257 109.396 90.7103 110.623C91.1636 111.823 91.3903 113.063 91.3903 114.343C91.3903 114.609 91.377 114.916 91.3503 115.263C91.3236 115.583 91.2836 115.916 91.2303 116.263H73.1103V113.463H89.5103L88.0703 114.663C88.3103 113.196 88.137 111.889 87.5503 110.743C86.9903 109.569 86.177 108.649 85.1103 107.983C84.0436 107.289 82.8437 106.943 81.5103 106.943C80.177 106.943 78.937 107.289 77.7903 107.983C76.6703 108.676 75.7903 109.649 75.1503 110.903C74.5103 112.129 74.257 113.596 74.3903 115.303C74.257 117.009 74.5237 118.503 75.1903 119.783C75.8837 121.036 76.817 122.009 77.9903 122.703C79.1903 123.396 80.4703 123.743 81.8303 123.743C83.4036 123.743 84.7236 123.369 85.7903 122.623C86.857 121.876 87.7236 120.943 88.3903 119.823L90.9503 121.183C90.5236 122.143 89.8703 123.036 88.9903 123.863C88.1103 124.663 87.057 125.316 85.8303 125.823C84.6303 126.303 83.297 126.543 81.8303 126.543Z" fill="white"/>
<path d="M97.1197 134.863C96.693 134.863 96.253 134.823 95.7997 134.743C95.373 134.689 94.9464 134.583 94.5197 134.423V131.623C94.7864 131.649 95.1197 131.689 95.5197 131.743C95.9464 131.823 96.373 131.863 96.7997 131.863C98.1064 131.863 99.1064 131.583 99.7997 131.023C100.493 130.489 101.173 129.449 101.84 127.903L103.2 124.703L103.12 127.343L94.0397 104.623H97.2797L104.72 123.383H103.88L111.28 104.623H114.6L104.8 128.783C104.373 129.823 103.826 130.809 103.16 131.743C102.52 132.676 101.706 133.423 100.72 133.983C99.733 134.569 98.533 134.863 97.1197 134.863Z" fill="white"/>
<path d="M97.1197 134.863C96.693 134.863 96.253 134.823 95.7997 134.743C95.373 134.689 94.9464 134.583 94.5197 134.423V131.623C94.7864 131.649 95.1197 131.689 95.5197 131.743C95.9464 131.823 96.373 131.863 96.7997 131.863C98.1064 131.863 99.1064 131.583 99.7997 131.023C100.493 130.489 101.173 129.449 101.84 127.903L103.2 124.703L103.12 127.343L94.0397 104.623H97.2797L104.72 123.383H103.88L111.28 104.623H114.6L104.8 128.783C104.373 129.823 103.826 130.809 103.16 131.743C102.52 132.676 101.706 133.423 100.72 133.983C99.733 134.569 98.533 134.863 97.1197 134.863Z" fill="white"/>
<path d="M125.565 126.543C123.512 126.543 121.712 126.023 120.165 124.983C118.618 123.943 117.498 122.529 116.805 120.743L119.325 119.543C119.938 120.849 120.792 121.889 121.885 122.663C123.005 123.436 124.232 123.823 125.565 123.823C126.845 123.823 127.925 123.516 128.805 122.903C129.685 122.263 130.125 121.436 130.125 120.423C130.125 119.676 129.912 119.089 129.485 118.663C129.058 118.209 128.565 117.863 128.005 117.623C127.445 117.383 126.952 117.209 126.525 117.103L123.445 116.223C121.472 115.663 120.045 114.876 119.165 113.863C118.285 112.849 117.845 111.676 117.845 110.343C117.845 109.089 118.165 107.996 118.805 107.063C119.445 106.129 120.312 105.409 121.405 104.903C122.498 104.396 123.712 104.143 125.045 104.143C126.858 104.143 128.498 104.623 129.965 105.583C131.458 106.516 132.512 107.823 133.125 109.503L130.565 110.703C130.032 109.503 129.258 108.569 128.245 107.903C127.258 107.209 126.152 106.863 124.925 106.863C123.725 106.863 122.765 107.169 122.045 107.783C121.325 108.396 120.965 109.169 120.965 110.103C120.965 110.823 121.152 111.396 121.525 111.823C121.898 112.249 122.325 112.569 122.805 112.783C123.312 112.996 123.752 113.156 124.125 113.263L127.685 114.303C129.418 114.809 130.765 115.596 131.725 116.663C132.712 117.729 133.205 118.983 133.205 120.423C133.205 121.596 132.872 122.649 132.205 123.583C131.565 124.516 130.672 125.249 129.525 125.783C128.378 126.289 127.058 126.543 125.565 126.543Z" fill="white"/>
<path d="M125.565 126.543C123.512 126.543 121.712 126.023 120.165 124.983C118.618 123.943 117.498 122.529 116.805 120.743L119.325 119.543C119.938 120.849 120.792 121.889 121.885 122.663C123.005 123.436 124.232 123.823 125.565 123.823C126.845 123.823 127.925 123.516 128.805 122.903C129.685 122.263 130.125 121.436 130.125 120.423C130.125 119.676 129.912 119.089 129.485 118.663C129.058 118.209 128.565 117.863 128.005 117.623C127.445 117.383 126.952 117.209 126.525 117.103L123.445 116.223C121.472 115.663 120.045 114.876 119.165 113.863C118.285 112.849 117.845 111.676 117.845 110.343C117.845 109.089 118.165 107.996 118.805 107.063C119.445 106.129 120.312 105.409 121.405 104.903C122.498 104.396 123.712 104.143 125.045 104.143C126.858 104.143 128.498 104.623 129.965 105.583C131.458 106.516 132.512 107.823 133.125 109.503L130.565 110.703C130.032 109.503 129.258 108.569 128.245 107.903C127.258 107.209 126.152 106.863 124.925 106.863C123.725 106.863 122.765 107.169 122.045 107.783C121.325 108.396 120.965 109.169 120.965 110.103C120.965 110.823 121.152 111.396 121.525 111.823C121.898 112.249 122.325 112.569 122.805 112.783C123.312 112.996 123.752 113.156 124.125 113.263L127.685 114.303C129.418 114.809 130.765 115.596 131.725 116.663C132.712 117.729 133.205 118.983 133.205 120.423C133.205 121.596 132.872 122.649 132.205 123.583C131.565 124.516 130.672 125.249 129.525 125.783C128.378 126.289 127.058 126.543 125.565 126.543Z" fill="white"/>
<path d="M146.077 126.543C144.583 126.543 143.223 126.196 141.997 125.503C140.77 124.783 139.797 123.796 139.077 122.543C138.383 121.263 138.037 119.796 138.037 118.143V104.623H141.037V117.783C141.037 118.929 141.263 119.943 141.717 120.823C142.197 121.676 142.85 122.343 143.677 122.823C144.53 123.303 145.503 123.543 146.597 123.543C147.69 123.543 148.663 123.303 149.517 122.823C150.37 122.316 151.037 121.609 151.517 120.703C151.997 119.769 152.237 118.663 152.237 117.383V104.623H155.237V126.063H152.237V121.903L152.917 122.063C152.41 123.449 151.543 124.543 150.317 125.343C149.09 126.143 147.677 126.543 146.077 126.543Z" fill="white"/>
<path d="M146.077 126.543C144.583 126.543 143.223 126.196 141.997 125.503C140.77 124.783 139.797 123.796 139.077 122.543C138.383 121.263 138.037 119.796 138.037 118.143V104.623H141.037V117.783C141.037 118.929 141.263 119.943 141.717 120.823C142.197 121.676 142.85 122.343 143.677 122.823C144.53 123.303 145.503 123.543 146.597 123.543C147.69 123.543 148.663 123.303 149.517 122.823C150.37 122.316 151.037 121.609 151.517 120.703C151.997 119.769 152.237 118.663 152.237 117.383V104.623H155.237V126.063H152.237V121.903L152.917 122.063C152.41 123.449 151.543 124.543 150.317 125.343C149.09 126.143 147.677 126.543 146.077 126.543Z" fill="white"/>
<path d="M171.206 126.543C169.1 126.543 167.246 126.049 165.646 125.063C164.046 124.076 162.793 122.743 161.886 121.063C160.98 119.356 160.526 117.436 160.526 115.303C160.526 113.169 160.98 111.263 161.886 109.583C162.793 107.903 164.046 106.583 165.646 105.623C167.246 104.636 169.1 104.143 171.206 104.143C172.54 104.143 173.793 104.383 174.966 104.863C176.14 105.343 177.18 105.996 178.086 106.823C178.993 107.623 179.673 108.556 180.126 109.623L177.406 111.023C176.873 109.876 176.06 108.943 174.966 108.223C173.873 107.503 172.62 107.143 171.206 107.143C169.793 107.143 168.513 107.503 167.366 108.223C166.246 108.916 165.353 109.889 164.686 111.143C164.046 112.369 163.726 113.769 163.726 115.343C163.726 116.889 164.046 118.289 164.686 119.543C165.353 120.769 166.246 121.743 167.366 122.463C168.513 123.183 169.793 123.543 171.206 123.543C172.62 123.543 173.86 123.183 174.926 122.463C176.02 121.743 176.846 120.783 177.406 119.583L180.126 121.063C179.673 122.103 178.993 123.036 178.086 123.863C177.18 124.689 176.14 125.343 174.966 125.823C173.793 126.303 172.54 126.543 171.206 126.543Z" fill="white"/>
<path d="M171.206 126.543C169.1 126.543 167.246 126.049 165.646 125.063C164.046 124.076 162.793 122.743 161.886 121.063C160.98 119.356 160.526 117.436 160.526 115.303C160.526 113.169 160.98 111.263 161.886 109.583C162.793 107.903 164.046 106.583 165.646 105.623C167.246 104.636 169.1 104.143 171.206 104.143C172.54 104.143 173.793 104.383 174.966 104.863C176.14 105.343 177.18 105.996 178.086 106.823C178.993 107.623 179.673 108.556 180.126 109.623L177.406 111.023C176.873 109.876 176.06 108.943 174.966 108.223C173.873 107.503 172.62 107.143 171.206 107.143C169.793 107.143 168.513 107.503 167.366 108.223C166.246 108.916 165.353 109.889 164.686 111.143C164.046 112.369 163.726 113.769 163.726 115.343C163.726 116.889 164.046 118.289 164.686 119.543C165.353 120.769 166.246 121.743 167.366 122.463C168.513 123.183 169.793 123.543 171.206 123.543C172.62 123.543 173.86 123.183 174.926 122.463C176.02 121.743 176.846 120.783 177.406 119.583L180.126 121.063C179.673 122.103 178.993 123.036 178.086 123.863C177.18 124.689 176.14 125.343 174.966 125.823C173.793 126.303 172.54 126.543 171.206 126.543Z" fill="white"/>
<path d="M185.391 126.063V95.7827H188.391V116.983L187.111 116.783L199.151 104.623H203.031L194.631 113.223L203.791 126.063H200.191L191.591 114.183L193.511 114.343L187.391 120.663L188.391 118.183V126.063H185.391Z" fill="white"/>
<path d="M185.391 126.063V95.7827H188.391V116.983L187.111 116.783L199.151 104.623H203.031L194.631 113.223L203.791 126.063H200.191L191.591 114.183L193.511 114.343L187.391 120.663L188.391 118.183V126.063H185.391Z" fill="white"/>
<path d="M207.305 126.063V95.7827H210.305V126.063H207.305Z" fill="white"/>
<path d="M207.305 126.063V95.7827H210.305V126.063H207.305Z" fill="white"/>
<path d="M226.205 126.543C224.205 126.543 222.392 126.063 220.765 125.103C219.165 124.116 217.899 122.769 216.965 121.063C216.032 119.356 215.565 117.423 215.565 115.263C215.565 113.103 216.019 111.196 216.925 109.543C217.832 107.863 219.059 106.543 220.605 105.583C222.179 104.623 223.939 104.143 225.885 104.143C227.432 104.143 228.805 104.436 230.005 105.023C231.232 105.583 232.272 106.356 233.125 107.343C233.979 108.303 234.632 109.396 235.085 110.623C235.539 111.823 235.765 113.063 235.765 114.343C235.765 114.609 235.752 114.916 235.725 115.263C235.699 115.583 235.659 115.916 235.605 116.263H217.485V113.463H233.885L232.445 114.663C232.685 113.196 232.512 111.889 231.925 110.743C231.365 109.569 230.552 108.649 229.485 107.983C228.419 107.289 227.219 106.943 225.885 106.943C224.552 106.943 223.312 107.289 222.165 107.983C221.045 108.676 220.165 109.649 219.525 110.903C218.885 112.129 218.632 113.596 218.765 115.303C218.632 117.009 218.899 118.503 219.565 119.783C220.259 121.036 221.192 122.009 222.365 122.703C223.565 123.396 224.845 123.743 226.205 123.743C227.779 123.743 229.099 123.369 230.165 122.623C231.232 121.876 232.099 120.943 232.765 119.823L235.325 121.183C234.899 122.143 234.245 123.036 233.365 123.863C232.485 124.663 231.432 125.316 230.205 125.823C229.005 126.303 227.672 126.543 226.205 126.543Z" fill="white"/>
<path d="M226.205 126.543C224.205 126.543 222.392 126.063 220.765 125.103C219.165 124.116 217.899 122.769 216.965 121.063C216.032 119.356 215.565 117.423 215.565 115.263C215.565 113.103 216.019 111.196 216.925 109.543C217.832 107.863 219.059 106.543 220.605 105.583C222.179 104.623 223.939 104.143 225.885 104.143C227.432 104.143 228.805 104.436 230.005 105.023C231.232 105.583 232.272 106.356 233.125 107.343C233.979 108.303 234.632 109.396 235.085 110.623C235.539 111.823 235.765 113.063 235.765 114.343C235.765 114.609 235.752 114.916 235.725 115.263C235.699 115.583 235.659 115.916 235.605 116.263H217.485V113.463H233.885L232.445 114.663C232.685 113.196 232.512 111.889 231.925 110.743C231.365 109.569 230.552 108.649 229.485 107.983C228.419 107.289 227.219 106.943 225.885 106.943C224.552 106.943 223.312 107.289 222.165 107.983C221.045 108.676 220.165 109.649 219.525 110.903C218.885 112.129 218.632 113.596 218.765 115.303C218.632 117.009 218.899 118.503 219.565 119.783C220.259 121.036 221.192 122.009 222.365 122.703C223.565 123.396 224.845 123.743 226.205 123.743C227.779 123.743 229.099 123.369 230.165 122.623C231.232 121.876 232.099 120.943 232.765 119.823L235.325 121.183C234.899 122.143 234.245 123.036 233.365 123.863C232.485 124.663 231.432 125.316 230.205 125.823C229.005 126.303 227.672 126.543 226.205 126.543Z" fill="white"/>
<path d="M255.292 126.543C253.238 126.543 251.438 126.023 249.892 124.983C248.345 123.943 247.225 122.529 246.532 120.743L249.052 119.543C249.665 120.849 250.518 121.889 251.612 122.663C252.732 123.436 253.958 123.823 255.292 123.823C256.572 123.823 257.652 123.516 258.532 122.903C259.412 122.263 259.852 121.436 259.852 120.423C259.852 119.676 259.638 119.089 259.212 118.663C258.785 118.209 258.292 117.863 257.732 117.623C257.172 117.383 256.678 117.209 256.252 117.103L253.172 116.223C251.198 115.663 249.772 114.876 248.892 113.863C248.012 112.849 247.572 111.676 247.572 110.343C247.572 109.089 247.892 107.996 248.532 107.063C249.172 106.129 250.038 105.409 251.132 104.903C252.225 104.396 253.438 104.143 254.772 104.143C256.585 104.143 258.225 104.623 259.692 105.583C261.185 106.516 262.238 107.823 262.852 109.503L260.292 110.703C259.758 109.503 258.985 108.569 257.972 107.903C256.985 107.209 255.878 106.863 254.652 106.863C253.452 106.863 252.492 107.169 251.772 107.783C251.052 108.396 250.692 109.169 250.692 110.103C250.692 110.823 250.878 111.396 251.252 111.823C251.625 112.249 252.052 112.569 252.532 112.783C253.038 112.996 253.478 113.156 253.852 113.263L257.412 114.303C259.145 114.809 260.492 115.596 261.452 116.663C262.438 117.729 262.932 118.983 262.932 120.423C262.932 121.596 262.598 122.649 261.932 123.583C261.292 124.516 260.398 125.249 259.252 125.783C258.105 126.289 256.785 126.543 255.292 126.543Z" fill="white"/>
<path d="M255.292 126.543C253.238 126.543 251.438 126.023 249.892 124.983C248.345 123.943 247.225 122.529 246.532 120.743L249.052 119.543C249.665 120.849 250.518 121.889 251.612 122.663C252.732 123.436 253.958 123.823 255.292 123.823C256.572 123.823 257.652 123.516 258.532 122.903C259.412 122.263 259.852 121.436 259.852 120.423C259.852 119.676 259.638 119.089 259.212 118.663C258.785 118.209 258.292 117.863 257.732 117.623C257.172 117.383 256.678 117.209 256.252 117.103L253.172 116.223C251.198 115.663 249.772 114.876 248.892 113.863C248.012 112.849 247.572 111.676 247.572 110.343C247.572 109.089 247.892 107.996 248.532 107.063C249.172 106.129 250.038 105.409 251.132 104.903C252.225 104.396 253.438 104.143 254.772 104.143C256.585 104.143 258.225 104.623 259.692 105.583C261.185 106.516 262.238 107.823 262.852 109.503L260.292 110.703C259.758 109.503 258.985 108.569 257.972 107.903C256.985 107.209 255.878 106.863 254.652 106.863C253.452 106.863 252.492 107.169 251.772 107.783C251.052 108.396 250.692 109.169 250.692 110.103C250.692 110.823 250.878 111.396 251.252 111.823C251.625 112.249 252.052 112.569 252.532 112.783C253.038 112.996 253.478 113.156 253.852 113.263L257.412 114.303C259.145 114.809 260.492 115.596 261.452 116.663C262.438 117.729 262.932 118.983 262.932 120.423C262.932 121.596 262.598 122.649 261.932 123.583C261.292 124.516 260.398 125.249 259.252 125.783C258.105 126.289 256.785 126.543 255.292 126.543Z" fill="white"/>
<path d="M276.403 126.303C274.483 126.303 273.003 125.743 271.963 124.623C270.923 123.503 270.403 121.903 270.403 119.823V107.623H266.443V104.623H267.443C268.35 104.623 269.07 104.329 269.603 103.743C270.136 103.129 270.403 102.369 270.403 101.463V99.6627H273.403V104.623H278.123V107.623H273.403V119.823C273.403 120.543 273.51 121.183 273.723 121.743C273.936 122.276 274.296 122.703 274.803 123.023C275.336 123.343 276.043 123.503 276.923 123.503C277.136 123.503 277.39 123.489 277.683 123.463C277.976 123.436 278.23 123.409 278.443 123.383V126.063C278.123 126.143 277.763 126.196 277.363 126.223C276.963 126.276 276.643 126.303 276.403 126.303Z" fill="white"/>
<path d="M276.403 126.303C274.483 126.303 273.003 125.743 271.963 124.623C270.923 123.503 270.403 121.903 270.403 119.823V107.623H266.443V104.623H267.443C268.35 104.623 269.07 104.329 269.603 103.743C270.136 103.129 270.403 102.369 270.403 101.463V99.6627H273.403V104.623H278.123V107.623H273.403V119.823C273.403 120.543 273.51 121.183 273.723 121.743C273.936 122.276 274.296 122.703 274.803 123.023C275.336 123.343 276.043 123.503 276.923 123.503C277.136 123.503 277.39 123.489 277.683 123.463C277.976 123.436 278.23 123.409 278.443 123.383V126.063C278.123 126.143 277.763 126.196 277.363 126.223C276.963 126.276 276.643 126.303 276.403 126.303Z" fill="white"/>
<path d="M291.311 126.543C289.818 126.543 288.458 126.196 287.231 125.503C286.004 124.783 285.031 123.796 284.311 122.543C283.618 121.263 283.271 119.796 283.271 118.143V104.623H286.271V117.783C286.271 118.929 286.498 119.943 286.951 120.823C287.431 121.676 288.084 122.343 288.911 122.823C289.764 123.303 290.738 123.543 291.831 123.543C292.924 123.543 293.898 123.303 294.751 122.823C295.604 122.316 296.271 121.609 296.751 120.703C297.231 119.769 297.471 118.663 297.471 117.383V104.623H300.471V126.063H297.471V121.903L298.151 122.063C297.644 123.449 296.778 124.543 295.551 125.343C294.324 126.143 292.911 126.543 291.311 126.543Z" fill="white"/>
<path d="M291.311 126.543C289.818 126.543 288.458 126.196 287.231 125.503C286.004 124.783 285.031 123.796 284.311 122.543C283.618 121.263 283.271 119.796 283.271 118.143V104.623H286.271V117.783C286.271 118.929 286.498 119.943 286.951 120.823C287.431 121.676 288.084 122.343 288.911 122.823C289.764 123.303 290.738 123.543 291.831 123.543C292.924 123.543 293.898 123.303 294.751 122.823C295.604 122.316 296.271 121.609 296.751 120.703C297.231 119.769 297.471 118.663 297.471 117.383V104.623H300.471V126.063H297.471V121.903L298.151 122.063C297.644 123.449 296.778 124.543 295.551 125.343C294.324 126.143 292.911 126.543 291.311 126.543Z" fill="white"/>
<path d="M316.321 126.543C314.321 126.543 312.521 126.063 310.921 125.103C309.321 124.116 308.054 122.783 307.121 121.103C306.214 119.396 305.761 117.476 305.761 115.343C305.761 113.183 306.214 111.263 307.121 109.583C308.054 107.903 309.307 106.583 310.881 105.623C312.481 104.636 314.294 104.143 316.321 104.143C318.161 104.143 319.801 104.543 321.241 105.343C322.681 106.143 323.814 107.223 324.641 108.583L324.161 109.423V95.7827H327.161V126.063H324.161V121.263L324.641 121.703C323.894 123.249 322.774 124.449 321.281 125.303C319.814 126.129 318.161 126.543 316.321 126.543ZM316.481 123.543C317.921 123.543 319.214 123.183 320.361 122.463C321.534 121.743 322.454 120.769 323.121 119.543C323.814 118.289 324.161 116.889 324.161 115.343C324.161 113.796 323.814 112.409 323.121 111.183C322.454 109.929 321.534 108.943 320.361 108.223C319.214 107.503 317.921 107.143 316.481 107.143C315.067 107.143 313.787 107.503 312.641 108.223C311.494 108.943 310.587 109.916 309.921 111.143C309.281 112.369 308.961 113.769 308.961 115.343C308.961 116.889 309.281 118.289 309.921 119.543C310.587 120.769 311.481 121.743 312.601 122.463C313.747 123.183 315.041 123.543 316.481 123.543Z" fill="white"/>
<path d="M316.321 126.543C314.321 126.543 312.521 126.063 310.921 125.103C309.321 124.116 308.054 122.783 307.121 121.103C306.214 119.396 305.761 117.476 305.761 115.343C305.761 113.183 306.214 111.263 307.121 109.583C308.054 107.903 309.307 106.583 310.881 105.623C312.481 104.636 314.294 104.143 316.321 104.143C318.161 104.143 319.801 104.543 321.241 105.343C322.681 106.143 323.814 107.223 324.641 108.583L324.161 109.423V95.7827H327.161V126.063H324.161V121.263L324.641 121.703C323.894 123.249 322.774 124.449 321.281 125.303C319.814 126.129 318.161 126.543 316.321 126.543ZM316.481 123.543C317.921 123.543 319.214 123.183 320.361 122.463C321.534 121.743 322.454 120.769 323.121 119.543C323.814 118.289 324.161 116.889 324.161 115.343C324.161 113.796 323.814 112.409 323.121 111.183C322.454 109.929 321.534 108.943 320.361 108.223C319.214 107.503 317.921 107.143 316.481 107.143C315.067 107.143 313.787 107.503 312.641 108.223C311.494 108.943 310.587 109.916 309.921 111.143C309.281 112.369 308.961 113.769 308.961 115.343C308.961 116.889 309.281 118.289 309.921 119.543C310.587 120.769 311.481 121.743 312.601 122.463C313.747 123.183 315.041 123.543 316.481 123.543Z" fill="white"/>
<path d="M333.32 126.063V104.623H336.32V126.063H333.32ZM333.32 100.663V96.2627H336.32V100.663H333.32Z" fill="white"/>
<path d="M333.32 126.063V104.623H336.32V126.063H333.32ZM333.32 100.663V96.2627H336.32V100.663H333.32Z" fill="white"/>
<path d="M352.501 126.543C350.474 126.543 348.634 126.063 346.981 125.103C345.328 124.116 344.008 122.783 343.021 121.103C342.061 119.396 341.581 117.463 341.581 115.303C341.581 113.169 342.061 111.263 343.021 109.583C343.981 107.903 345.274 106.583 346.901 105.623C348.554 104.636 350.421 104.143 352.501 104.143C354.581 104.143 356.434 104.623 358.061 105.583C359.714 106.543 361.008 107.863 361.941 109.543C362.901 111.223 363.381 113.143 363.381 115.303C363.381 117.489 362.888 119.436 361.901 121.143C360.914 122.823 359.594 124.143 357.941 125.103C356.314 126.063 354.501 126.543 352.501 126.543ZM352.501 123.543C353.941 123.543 355.234 123.183 356.381 122.463C357.554 121.743 358.474 120.756 359.141 119.503C359.834 118.249 360.181 116.849 360.181 115.303C360.181 113.756 359.834 112.369 359.141 111.143C358.474 109.916 357.554 108.943 356.381 108.223C355.234 107.503 353.941 107.143 352.501 107.143C351.061 107.143 349.754 107.503 348.581 108.223C347.434 108.943 346.514 109.916 345.821 111.143C345.128 112.369 344.781 113.756 344.781 115.303C344.781 116.849 345.128 118.249 345.821 119.503C346.514 120.756 347.434 121.743 348.581 122.463C349.754 123.183 351.061 123.543 352.501 123.543Z" fill="white"/>
<path d="M352.501 126.543C350.474 126.543 348.634 126.063 346.981 125.103C345.328 124.116 344.008 122.783 343.021 121.103C342.061 119.396 341.581 117.463 341.581 115.303C341.581 113.169 342.061 111.263 343.021 109.583C343.981 107.903 345.274 106.583 346.901 105.623C348.554 104.636 350.421 104.143 352.501 104.143C354.581 104.143 356.434 104.623 358.061 105.583C359.714 106.543 361.008 107.863 361.941 109.543C362.901 111.223 363.381 113.143 363.381 115.303C363.381 117.489 362.888 119.436 361.901 121.143C360.914 122.823 359.594 124.143 357.941 125.103C356.314 126.063 354.501 126.543 352.501 126.543ZM352.501 123.543C353.941 123.543 355.234 123.183 356.381 122.463C357.554 121.743 358.474 120.756 359.141 119.503C359.834 118.249 360.181 116.849 360.181 115.303C360.181 113.756 359.834 112.369 359.141 111.143C358.474 109.916 357.554 108.943 356.381 108.223C355.234 107.503 353.941 107.143 352.501 107.143C351.061 107.143 349.754 107.503 348.581 108.223C347.434 108.943 346.514 109.916 345.821 111.143C345.128 112.369 344.781 113.756 344.781 115.303C344.781 116.849 345.128 118.249 345.821 119.503C346.514 120.756 347.434 121.743 348.581 122.463C349.754 123.183 351.061 123.543 352.501 123.543Z" fill="white"/>
<path d="M376.112 126.543C374.059 126.543 372.259 126.023 370.712 124.983C369.165 123.943 368.045 122.529 367.352 120.743L369.872 119.543C370.485 120.849 371.339 121.889 372.432 122.663C373.552 123.436 374.779 123.823 376.112 123.823C377.392 123.823 378.472 123.516 379.352 122.903C380.232 122.263 380.672 121.436 380.672 120.423C380.672 119.676 380.459 119.089 380.032 118.663C379.605 118.209 379.112 117.863 378.552 117.623C377.992 117.383 377.499 117.209 377.072 117.103L373.992 116.223C372.019 115.663 370.592 114.876 369.712 113.863C368.832 112.849 368.392 111.676 368.392 110.343C368.392 109.089 368.712 107.996 369.352 107.063C369.992 106.129 370.859 105.409 371.952 104.903C373.045 104.396 374.259 104.143 375.592 104.143C377.405 104.143 379.045 104.623 380.512 105.583C382.005 106.516 383.059 107.823 383.672 109.503L381.112 110.703C380.579 109.503 379.805 108.569 378.792 107.903C377.805 107.209 376.699 106.863 375.472 106.863C374.272 106.863 373.312 107.169 372.592 107.783C371.872 108.396 371.512 109.169 371.512 110.103C371.512 110.823 371.699 111.396 372.072 111.823C372.445 112.249 372.872 112.569 373.352 112.783C373.859 112.996 374.299 113.156 374.672 113.263L378.232 114.303C379.965 114.809 381.312 115.596 382.272 116.663C383.259 117.729 383.752 118.983 383.752 120.423C383.752 121.596 383.419 122.649 382.752 123.583C382.112 124.516 381.219 125.249 380.072 125.783C378.925 126.289 377.605 126.543 376.112 126.543Z" fill="white"/>
<path d="M376.112 126.543C374.059 126.543 372.259 126.023 370.712 124.983C369.165 123.943 368.045 122.529 367.352 120.743L369.872 119.543C370.485 120.849 371.339 121.889 372.432 122.663C373.552 123.436 374.779 123.823 376.112 123.823C377.392 123.823 378.472 123.516 379.352 122.903C380.232 122.263 380.672 121.436 380.672 120.423C380.672 119.676 380.459 119.089 380.032 118.663C379.605 118.209 379.112 117.863 378.552 117.623C377.992 117.383 377.499 117.209 377.072 117.103L373.992 116.223C372.019 115.663 370.592 114.876 369.712 113.863C368.832 112.849 368.392 111.676 368.392 110.343C368.392 109.089 368.712 107.996 369.352 107.063C369.992 106.129 370.859 105.409 371.952 104.903C373.045 104.396 374.259 104.143 375.592 104.143C377.405 104.143 379.045 104.623 380.512 105.583C382.005 106.516 383.059 107.823 383.672 109.503L381.112 110.703C380.579 109.503 379.805 108.569 378.792 107.903C377.805 107.209 376.699 106.863 375.472 106.863C374.272 106.863 373.312 107.169 372.592 107.783C371.872 108.396 371.512 109.169 371.512 110.103C371.512 110.823 371.699 111.396 372.072 111.823C372.445 112.249 372.872 112.569 373.352 112.783C373.859 112.996 374.299 113.156 374.672 113.263L378.232 114.303C379.965 114.809 381.312 115.596 382.272 116.663C383.259 117.729 383.752 118.983 383.752 120.423C383.752 121.596 383.419 122.649 382.752 123.583C382.112 124.516 381.219 125.249 380.072 125.783C378.925 126.289 377.605 126.543 376.112 126.543Z" fill="white"/>
<path d="M124.294 158.255C123.462 158.255 122.721 158.057 122.07 157.663C121.419 157.268 120.907 156.729 120.534 156.047C120.161 155.353 119.974 154.58 119.974 153.727C119.974 152.863 120.155 152.095 120.518 151.423C120.891 150.751 121.393 150.223 122.022 149.839C122.662 149.444 123.377 149.247 124.166 149.247C124.806 149.247 125.371 149.364 125.862 149.599C126.363 149.823 126.785 150.132 127.126 150.527C127.478 150.911 127.745 151.353 127.926 151.855C128.118 152.345 128.214 152.857 128.214 153.391C128.214 153.508 128.203 153.641 128.182 153.791C128.171 153.929 128.155 154.063 128.134 154.191H121.062V152.911H127.27L126.566 153.487C126.662 152.932 126.609 152.436 126.406 151.999C126.203 151.561 125.905 151.215 125.51 150.959C125.115 150.703 124.667 150.575 124.166 150.575C123.665 150.575 123.206 150.703 122.79 150.959C122.374 151.215 122.049 151.583 121.814 152.063C121.59 152.532 121.499 153.092 121.542 153.743C121.499 154.372 121.595 154.927 121.83 155.407C122.075 155.876 122.417 156.244 122.854 156.511C123.302 156.767 123.787 156.895 124.31 156.895C124.886 156.895 125.371 156.761 125.766 156.495C126.161 156.228 126.481 155.887 126.726 155.471L127.974 156.111C127.803 156.505 127.537 156.868 127.174 157.199C126.822 157.519 126.401 157.775 125.91 157.967C125.43 158.159 124.891 158.255 124.294 158.255Z" fill="white"/>
<path d="M124.294 158.255C123.462 158.255 122.721 158.057 122.07 157.663C121.419 157.268 120.907 156.729 120.534 156.047C120.161 155.353 119.974 154.58 119.974 153.727C119.974 152.863 120.155 152.095 120.518 151.423C120.891 150.751 121.393 150.223 122.022 149.839C122.662 149.444 123.377 149.247 124.166 149.247C124.806 149.247 125.371 149.364 125.862 149.599C126.363 149.823 126.785 150.132 127.126 150.527C127.478 150.911 127.745 151.353 127.926 151.855C128.118 152.345 128.214 152.857 128.214 153.391C128.214 153.508 128.203 153.641 128.182 153.791C128.171 153.929 128.155 154.063 128.134 154.191H121.062V152.911H127.27L126.566 153.487C126.662 152.932 126.609 152.436 126.406 151.999C126.203 151.561 125.905 151.215 125.51 150.959C125.115 150.703 124.667 150.575 124.166 150.575C123.665 150.575 123.206 150.703 122.79 150.959C122.374 151.215 122.049 151.583 121.814 152.063C121.59 152.532 121.499 153.092 121.542 153.743C121.499 154.372 121.595 154.927 121.83 155.407C122.075 155.876 122.417 156.244 122.854 156.511C123.302 156.767 123.787 156.895 124.31 156.895C124.886 156.895 125.371 156.761 125.766 156.495C126.161 156.228 126.481 155.887 126.726 155.471L127.974 156.111C127.803 156.505 127.537 156.868 127.174 157.199C126.822 157.519 126.401 157.775 125.91 157.967C125.43 158.159 124.891 158.255 124.294 158.255Z" fill="white"/>
<path d="M130.618 161.583C130.426 161.583 130.234 161.567 130.042 161.535C129.85 161.513 129.669 161.465 129.498 161.391V160.063C129.615 160.073 129.759 160.095 129.93 160.127C130.111 160.159 130.287 160.175 130.458 160.175C130.959 160.175 131.338 160.063 131.594 159.839C131.861 159.615 132.111 159.236 132.346 158.703L132.89 157.407L132.858 158.703L129.178 149.439H130.794L133.658 156.799H133.178L136.026 149.439H137.674L133.786 159.087C133.605 159.545 133.37 159.967 133.082 160.351C132.805 160.735 132.463 161.033 132.058 161.247C131.653 161.471 131.173 161.583 130.618 161.583Z" fill="white"/>
<path d="M130.618 161.583C130.426 161.583 130.234 161.567 130.042 161.535C129.85 161.513 129.669 161.465 129.498 161.391V160.063C129.615 160.073 129.759 160.095 129.93 160.127C130.111 160.159 130.287 160.175 130.458 160.175C130.959 160.175 131.338 160.063 131.594 159.839C131.861 159.615 132.111 159.236 132.346 158.703L132.89 157.407L132.858 158.703L129.178 149.439H130.794L133.658 156.799H133.178L136.026 149.439H137.674L133.786 159.087C133.605 159.545 133.37 159.967 133.082 160.351C132.805 160.735 132.463 161.033 132.058 161.247C131.653 161.471 131.173 161.583 130.618 161.583Z" fill="white"/>
<path d="M142.81 158.255C141.978 158.255 141.236 158.057 140.586 157.663C139.935 157.268 139.423 156.729 139.05 156.047C138.676 155.353 138.49 154.58 138.49 153.727C138.49 152.863 138.671 152.095 139.034 151.423C139.407 150.751 139.908 150.223 140.538 149.839C141.178 149.444 141.892 149.247 142.682 149.247C143.322 149.247 143.887 149.364 144.378 149.599C144.879 149.823 145.3 150.132 145.642 150.527C145.994 150.911 146.26 151.353 146.442 151.855C146.634 152.345 146.73 152.857 146.73 153.391C146.73 153.508 146.719 153.641 146.698 153.791C146.687 153.929 146.671 154.063 146.65 154.191H139.578V152.911H145.786L145.082 153.487C145.178 152.932 145.124 152.436 144.922 151.999C144.719 151.561 144.42 151.215 144.026 150.959C143.631 150.703 143.183 150.575 142.682 150.575C142.18 150.575 141.722 150.703 141.306 150.959C140.89 151.215 140.564 151.583 140.33 152.063C140.106 152.532 140.015 153.092 140.058 153.743C140.015 154.372 140.111 154.927 140.346 155.407C140.591 155.876 140.932 156.244 141.37 156.511C141.818 156.767 142.303 156.895 142.826 156.895C143.402 156.895 143.887 156.761 144.282 156.495C144.676 156.228 144.996 155.887 145.242 155.471L146.49 156.111C146.319 156.505 146.052 156.868 145.69 157.199C145.338 157.519 144.916 157.775 144.426 157.967C143.946 158.159 143.407 158.255 142.81 158.255Z" fill="white"/>
<path d="M142.81 158.255C141.978 158.255 141.236 158.057 140.586 157.663C139.935 157.268 139.423 156.729 139.05 156.047C138.676 155.353 138.49 154.58 138.49 153.727C138.49 152.863 138.671 152.095 139.034 151.423C139.407 150.751 139.908 150.223 140.538 149.839C141.178 149.444 141.892 149.247 142.682 149.247C143.322 149.247 143.887 149.364 144.378 149.599C144.879 149.823 145.3 150.132 145.642 150.527C145.994 150.911 146.26 151.353 146.442 151.855C146.634 152.345 146.73 152.857 146.73 153.391C146.73 153.508 146.719 153.641 146.698 153.791C146.687 153.929 146.671 154.063 146.65 154.191H139.578V152.911H145.786L145.082 153.487C145.178 152.932 145.124 152.436 144.922 151.999C144.719 151.561 144.42 151.215 144.026 150.959C143.631 150.703 143.183 150.575 142.682 150.575C142.18 150.575 141.722 150.703 141.306 150.959C140.89 151.215 140.564 151.583 140.33 152.063C140.106 152.532 140.015 153.092 140.058 153.743C140.015 154.372 140.111 154.927 140.346 155.407C140.591 155.876 140.932 156.244 141.37 156.511C141.818 156.767 142.303 156.895 142.826 156.895C143.402 156.895 143.887 156.761 144.282 156.495C144.676 156.228 144.996 155.887 145.242 155.471L146.49 156.111C146.319 156.505 146.052 156.868 145.69 157.199C145.338 157.519 144.916 157.775 144.426 157.967C143.946 158.159 143.407 158.255 142.81 158.255Z" fill="white"/>
<path d="M148.67 158.063V145.951H150.158V158.063H148.67Z" fill="white"/>
<path d="M148.67 158.063V145.951H150.158V158.063H148.67Z" fill="white"/>
<path d="M154.995 158.255C154.429 158.255 153.928 158.153 153.491 157.951C153.064 157.737 152.728 157.449 152.483 157.087C152.237 156.713 152.115 156.287 152.115 155.807C152.115 155.348 152.211 154.937 152.403 154.575C152.605 154.201 152.915 153.887 153.331 153.631C153.757 153.375 154.291 153.193 154.931 153.087L158.131 152.559V153.807L155.267 154.287C154.712 154.383 154.307 154.559 154.051 154.815C153.805 155.071 153.683 155.385 153.683 155.759C153.683 156.111 153.821 156.404 154.099 156.639C154.387 156.873 154.744 156.991 155.171 156.991C155.715 156.991 156.184 156.879 156.579 156.655C156.984 156.42 157.299 156.105 157.523 155.711C157.757 155.316 157.875 154.879 157.875 154.399V152.207C157.875 151.737 157.699 151.359 157.347 151.071C157.005 150.772 156.552 150.623 155.987 150.623C155.496 150.623 155.059 150.751 154.675 151.007C154.301 151.252 154.024 151.583 153.843 151.999L152.547 151.327C152.707 150.932 152.963 150.58 153.315 150.271C153.667 149.951 154.077 149.7 154.547 149.519C155.016 149.337 155.507 149.247 156.019 149.247C156.68 149.247 157.261 149.375 157.763 149.631C158.264 149.876 158.653 150.223 158.931 150.671C159.219 151.108 159.363 151.62 159.363 152.207V158.063H157.907V156.431L158.179 156.527C157.997 156.868 157.752 157.167 157.443 157.423C157.133 157.679 156.771 157.881 156.355 158.031C155.939 158.18 155.485 158.255 154.995 158.255Z" fill="white"/>
<path d="M154.995 158.255C154.429 158.255 153.928 158.153 153.491 157.951C153.064 157.737 152.728 157.449 152.483 157.087C152.237 156.713 152.115 156.287 152.115 155.807C152.115 155.348 152.211 154.937 152.403 154.575C152.605 154.201 152.915 153.887 153.331 153.631C153.757 153.375 154.291 153.193 154.931 153.087L158.131 152.559V153.807L155.267 154.287C154.712 154.383 154.307 154.559 154.051 154.815C153.805 155.071 153.683 155.385 153.683 155.759C153.683 156.111 153.821 156.404 154.099 156.639C154.387 156.873 154.744 156.991 155.171 156.991C155.715 156.991 156.184 156.879 156.579 156.655C156.984 156.42 157.299 156.105 157.523 155.711C157.757 155.316 157.875 154.879 157.875 154.399V152.207C157.875 151.737 157.699 151.359 157.347 151.071C157.005 150.772 156.552 150.623 155.987 150.623C155.496 150.623 155.059 150.751 154.675 151.007C154.301 151.252 154.024 151.583 153.843 151.999L152.547 151.327C152.707 150.932 152.963 150.58 153.315 150.271C153.667 149.951 154.077 149.7 154.547 149.519C155.016 149.337 155.507 149.247 156.019 149.247C156.68 149.247 157.261 149.375 157.763 149.631C158.264 149.876 158.653 150.223 158.931 150.671C159.219 151.108 159.363 151.62 159.363 152.207V158.063H157.907V156.431L158.179 156.527C157.997 156.868 157.752 157.167 157.443 157.423C157.133 157.679 156.771 157.881 156.355 158.031C155.939 158.18 155.485 158.255 154.995 158.255Z" fill="white"/>
<path d="M164.758 158.255C163.894 158.255 163.142 158.041 162.502 157.615C161.862 157.188 161.408 156.612 161.142 155.887L162.326 155.311C162.571 155.823 162.907 156.228 163.334 156.527C163.76 156.825 164.235 156.975 164.758 156.975C165.227 156.975 165.616 156.863 165.926 156.639C166.235 156.415 166.39 156.121 166.39 155.759C166.39 155.503 166.315 155.3 166.166 155.151C166.027 154.991 165.856 154.868 165.654 154.783C165.451 154.687 165.264 154.617 165.094 154.575L163.798 154.207C163.019 153.983 162.448 153.663 162.086 153.247C161.734 152.831 161.558 152.345 161.558 151.791C161.558 151.279 161.686 150.836 161.942 150.463C162.208 150.079 162.566 149.78 163.014 149.567C163.472 149.353 163.984 149.247 164.55 149.247C165.307 149.247 165.984 149.439 166.582 149.823C167.19 150.207 167.622 150.745 167.878 151.439L166.662 151.999C166.47 151.551 166.182 151.199 165.798 150.943C165.414 150.676 164.982 150.543 164.502 150.543C164.064 150.543 163.718 150.655 163.462 150.879C163.206 151.092 163.078 151.364 163.078 151.695C163.078 151.94 163.142 152.143 163.27 152.303C163.398 152.452 163.552 152.569 163.734 152.655C163.915 152.729 164.091 152.793 164.262 152.847L165.67 153.263C166.374 153.465 166.918 153.78 167.302 154.207C167.696 154.633 167.894 155.145 167.894 155.743C167.894 156.223 167.76 156.655 167.494 157.039C167.227 157.423 166.859 157.721 166.39 157.935C165.92 158.148 165.376 158.255 164.758 158.255Z" fill="white"/>
<path d="M164.758 158.255C163.894 158.255 163.142 158.041 162.502 157.615C161.862 157.188 161.408 156.612 161.142 155.887L162.326 155.311C162.571 155.823 162.907 156.228 163.334 156.527C163.76 156.825 164.235 156.975 164.758 156.975C165.227 156.975 165.616 156.863 165.926 156.639C166.235 156.415 166.39 156.121 166.39 155.759C166.39 155.503 166.315 155.3 166.166 155.151C166.027 154.991 165.856 154.868 165.654 154.783C165.451 154.687 165.264 154.617 165.094 154.575L163.798 154.207C163.019 153.983 162.448 153.663 162.086 153.247C161.734 152.831 161.558 152.345 161.558 151.791C161.558 151.279 161.686 150.836 161.942 150.463C162.208 150.079 162.566 149.78 163.014 149.567C163.472 149.353 163.984 149.247 164.55 149.247C165.307 149.247 165.984 149.439 166.582 149.823C167.19 150.207 167.622 150.745 167.878 151.439L166.662 151.999C166.47 151.551 166.182 151.199 165.798 150.943C165.414 150.676 164.982 150.543 164.502 150.543C164.064 150.543 163.718 150.655 163.462 150.879C163.206 151.092 163.078 151.364 163.078 151.695C163.078 151.94 163.142 152.143 163.27 152.303C163.398 152.452 163.552 152.569 163.734 152.655C163.915 152.729 164.091 152.793 164.262 152.847L165.67 153.263C166.374 153.465 166.918 153.78 167.302 154.207C167.696 154.633 167.894 155.145 167.894 155.743C167.894 156.223 167.76 156.655 167.494 157.039C167.227 157.423 166.859 157.721 166.39 157.935C165.92 158.148 165.376 158.255 164.758 158.255Z" fill="white"/>
<path d="M169.842 158.063V145.951H171.33V151.119L171.058 150.975C171.271 150.431 171.612 150.009 172.082 149.711C172.562 149.401 173.122 149.247 173.762 149.247C174.38 149.247 174.93 149.385 175.41 149.663C175.9 149.94 176.284 150.324 176.562 150.815C176.85 151.305 176.994 151.86 176.994 152.479V158.063H175.49V152.959C175.49 152.479 175.399 152.073 175.218 151.743C175.047 151.412 174.807 151.156 174.498 150.975C174.188 150.783 173.831 150.687 173.426 150.687C173.031 150.687 172.674 150.783 172.354 150.975C172.034 151.156 171.783 151.417 171.602 151.759C171.42 152.089 171.33 152.489 171.33 152.959V158.063H169.842Z" fill="white"/>
<path d="M169.842 158.063V145.951H171.33V151.119L171.058 150.975C171.271 150.431 171.612 150.009 172.082 149.711C172.562 149.401 173.122 149.247 173.762 149.247C174.38 149.247 174.93 149.385 175.41 149.663C175.9 149.94 176.284 150.324 176.562 150.815C176.85 151.305 176.994 151.86 176.994 152.479V158.063H175.49V152.959C175.49 152.479 175.399 152.073 175.218 151.743C175.047 151.412 174.807 151.156 174.498 150.975C174.188 150.783 173.831 150.687 173.426 150.687C173.031 150.687 172.674 150.783 172.354 150.975C172.034 151.156 171.783 151.417 171.602 151.759C171.42 152.089 171.33 152.489 171.33 152.959V158.063H169.842Z" fill="white"/>
<path d="M185.856 158.255C185.024 158.255 184.283 158.057 183.632 157.663C182.982 157.268 182.47 156.729 182.096 156.047C181.723 155.353 181.536 154.58 181.536 153.727C181.536 152.863 181.718 152.095 182.08 151.423C182.454 150.751 182.955 150.223 183.584 149.839C184.224 149.444 184.939 149.247 185.728 149.247C186.368 149.247 186.934 149.364 187.424 149.599C187.926 149.823 188.347 150.132 188.688 150.527C189.04 150.911 189.307 151.353 189.488 151.855C189.68 152.345 189.776 152.857 189.776 153.391C189.776 153.508 189.766 153.641 189.744 153.791C189.734 153.929 189.718 154.063 189.696 154.191H182.624V152.911H188.832L188.128 153.487C188.224 152.932 188.171 152.436 187.968 151.999C187.766 151.561 187.467 151.215 187.072 150.959C186.678 150.703 186.23 150.575 185.728 150.575C185.227 150.575 184.768 150.703 184.352 150.959C183.936 151.215 183.611 151.583 183.376 152.063C183.152 152.532 183.062 153.092 183.104 153.743C183.062 154.372 183.158 154.927 183.392 155.407C183.638 155.876 183.979 156.244 184.416 156.511C184.864 156.767 185.35 156.895 185.872 156.895C186.448 156.895 186.934 156.761 187.328 156.495C187.723 156.228 188.043 155.887 188.288 155.471L189.536 156.111C189.366 156.505 189.099 156.868 188.736 157.199C188.384 157.519 187.963 157.775 187.472 157.967C186.992 158.159 186.454 158.255 185.856 158.255Z" fill="white"/>
<path d="M185.856 158.255C185.024 158.255 184.283 158.057 183.632 157.663C182.982 157.268 182.47 156.729 182.096 156.047C181.723 155.353 181.536 154.58 181.536 153.727C181.536 152.863 181.718 152.095 182.08 151.423C182.454 150.751 182.955 150.223 183.584 149.839C184.224 149.444 184.939 149.247 185.728 149.247C186.368 149.247 186.934 149.364 187.424 149.599C187.926 149.823 188.347 150.132 188.688 150.527C189.04 150.911 189.307 151.353 189.488 151.855C189.68 152.345 189.776 152.857 189.776 153.391C189.776 153.508 189.766 153.641 189.744 153.791C189.734 153.929 189.718 154.063 189.696 154.191H182.624V152.911H188.832L188.128 153.487C188.224 152.932 188.171 152.436 187.968 151.999C187.766 151.561 187.467 151.215 187.072 150.959C186.678 150.703 186.23 150.575 185.728 150.575C185.227 150.575 184.768 150.703 184.352 150.959C183.936 151.215 183.611 151.583 183.376 152.063C183.152 152.532 183.062 153.092 183.104 153.743C183.062 154.372 183.158 154.927 183.392 155.407C183.638 155.876 183.979 156.244 184.416 156.511C184.864 156.767 185.35 156.895 185.872 156.895C186.448 156.895 186.934 156.761 187.328 156.495C187.723 156.228 188.043 155.887 188.288 155.471L189.536 156.111C189.366 156.505 189.099 156.868 188.736 157.199C188.384 157.519 187.963 157.775 187.472 157.967C186.992 158.159 186.454 158.255 185.856 158.255Z" fill="white"/>
<path d="M190.584 158.063L193.608 153.743L190.6 149.439H192.392L194.968 153.183H194.056L196.6 149.439H198.408L195.4 153.743L198.392 158.063H196.6L194.056 154.319H194.952L192.408 158.063H190.584Z" fill="white"/>
<path d="M190.584 158.063L193.608 153.743L190.6 149.439H192.392L194.968 153.183H194.056L196.6 149.439H198.408L195.4 153.743L198.392 158.063H196.6L194.056 154.319H194.952L192.408 158.063H190.584Z" fill="white"/>
<path d="M203.236 158.159C202.393 158.159 201.743 157.919 201.284 157.439C200.836 156.959 200.612 156.281 200.612 155.407V150.863H199.044V149.439H199.364C199.748 149.439 200.052 149.321 200.276 149.087C200.5 148.852 200.612 148.543 200.612 148.159V147.455H202.1V149.439H204.036V150.863H202.1V155.359C202.1 155.647 202.143 155.897 202.228 156.111C202.324 156.324 202.479 156.495 202.692 156.623C202.905 156.74 203.188 156.799 203.54 156.799C203.615 156.799 203.705 156.793 203.812 156.783C203.929 156.772 204.036 156.761 204.132 156.751V158.063C203.993 158.095 203.839 158.116 203.668 158.127C203.497 158.148 203.354 158.159 203.236 158.159Z" fill="white"/>
<path d="M203.236 158.159C202.393 158.159 201.743 157.919 201.284 157.439C200.836 156.959 200.612 156.281 200.612 155.407V150.863H199.044V149.439H199.364C199.748 149.439 200.052 149.321 200.276 149.087C200.5 148.852 200.612 148.543 200.612 148.159V147.455H202.1V149.439H204.036V150.863H202.1V155.359C202.1 155.647 202.143 155.897 202.228 156.111C202.324 156.324 202.479 156.495 202.692 156.623C202.905 156.74 203.188 156.799 203.54 156.799C203.615 156.799 203.705 156.793 203.812 156.783C203.929 156.772 204.036 156.761 204.132 156.751V158.063C203.993 158.095 203.839 158.116 203.668 158.127C203.497 158.148 203.354 158.159 203.236 158.159Z" fill="white"/>
<path d="M209.81 158.255C208.978 158.255 208.236 158.057 207.586 157.663C206.935 157.268 206.423 156.729 206.05 156.047C205.676 155.353 205.49 154.58 205.49 153.727C205.49 152.863 205.671 152.095 206.034 151.423C206.407 150.751 206.908 150.223 207.538 149.839C208.178 149.444 208.892 149.247 209.682 149.247C210.322 149.247 210.887 149.364 211.378 149.599C211.879 149.823 212.3 150.132 212.642 150.527C212.994 150.911 213.26 151.353 213.442 151.855C213.634 152.345 213.73 152.857 213.73 153.391C213.73 153.508 213.719 153.641 213.698 153.791C213.687 153.929 213.671 154.063 213.65 154.191H206.578V152.911H212.786L212.082 153.487C212.178 152.932 212.124 152.436 211.922 151.999C211.719 151.561 211.42 151.215 211.026 150.959C210.631 150.703 210.183 150.575 209.682 150.575C209.18 150.575 208.722 150.703 208.306 150.959C207.89 151.215 207.564 151.583 207.33 152.063C207.106 152.532 207.015 153.092 207.058 153.743C207.015 154.372 207.111 154.927 207.346 155.407C207.591 155.876 207.932 156.244 208.37 156.511C208.818 156.767 209.303 156.895 209.826 156.895C210.402 156.895 210.887 156.761 211.282 156.495C211.676 156.228 211.996 155.887 212.242 155.471L213.49 156.111C213.319 156.505 213.052 156.868 212.69 157.199C212.338 157.519 211.916 157.775 211.426 157.967C210.946 158.159 210.407 158.255 209.81 158.255Z" fill="white"/>
<path d="M209.81 158.255C208.978 158.255 208.236 158.057 207.586 157.663C206.935 157.268 206.423 156.729 206.05 156.047C205.676 155.353 205.49 154.58 205.49 153.727C205.49 152.863 205.671 152.095 206.034 151.423C206.407 150.751 206.908 150.223 207.538 149.839C208.178 149.444 208.892 149.247 209.682 149.247C210.322 149.247 210.887 149.364 211.378 149.599C211.879 149.823 212.3 150.132 212.642 150.527C212.994 150.911 213.26 151.353 213.442 151.855C213.634 152.345 213.73 152.857 213.73 153.391C213.73 153.508 213.719 153.641 213.698 153.791C213.687 153.929 213.671 154.063 213.65 154.191H206.578V152.911H212.786L212.082 153.487C212.178 152.932 212.124 152.436 211.922 151.999C211.719 151.561 211.42 151.215 211.026 150.959C210.631 150.703 210.183 150.575 209.682 150.575C209.18 150.575 208.722 150.703 208.306 150.959C207.89 151.215 207.564 151.583 207.33 152.063C207.106 152.532 207.015 153.092 207.058 153.743C207.015 154.372 207.111 154.927 207.346 155.407C207.591 155.876 207.932 156.244 208.37 156.511C208.818 156.767 209.303 156.895 209.826 156.895C210.402 156.895 210.887 156.761 211.282 156.495C211.676 156.228 211.996 155.887 212.242 155.471L213.49 156.111C213.319 156.505 213.052 156.868 212.69 157.199C212.338 157.519 211.916 157.775 211.426 157.967C210.946 158.159 210.407 158.255 209.81 158.255Z" fill="white"/>
<path d="M215.67 158.063V149.439H217.126V151.119L216.886 150.975C217.099 150.431 217.44 150.009 217.91 149.711C218.39 149.401 218.95 149.247 219.59 149.247C220.208 149.247 220.758 149.385 221.238 149.663C221.728 149.94 222.112 150.324 222.39 150.815C222.678 151.305 222.822 151.86 222.822 152.479V158.063H221.318V152.959C221.318 152.479 221.232 152.073 221.062 151.743C220.891 151.412 220.646 151.156 220.326 150.975C220.016 150.783 219.659 150.687 219.254 150.687C218.848 150.687 218.486 150.783 218.166 150.975C217.856 151.156 217.611 151.417 217.43 151.759C217.248 152.089 217.158 152.489 217.158 152.959V158.063H215.67Z" fill="white"/>
<path d="M215.67 158.063V149.439H217.126V151.119L216.886 150.975C217.099 150.431 217.44 150.009 217.91 149.711C218.39 149.401 218.95 149.247 219.59 149.247C220.208 149.247 220.758 149.385 221.238 149.663C221.728 149.94 222.112 150.324 222.39 150.815C222.678 151.305 222.822 151.86 222.822 152.479V158.063H221.318V152.959C221.318 152.479 221.232 152.073 221.062 151.743C220.891 151.412 220.646 151.156 220.326 150.975C220.016 150.783 219.659 150.687 219.254 150.687C218.848 150.687 218.486 150.783 218.166 150.975C217.856 151.156 217.611 151.417 217.43 151.759C217.248 152.089 217.158 152.489 217.158 152.959V158.063H215.67Z" fill="white"/>
<path d="M228.039 158.255C227.175 158.255 226.423 158.041 225.783 157.615C225.143 157.188 224.69 156.612 224.423 155.887L225.607 155.311C225.852 155.823 226.188 156.228 226.615 156.527C227.042 156.825 227.516 156.975 228.039 156.975C228.508 156.975 228.898 156.863 229.207 156.639C229.516 156.415 229.671 156.121 229.671 155.759C229.671 155.503 229.596 155.3 229.447 155.151C229.308 154.991 229.138 154.868 228.935 154.783C228.732 154.687 228.546 154.617 228.375 154.575L227.079 154.207C226.3 153.983 225.73 153.663 225.367 153.247C225.015 152.831 224.839 152.345 224.839 151.791C224.839 151.279 224.967 150.836 225.223 150.463C225.49 150.079 225.847 149.78 226.295 149.567C226.754 149.353 227.266 149.247 227.831 149.247C228.588 149.247 229.266 149.439 229.863 149.823C230.471 150.207 230.903 150.745 231.159 151.439L229.943 151.999C229.751 151.551 229.463 151.199 229.079 150.943C228.695 150.676 228.263 150.543 227.783 150.543C227.346 150.543 226.999 150.655 226.743 150.879C226.487 151.092 226.359 151.364 226.359 151.695C226.359 151.94 226.423 152.143 226.551 152.303C226.679 152.452 226.834 152.569 227.015 152.655C227.196 152.729 227.372 152.793 227.543 152.847L228.951 153.263C229.655 153.465 230.199 153.78 230.583 154.207C230.978 154.633 231.175 155.145 231.175 155.743C231.175 156.223 231.042 156.655 230.775 157.039C230.508 157.423 230.14 157.721 229.671 157.935C229.202 158.148 228.658 158.255 228.039 158.255Z" fill="white"/>
<path d="M228.039 158.255C227.175 158.255 226.423 158.041 225.783 157.615C225.143 157.188 224.69 156.612 224.423 155.887L225.607 155.311C225.852 155.823 226.188 156.228 226.615 156.527C227.042 156.825 227.516 156.975 228.039 156.975C228.508 156.975 228.898 156.863 229.207 156.639C229.516 156.415 229.671 156.121 229.671 155.759C229.671 155.503 229.596 155.3 229.447 155.151C229.308 154.991 229.138 154.868 228.935 154.783C228.732 154.687 228.546 154.617 228.375 154.575L227.079 154.207C226.3 153.983 225.73 153.663 225.367 153.247C225.015 152.831 224.839 152.345 224.839 151.791C224.839 151.279 224.967 150.836 225.223 150.463C225.49 150.079 225.847 149.78 226.295 149.567C226.754 149.353 227.266 149.247 227.831 149.247C228.588 149.247 229.266 149.439 229.863 149.823C230.471 150.207 230.903 150.745 231.159 151.439L229.943 151.999C229.751 151.551 229.463 151.199 229.079 150.943C228.695 150.676 228.263 150.543 227.783 150.543C227.346 150.543 226.999 150.655 226.743 150.879C226.487 151.092 226.359 151.364 226.359 151.695C226.359 151.94 226.423 152.143 226.551 152.303C226.679 152.452 226.834 152.569 227.015 152.655C227.196 152.729 227.372 152.793 227.543 152.847L228.951 153.263C229.655 153.465 230.199 153.78 230.583 154.207C230.978 154.633 231.175 155.145 231.175 155.743C231.175 156.223 231.042 156.655 230.775 157.039C230.508 157.423 230.14 157.721 229.671 157.935C229.202 158.148 228.658 158.255 228.039 158.255Z" fill="white"/>
<path d="M233.123 158.063V149.439H234.611V158.063H233.123ZM233.123 148.063V146.143H234.611V148.063H233.123Z" fill="white"/>
<path d="M233.123 158.063V149.439H234.611V158.063H233.123ZM233.123 148.063V146.143H234.611V148.063H233.123Z" fill="white"/>
<path d="M241.016 158.255C240.184 158.255 239.432 158.063 238.76 157.679C238.088 157.284 237.554 156.745 237.16 156.063C236.765 155.38 236.568 154.607 236.568 153.743C236.568 152.879 236.76 152.111 237.144 151.439C237.538 150.767 238.072 150.233 238.744 149.839C239.416 149.444 240.173 149.247 241.016 149.247C241.848 149.247 242.6 149.444 243.272 149.839C243.944 150.223 244.472 150.751 244.856 151.423C245.25 152.095 245.448 152.868 245.448 153.743C245.448 154.617 245.245 155.396 244.84 156.079C244.434 156.751 243.896 157.284 243.224 157.679C242.562 158.063 241.826 158.255 241.016 158.255ZM241.016 156.815C241.549 156.815 242.029 156.681 242.456 156.415C242.893 156.148 243.234 155.78 243.48 155.311C243.736 154.841 243.864 154.319 243.864 153.743C243.864 153.156 243.736 152.639 243.48 152.191C243.234 151.732 242.893 151.369 242.456 151.103C242.029 150.825 241.549 150.687 241.016 150.687C240.472 150.687 239.981 150.825 239.544 151.103C239.117 151.369 238.776 151.732 238.52 152.191C238.264 152.639 238.136 153.156 238.136 153.743C238.136 154.319 238.264 154.841 238.52 155.311C238.776 155.78 239.117 156.148 239.544 156.415C239.981 156.681 240.472 156.815 241.016 156.815Z" fill="white"/>
<path d="M241.016 158.255C240.184 158.255 239.432 158.063 238.76 157.679C238.088 157.284 237.554 156.745 237.16 156.063C236.765 155.38 236.568 154.607 236.568 153.743C236.568 152.879 236.76 152.111 237.144 151.439C237.538 150.767 238.072 150.233 238.744 149.839C239.416 149.444 240.173 149.247 241.016 149.247C241.848 149.247 242.6 149.444 243.272 149.839C243.944 150.223 244.472 150.751 244.856 151.423C245.25 152.095 245.448 152.868 245.448 153.743C245.448 154.617 245.245 155.396 244.84 156.079C244.434 156.751 243.896 157.284 243.224 157.679C242.562 158.063 241.826 158.255 241.016 158.255ZM241.016 156.815C241.549 156.815 242.029 156.681 242.456 156.415C242.893 156.148 243.234 155.78 243.48 155.311C243.736 154.841 243.864 154.319 243.864 153.743C243.864 153.156 243.736 152.639 243.48 152.191C243.234 151.732 242.893 151.369 242.456 151.103C242.029 150.825 241.549 150.687 241.016 150.687C240.472 150.687 239.981 150.825 239.544 151.103C239.117 151.369 238.776 151.732 238.52 152.191C238.264 152.639 238.136 153.156 238.136 153.743C238.136 154.319 238.264 154.841 238.52 155.311C238.776 155.78 239.117 156.148 239.544 156.415C239.981 156.681 240.472 156.815 241.016 156.815Z" fill="white"/>
<path d="M247.388 158.063V149.439H248.844V151.119L248.604 150.975C248.818 150.431 249.159 150.009 249.628 149.711C250.108 149.401 250.668 149.247 251.308 149.247C251.927 149.247 252.476 149.385 252.956 149.663C253.447 149.94 253.831 150.324 254.108 150.815C254.396 151.305 254.54 151.86 254.54 152.479V158.063H253.036V152.959C253.036 152.479 252.951 152.073 252.78 151.743C252.61 151.412 252.364 151.156 252.044 150.975C251.735 150.783 251.378 150.687 250.972 150.687C250.567 150.687 250.204 150.783 249.884 150.975C249.575 151.156 249.33 151.417 249.148 151.759C248.967 152.089 248.876 152.489 248.876 152.959V158.063H247.388Z" fill="white"/>
<path d="M247.388 158.063V149.439H248.844V151.119L248.604 150.975C248.818 150.431 249.159 150.009 249.628 149.711C250.108 149.401 250.668 149.247 251.308 149.247C251.927 149.247 252.476 149.385 252.956 149.663C253.447 149.94 253.831 150.324 254.108 150.815C254.396 151.305 254.54 151.86 254.54 152.479V158.063H253.036V152.959C253.036 152.479 252.951 152.073 252.78 151.743C252.61 151.412 252.364 151.156 252.044 150.975C251.735 150.783 251.378 150.687 250.972 150.687C250.567 150.687 250.204 150.783 249.884 150.975C249.575 151.156 249.33 151.417 249.148 151.759C248.967 152.089 248.876 152.489 248.876 152.959V158.063H247.388Z" fill="white"/>
<path d="M259.758 158.255C258.894 158.255 258.142 158.041 257.502 157.615C256.862 157.188 256.408 156.612 256.142 155.887L257.326 155.311C257.571 155.823 257.907 156.228 258.334 156.527C258.76 156.825 259.235 156.975 259.758 156.975C260.227 156.975 260.616 156.863 260.926 156.639C261.235 156.415 261.39 156.121 261.39 155.759C261.39 155.503 261.315 155.3 261.166 155.151C261.027 154.991 260.856 154.868 260.654 154.783C260.451 154.687 260.264 154.617 260.094 154.575L258.798 154.207C258.019 153.983 257.448 153.663 257.086 153.247C256.734 152.831 256.558 152.345 256.558 151.791C256.558 151.279 256.686 150.836 256.942 150.463C257.208 150.079 257.566 149.78 258.014 149.567C258.472 149.353 258.984 149.247 259.55 149.247C260.307 149.247 260.984 149.439 261.582 149.823C262.19 150.207 262.622 150.745 262.878 151.439L261.662 151.999C261.47 151.551 261.182 151.199 260.798 150.943C260.414 150.676 259.982 150.543 259.502 150.543C259.064 150.543 258.718 150.655 258.462 150.879C258.206 151.092 258.078 151.364 258.078 151.695C258.078 151.94 258.142 152.143 258.27 152.303C258.398 152.452 258.552 152.569 258.734 152.655C258.915 152.729 259.091 152.793 259.262 152.847L260.67 153.263C261.374 153.465 261.918 153.78 262.302 154.207C262.696 154.633 262.894 155.145 262.894 155.743C262.894 156.223 262.76 156.655 262.494 157.039C262.227 157.423 261.859 157.721 261.39 157.935C260.92 158.148 260.376 158.255 259.758 158.255Z" fill="white"/>
<path d="M259.758 158.255C258.894 158.255 258.142 158.041 257.502 157.615C256.862 157.188 256.408 156.612 256.142 155.887L257.326 155.311C257.571 155.823 257.907 156.228 258.334 156.527C258.76 156.825 259.235 156.975 259.758 156.975C260.227 156.975 260.616 156.863 260.926 156.639C261.235 156.415 261.39 156.121 261.39 155.759C261.39 155.503 261.315 155.3 261.166 155.151C261.027 154.991 260.856 154.868 260.654 154.783C260.451 154.687 260.264 154.617 260.094 154.575L258.798 154.207C258.019 153.983 257.448 153.663 257.086 153.247C256.734 152.831 256.558 152.345 256.558 151.791C256.558 151.279 256.686 150.836 256.942 150.463C257.208 150.079 257.566 149.78 258.014 149.567C258.472 149.353 258.984 149.247 259.55 149.247C260.307 149.247 260.984 149.439 261.582 149.823C262.19 150.207 262.622 150.745 262.878 151.439L261.662 151.999C261.47 151.551 261.182 151.199 260.798 150.943C260.414 150.676 259.982 150.543 259.502 150.543C259.064 150.543 258.718 150.655 258.462 150.879C258.206 151.092 258.078 151.364 258.078 151.695C258.078 151.94 258.142 152.143 258.27 152.303C258.398 152.452 258.552 152.569 258.734 152.655C258.915 152.729 259.091 152.793 259.262 152.847L260.67 153.263C261.374 153.465 261.918 153.78 262.302 154.207C262.696 154.633 262.894 155.145 262.894 155.743C262.894 156.223 262.76 156.655 262.494 157.039C262.227 157.423 261.859 157.721 261.39 157.935C260.92 158.148 260.376 158.255 259.758 158.255Z" fill="white"/>
<path d="M79.1778 83.0644H74.9317C114.432 -26.9373 266.432 -28.4365 306.932 83.0644H302.689C260.932 -22.9366 119.432 -20.9366 79.1778 83.0644Z" fill="white"/>
<path d="M79.1778 83.0644H74.9317C114.432 -26.9373 266.432 -28.4365 306.932 83.0644H302.689C260.932 -22.9366 119.432 -20.9366 79.1778 83.0644Z" fill="white"/>
<path d="M303.186 163.063H307.432C267.932 273.064 115.932 274.564 75.4317 163.063H79.6747C121.432 269.064 262.932 267.064 303.186 163.063Z" fill="white"/>
<path d="M303.186 163.063H307.432C267.932 273.064 115.932 274.564 75.4317 163.063H79.6747C121.432 269.064 262.932 267.064 303.186 163.063Z" fill="white"/>
</svg>
