<svg width="450" height="500" viewBox="0 0 450 500" fill="none" xmlns="http://www.w3.org/2000/svg">
<path d="M225 151C190.813 151 163 178.757 163 212.875H187.8C187.8 192.407 204.49 175.75 225 175.75C245.51 175.75 262.2 192.407 262.2 212.875C262.2 226.104 256.57 231.004 243.836 240.781C239.099 244.419 233.754 248.527 228.633 253.626C212.364 269.85 212.538 285.85 212.6 287.125V311.875H237.4V287.014C237.4 286.717 237.685 279.576 246.167 271.124C250.135 267.164 254.624 263.724 258.951 260.395C272.095 250.297 287 238.862 287 212.875C287 178.757 259.187 151 225 151ZM212.6 324.25H237.4V349H212.6V324.25Z" fill="#DDDDDD"/>
</svg>
