<?xml version="1.0" encoding="UTF-8"?><svg id="Layer_1" xmlns="http://www.w3.org/2000/svg" viewBox="0 0 177.87 178.23"><defs><style>.cls-1{fill:#f7f7f7;}</style></defs><path class="cls-1" d="M9.42,84.1H.19l.06-.87C3.25,36.56,42.24,0,89.03,0s85.78,36.56,88.78,83.23l.06,.87h-9.24l-.06-.76c-2.92-41.57-37.86-74.12-79.54-74.12S12.4,41.77,9.48,83.34l-.06,.76Z"/><path class="cls-1" d="M10.21,130.79H167.64l-.67,1.21c-1.46,2.67-3.13,5.36-4.97,7.99l-.25,.35H16.09l-.24-.35c-1.84-2.63-3.51-5.32-4.98-7.99l-.66-1.21Z"/><path class="cls-1" d="M49.49,169.11h78.86l-3.56,1.57c-11.35,5.01-23.42,7.55-35.88,7.55s-24.51-2.54-35.87-7.55l-3.56-1.57Z"/><path class="cls-1" d="M2.8,111.63H175.05l-.28,1.03c-.75,2.73-1.62,5.42-2.58,7.99l-.2,.53H5.85l-.2-.53c-.98-2.57-1.84-5.26-2.58-7.99l-.28-1.03Z"/><path class="cls-1" d="M23.86,149.95H153.99l-1.35,1.39c-2.76,2.83-5.76,5.52-8.92,7.99l-.22,.18H34.35l-.22-.18c-3.16-2.47-6.16-5.16-8.92-7.99l-1.35-1.39Z"/><path class="cls-1" d="M0,92.47H177.85l-.04,.85c-.11,2.57-.36,5.26-.74,7.99l-.09,.71H.87l-.1-.71c-.37-2.73-.61-5.42-.73-7.99l-.04-.85Z"/></svg>