<?xml version="1.0" encoding="UTF-8"?><svg id="Layer_1" xmlns="http://www.w3.org/2000/svg" viewBox="0 0 626.02 140.06"><defs><style>.cls-1{fill:#f7f7f7;}</style></defs><g><path class="cls-1" d="M229.36,94.68c0,13.63-13.02,23.14-31.68,23.14-16.34,0-26.74-6.64-32.59-12.2l-1.46-1.39,7.44-7.18,1.33,1.29c6.61,6.35,15.58,9.84,25.27,9.84,12.23,0,20.14-5.12,20.14-13.06s-5.7-10.53-15.01-14.04l-13.74-5.14c-5.96-2.25-19.91-7.53-19.91-21.28,0-12.48,12.26-21.52,29.16-21.52,10.5,0,20.45,3.62,27.28,9.93l1.49,1.38-7.01,6.83-1.34-1.16c-5.6-4.87-12.47-7.34-20.42-7.34-10.7,0-17.62,4.45-17.62,11.34,0,7.56,7.97,10.5,14.38,12.86l13.75,5.14c9.94,3.76,20.54,8.92,20.54,22.56Z"/><path class="cls-1" d="M307.85,34.52v49.46c0,21.82-11.88,33.83-33.45,33.83s-33.32-12.01-33.32-33.83V34.52h11.42v49.14c0,16.27,7.37,24.51,21.9,24.51s22.4-8.25,22.4-24.51V34.52h11.04Z"/><path class="cls-1" d="M390.44,34.52V116.42h-10.75l-38.02-54.57-7.12-10.76c0,.09,0,.19,.02,.29,.32,5.26,.65,10.69,.65,16.33v48.71h-11.04V34.52h10.74l38.15,54.45,6.94,10.7c-.34-5.62-.62-11.32-.62-16.98V34.52h11.04Z"/><path class="cls-1" d="M466.82,45.48c-7.59-7.27-18.69-10.96-32.98-10.96h-23.61V116.42h23.74c27.91,0,43.91-15.02,43.91-41.21,0-12.69-3.72-22.7-11.06-29.72Zm-45.18-1.76h11.44c21.59,0,33,10.89,33,31.48,0,14.55-5.73,31.91-33,31.91h-11.44V43.72Z"/><polygon class="cls-1" points="547.92 107 547.92 116.42 491.87 116.42 491.87 34.52 546.54 34.52 546.54 43.83 503.29 43.83 503.29 68.45 539.72 68.45 539.72 77.77 503.29 77.77 503.29 107 547.92 107"/><path class="cls-1" d="M600.83,80.14c13.74-2.71,21.55-10.9,21.55-22.82,0-18.85-17.71-22.8-32.57-22.8h-28.78V116.42h11.41v-35.22h15.85l24.46,35.22h13.26l-25.19-36.27Zm-28.38-36.42h15.6c11.27,0,22.79,1.62,22.79,13.6,0,9.73-7.67,14.67-22.79,14.67h-15.6v-28.27Z"/></g><g><path class="cls-1" d="M7.4,66.09H.15l.04-.68C2.55,28.73,33.19,0,69.96,0s67.41,28.73,69.77,65.41l.05,.68h-7.26l-.05-.6c-2.29-32.66-29.75-58.25-62.51-58.25S9.75,32.83,7.45,65.49l-.04,.6Z"/><path class="cls-1" d="M8.02,102.78h123.72l-.53,.95c-1.15,2.1-2.46,4.21-3.9,6.28l-.19,.28H12.64l-.19-.28c-1.44-2.07-2.76-4.18-3.91-6.28l-.52-.95Z"/><path class="cls-1" d="M38.89,132.89h61.97l-2.8,1.23c-8.92,3.94-18.41,5.93-28.19,5.93s-19.26-2-28.19-5.93l-2.8-1.23Z"/><path class="cls-1" d="M2.2,87.72H137.56l-.22,.81c-.59,2.15-1.27,4.26-2.03,6.28l-.16,.42H4.6l-.15-.42c-.77-2.02-1.45-4.14-2.03-6.28l-.22-.81Z"/><path class="cls-1" d="M18.75,117.84H121.01l-1.06,1.1c-2.17,2.22-4.53,4.34-7.01,6.28l-.17,.14H26.99l-.17-.14c-2.48-1.94-4.84-4.05-7.01-6.28l-1.06-1.1Z"/><path class="cls-1" d="M0,72.67H139.76l-.03,.67c-.09,2.02-.28,4.13-.58,6.28l-.07,.56H.68l-.08-.56c-.29-2.15-.48-4.26-.57-6.28l-.03-.67Z"/></g></svg>