<svg width="92" height="186" viewBox="0 0 92 186" fill="none" xmlns="http://www.w3.org/2000/svg">
<path d="M63.839 4.38066V66.4237C63.839 71.411 61.6875 76.1815 57.9018 79.4883L29.7134 104.127C25.9277 107.433 23.7762 112.177 23.7762 117.191V147.603L16.0142 145.841C7.95265 144.025 1.66133 137.628 0.163404 129.524C0.0544635 128.982 0 128.575 0 128.304V62.9543C0 52.79 4.60263 43.1949 12.5008 36.771L56.6489 0.992555C59.5358 -1.33846 63.8663 0.694428 63.8663 4.40779L63.839 4.38066Z" fill="#F0F0F0"/>
<path d="M28.161 181.619V119.576C28.161 114.589 30.3127 109.819 34.0984 106.512L62.2866 81.8734C66.0723 78.5666 68.2238 73.8233 68.2238 68.8089V38.3973L75.9858 40.1591C84.0473 41.9751 90.3387 48.3718 91.8366 56.4762C91.9455 57.0183 92 57.4249 92 57.6959V123.046C92 133.21 87.3974 142.805 79.4992 149.229L35.3511 185.007C32.4642 187.338 28.1339 185.306 28.1339 181.592L28.161 181.619Z" fill="#F0F0F0"/>
</svg>
