<svg width="1842" height="1842" viewBox="0 0 1842 1842" fill="none" xmlns="http://www.w3.org/2000/svg">
<path d="M874.5 824L887 826V845.834L874 845.5L874.5 824Z" fill="#FEF2F2"/>
<path d="M1153.71 823.252C1283.28 823.252 1379.56 854.386 1442.53 916.653C1505.51 978.227 1537 1066.78 1537 1182.32C1537 1257.74 1521.44 1323.81 1490.31 1380.54C1459.91 1436.58 1415.39 1480.17 1356.75 1511.3C1298.12 1542.43 1227.18 1558 1143.93 1558C1133.07 1558 1118.6 1557.65 1100.5 1556.96C1082.4 1556.27 1063.58 1555.92 1044.04 1555.92C1025.22 1555.23 1007.84 1554.89 991.918 1554.89C966.582 1554.89 941.608 1555.23 916.996 1555.92C892.384 1555.92 872.477 1556.62 857.276 1558V1537.24C881.888 1535.86 900.347 1533.09 912.653 1528.94C925.683 1524.79 934.369 1516.49 938.712 1504.04C943.056 1491.58 945.227 1472.9 945.227 1448V933.257C945.227 907.658 943.056 888.978 938.712 877.217C934.369 864.764 925.683 856.461 912.653 852.31C900.347 847.467 902.241 846.339 877.629 845.647L878.512 824.641C893.714 825.333 892.384 824.982 916.996 826.366C941.608 827.058 965.858 827.058 989.746 826.366C1015.08 825.674 1043.68 824.982 1075.53 824.29C1107.38 823.598 1133.44 823.252 1153.71 823.252ZM1126.56 841.932C1093.26 841.932 1071.54 847.813 1061.41 859.575C1051.28 871.336 1046.21 895.205 1046.21 931.181V1450.07C1046.21 1486.05 1051.28 1509.92 1061.41 1521.68C1072.27 1533.44 1094.35 1539.32 1127.65 1539.32C1206.55 1539.32 1267.72 1525.83 1311.15 1498.85C1354.58 1471.17 1384.98 1431.05 1402.36 1378.46C1419.73 1325.88 1428.42 1261.89 1428.42 1186.48C1428.42 1108.99 1418.65 1044.99 1399.1 994.486C1380.28 943.289 1348.79 905.237 1304.63 880.33C1261.2 854.732 1201.84 841.932 1126.56 841.932Z" fill="#FEF2F2"/>
<path d="M305 292.601C319.98 293.293 339.597 293.985 363.85 294.677C388.103 295.369 411.999 295.715 435.539 295.715C469.066 295.715 501.166 295.369 531.839 294.677C562.512 293.985 584.269 293.639 597.109 293.639C672.008 293.639 728.361 308.86 766.168 339.301C803.974 369.743 822.878 408.833 822.878 456.57C822.878 480.785 817.528 504.654 806.828 528.177C796.841 551.008 779.721 572.11 755.468 591.482C731.928 610.162 700.185 625.383 660.238 637.144V639.22C716.591 646.138 760.461 659.283 791.848 678.655C823.948 697.335 846.417 719.475 859.257 745.073C872.097 770.672 878.517 797.654 878.517 826.02C878.517 865.455 868.174 900.394 847.487 930.836C827.514 960.585 798.268 984.108 759.748 1001.4C721.228 1018.7 675.218 1027.35 621.719 1027.35C606.025 1027.35 582.485 1027 551.099 1026.31C519.712 1024.93 481.906 1024.24 437.679 1024.24C412.713 1024.24 388.103 1024.58 363.85 1025.27C339.597 1025.27 319.98 1025.97 305 1027.35V1006.59C329.253 1005.21 347.443 1002.44 359.57 998.291C372.41 994.14 380.97 985.838 385.25 973.385C389.53 960.931 391.67 942.251 391.67 917.344V402.606C391.67 377.007 389.53 358.327 385.25 346.566C380.97 334.113 372.41 325.81 359.57 321.659C347.443 316.816 329.253 314.049 305 313.357V292.601ZM570.359 313.357C537.546 313.357 516.146 319.238 506.159 330.999C496.172 342.761 491.179 366.63 491.179 402.606V917.344C491.179 941.559 493.319 959.893 497.599 972.347C501.879 984.8 509.726 993.102 521.139 997.253C532.552 1001.4 549.315 1003.48 571.429 1003.48C641.335 1003.48 691.982 987.913 723.368 956.78C755.468 924.955 771.518 879.984 771.518 821.869C771.518 768.596 756.538 727.431 726.578 698.373C697.331 669.315 648.825 654.786 581.059 654.786H491.179C491.179 654.786 491.179 651.593 491.179 646.058C491.179 639.831 491.179 637.144 491.179 637.144H562.869C604.955 637.144 637.412 629.534 660.238 614.313C683.065 598.4 698.758 577.645 707.318 552.046C715.878 525.756 720.158 497.736 720.158 467.986C720.158 416.789 708.388 378.391 684.848 352.793C662.022 326.502 623.859 313.357 570.359 313.357Z" fill="#FEF2F2"/>
<path d="M887.505 345.34C888.346 344.893 889.44 344.296 890.786 343.55C892.132 342.803 893.447 342.049 894.731 341.288C896.559 340.204 898.297 339.148 899.946 338.119C901.594 337.09 902.768 336.368 903.468 335.953C907.552 333.532 911.153 332.533 914.27 332.955C917.388 333.377 919.774 334.878 921.43 337.456C922.27 338.764 922.806 340.227 923.039 341.843C923.286 343.399 923.085 345.092 922.434 346.923C921.799 348.693 920.596 350.541 918.826 352.468L918.898 352.58C922.21 351.132 925.058 350.424 927.442 350.456C929.84 350.427 931.833 350.896 933.421 351.864C935.009 352.832 936.295 354.082 937.279 355.614C938.647 357.744 939.295 359.966 939.223 362.279C939.166 364.531 938.387 366.748 936.887 368.927C935.386 371.106 933.178 373.061 930.26 374.79C929.405 375.298 928.109 376.04 926.374 377.017C924.615 377.957 922.529 379.142 920.118 380.571C918.756 381.378 917.427 382.192 916.128 383.014C914.806 383.798 913.76 384.469 912.991 385.028L912.271 383.907C913.546 383.048 914.442 382.311 914.959 381.695C915.515 381.055 915.694 380.33 915.495 379.519C915.297 378.708 914.765 377.63 913.901 376.285L896.047 348.48C895.159 347.097 894.394 346.158 893.753 345.661C893.087 345.126 892.333 344.955 891.489 345.145C890.659 345.276 889.572 345.714 888.225 346.461L887.505 345.34ZM902.694 337.883C900.905 338.944 899.942 339.953 899.805 340.911C899.669 341.87 900.224 343.32 901.472 345.264L919.327 373.068C920.167 374.376 920.92 375.297 921.585 375.831C922.25 376.366 922.966 376.561 923.732 376.416C924.499 376.271 925.485 375.841 926.691 375.127C930.502 372.867 932.724 370.389 933.355 367.693C934.001 364.936 933.317 361.988 931.301 358.849C929.453 355.971 927.208 354.232 924.567 353.63C921.964 353.006 918.815 353.789 915.12 355.98L910.206 358.863C910.206 358.863 910.076 358.662 909.884 358.363C909.668 358.026 909.578 357.886 909.578 357.886L913.517 355.615C915.811 354.255 917.317 352.794 918.034 351.234C918.726 349.637 918.862 348.008 918.441 346.349C917.996 344.652 917.257 343 916.225 341.393C914.449 338.628 912.476 336.934 910.304 336.312C908.148 335.63 905.611 336.154 902.694 337.883Z" fill="#FEF2F2"/>
<path d="M972.027 303.473C976.126 302.096 980.031 301.785 983.742 302.538C987.497 303.277 990.826 305.043 993.731 307.836C996.663 310.573 998.996 314.324 1000.73 319.091C1002.42 323.734 1003.01 328.094 1002.51 332.17C1002.05 336.231 1000.62 339.758 998.227 342.75C995.829 345.741 992.624 347.911 988.612 349.259C984.514 350.635 980.587 350.954 976.832 350.215C973.121 349.461 969.791 347.695 966.844 344.917C963.94 342.125 961.628 338.366 959.909 333.64C958.22 328.997 957.626 324.638 958.128 320.562C958.63 316.486 960.058 312.959 962.413 309.982C964.81 306.99 968.015 304.82 972.027 303.473ZM972.175 304.679C969.371 305.621 967.273 307.372 965.881 309.933C964.489 312.494 963.806 315.608 963.832 319.274C963.902 322.925 964.721 326.907 966.29 331.218C967.888 335.612 969.909 339.236 972.352 342.091C974.822 344.889 977.46 346.817 980.266 347.875C983.1 348.877 985.832 348.936 988.464 348.052C991.268 347.111 993.366 345.359 994.758 342.798C996.151 340.237 996.812 337.131 996.742 333.479C996.701 329.772 995.903 325.783 994.35 321.514C992.736 317.078 990.694 313.461 988.223 310.663C985.796 307.85 983.187 305.935 980.396 304.918C977.591 303.86 974.85 303.781 972.175 304.679Z" fill="#FEF2F2"/>
<path d="M1072.28 285L1072.43 286.31C1070.89 286.512 1069.73 286.851 1068.96 287.328C1068.23 287.8 1067.77 288.487 1067.6 289.388C1067.42 290.289 1067.42 291.548 1067.6 293.163L1071.94 332.266C1071.67 332.294 1071.4 332.321 1071.12 332.349C1070.9 332.373 1070.65 332.398 1070.38 332.426L1037.03 292.851L1040.87 327.434C1041.04 329.006 1041.31 330.236 1041.69 331.125C1042.1 331.966 1042.76 332.539 1043.67 332.843C1044.62 333.1 1045.98 333.181 1047.77 333.086L1047.91 334.396C1047.08 334.393 1046.01 334.458 1044.69 334.594C1043.37 334.685 1042.12 334.791 1040.94 334.912C1039.8 335.028 1038.64 335.169 1037.47 335.334C1036.33 335.45 1035.38 335.592 1034.62 335.758L1034.47 334.448C1036.01 334.202 1037.14 333.865 1037.88 333.437C1038.65 332.96 1039.13 332.271 1039.3 331.37C1039.47 330.425 1039.47 329.167 1039.3 327.595L1035.77 295.763C1035.59 294.147 1035.32 292.982 1034.96 292.268C1034.6 291.51 1034 291.042 1033.15 290.863C1032.35 290.637 1031.17 290.581 1029.62 290.695L1029.47 289.386C1030.25 289.35 1031.21 289.296 1032.35 289.223C1033.54 289.146 1034.7 289.049 1035.83 288.933C1036.83 288.83 1037.79 288.711 1038.69 288.574C1039.59 288.437 1040.41 288.31 1041.13 288.191L1069.15 321.357L1066.04 293.324C1065.86 291.708 1065.56 290.48 1065.14 289.64C1064.77 288.794 1064.11 288.222 1063.16 287.922C1062.25 287.617 1060.91 287.534 1059.14 287.672L1058.99 286.362C1059.81 286.322 1060.89 286.256 1062.21 286.165C1063.58 286.069 1064.83 285.962 1065.96 285.846C1067.15 285.725 1068.3 285.584 1069.43 285.424C1070.61 285.26 1071.56 285.118 1072.28 285Z" fill="#FEF2F2"/>
<path d="M1153.79 290.15L1153.62 291.458C1152.08 291.317 1150.87 291.394 1150 291.688C1149.18 291.988 1148.58 292.558 1148.19 293.397C1147.81 294.236 1147.51 295.461 1147.3 297.074L1142.25 336.096C1141.97 336.064 1141.7 336.031 1141.43 335.999C1141.2 335.971 1140.95 335.942 1140.68 335.909L1117.61 290.07L1113.13 324.582C1112.93 326.151 1112.91 327.409 1113.06 328.357C1113.26 329.266 1113.77 329.969 1114.58 330.464C1115.44 330.921 1116.75 331.299 1118.51 331.598L1118.34 332.905C1117.54 332.72 1116.48 332.549 1115.16 332.392C1113.85 332.191 1112.61 332.02 1111.43 331.879C1110.29 331.743 1109.13 331.627 1107.95 331.529C1106.82 331.394 1105.86 331.323 1105.08 331.318L1105.25 330.011C1106.8 330.108 1107.98 330.029 1108.8 329.772C1109.67 329.478 1110.29 328.911 1110.68 328.072C1111.07 327.189 1111.37 325.964 1111.57 324.395L1115.68 292.628C1115.89 291.015 1115.91 289.823 1115.73 289.049C1115.56 288.232 1115.09 287.644 1114.3 287.285C1113.57 286.888 1112.44 286.575 1110.9 286.347L1111.07 285.04C1111.84 285.176 1112.78 285.333 1113.91 285.513C1115.09 285.697 1116.24 285.857 1117.37 285.993C1118.37 286.112 1119.33 286.204 1120.24 286.269C1121.15 286.334 1121.97 286.388 1122.71 286.432L1142.11 324.862L1145.74 296.886C1145.95 295.274 1145.95 294.013 1145.74 293.104C1145.58 292.2 1145.08 291.497 1144.22 290.996C1143.41 290.501 1142.12 290.126 1140.36 289.871L1140.53 288.564C1141.34 288.705 1142.4 288.876 1143.71 289.077C1145.06 289.283 1146.31 289.454 1147.44 289.59C1148.62 289.731 1149.78 289.847 1150.92 289.939C1152.1 290.037 1153.06 290.107 1153.79 290.15Z" fill="#FEF2F2"/>
<path d="M1206.48 303.978L1206.06 305.232C1204.57 304.813 1203.38 304.628 1202.5 304.677C1201.67 304.698 1201.01 305.043 1200.49 305.714C1199.99 306.343 1199.48 307.43 1198.96 308.976L1188.48 340.056C1187.97 341.56 1187.72 342.729 1187.73 343.562C1187.74 344.395 1188.07 345.052 1188.72 345.533C1189.42 346.027 1190.49 346.546 1191.94 347.09L1191.52 348.343C1190.55 347.948 1189.3 347.514 1187.78 347.04C1186.32 346.538 1184.82 346.05 1183.3 345.577C1181.61 345.049 1180.01 344.576 1178.52 344.157C1177.04 343.697 1175.83 343.367 1174.89 343.166L1175.31 341.913C1176.82 342.289 1177.98 342.467 1178.81 342.447C1179.68 342.44 1180.37 342.101 1180.88 341.43C1181.39 340.76 1181.91 339.672 1182.41 338.168L1192.89 307.088C1193.41 305.542 1193.66 304.374 1193.64 303.582C1193.64 302.749 1193.28 302.085 1192.58 301.591C1191.94 301.069 1190.89 300.556 1189.43 300.054L1189.85 298.801C1190.75 299.127 1191.93 299.541 1193.4 300.043C1194.86 300.545 1196.44 301.06 1198.13 301.588C1199.66 302.062 1201.16 302.508 1202.66 302.926C1204.19 303.358 1205.47 303.709 1206.48 303.978Z" fill="#FEF2F2"/>
<path d="M1270.63 332.259C1269.72 333.533 1268.87 334.789 1268.08 336.027C1267.33 337.285 1266.77 338.244 1266.41 338.903C1266.02 339.601 1265.66 340.289 1265.34 340.969C1265.04 341.61 1264.79 342.153 1264.59 342.6L1263.2 341.888C1264.22 339.478 1264.88 337.5 1265.17 335.955C1265.47 334.371 1265.23 333.03 1264.45 331.93C1263.72 330.812 1262.29 329.706 1260.15 328.612L1255.13 326.043C1253.75 325.341 1252.64 324.921 1251.79 324.782C1250.99 324.625 1250.28 324.833 1249.65 325.407C1249.05 325.942 1248.35 326.927 1247.55 328.361L1231.57 357.199C1230.8 358.594 1230.34 359.703 1230.19 360.524C1230.05 361.346 1230.26 362.048 1230.81 362.631C1231.43 363.197 1232.43 363.83 1233.8 364.532L1238.21 366.792C1240.76 368.092 1242.85 368.743 1244.51 368.744C1246.21 368.766 1247.75 368.186 1249.13 367.002C1250.57 365.799 1252.14 363.992 1253.84 361.578L1255.23 362.29C1254.53 363.274 1253.7 364.639 1252.73 366.383C1252.32 367.12 1251.75 368.196 1251.02 369.612C1250.35 371.01 1249.69 372.486 1249.03 374.042C1247.02 372.912 1244.72 371.686 1242.14 370.366C1239.58 369.006 1237.29 367.81 1235.27 366.778C1234.38 366.324 1233.23 365.736 1231.82 365.014C1230.45 364.312 1228.95 363.568 1227.31 362.781C1225.7 361.955 1224.05 361.139 1222.38 360.332C1220.72 359.485 1219.14 358.7 1217.63 357.975L1218.27 356.812C1219.69 357.436 1220.8 357.808 1221.61 357.926C1222.47 358.065 1223.21 357.847 1223.84 357.274C1224.47 356.7 1225.17 355.715 1225.94 354.32L1241.92 325.482C1242.72 324.048 1243.18 322.939 1243.3 322.156C1243.44 321.335 1243.22 320.622 1242.62 320.018C1242.09 319.396 1241.14 318.714 1239.79 317.974L1240.44 316.811C1241.91 317.614 1243.46 318.457 1245.09 319.342C1246.75 320.188 1248.37 321.044 1249.96 321.908C1251.58 322.733 1253.07 323.497 1254.44 324.199C1255.85 324.921 1257 325.509 1257.89 325.963C1259.74 326.913 1261.84 327.986 1264.18 329.183C1266.58 330.362 1268.73 331.387 1270.63 332.259ZM1243.94 344.125C1243.94 344.125 1243.83 344.319 1243.62 344.707C1243.4 345.094 1243.3 345.288 1243.3 345.288L1239.3 343.253C1239.3 343.253 1239.4 343.076 1239.61 342.688C1239.83 342.301 1239.95 342.076 1239.95 342.076L1243.94 344.125ZM1255.21 340.042C1253.83 342.168 1252.81 343.813 1252.17 344.976C1251.56 346.16 1250.99 347.236 1250.46 348.205C1249.92 349.174 1249.35 350.25 1248.74 351.434C1248.14 352.617 1247.31 354.355 1246.24 356.647L1244.85 355.935C1245.38 354.612 1245.84 353.307 1246.24 352.02C1246.71 350.715 1246.76 349.499 1246.4 348.37C1246.11 347.223 1245.07 346.196 1243.3 345.288L1243.94 344.125C1245.27 344.806 1246.42 345.07 1247.39 344.917C1248.41 344.746 1249.31 344.336 1250.09 343.687C1250.86 343.038 1251.54 342.318 1252.14 341.528C1252.75 340.698 1253.31 339.965 1253.82 339.33L1255.21 340.042Z" fill="#FEF2F2"/>
<path d="M1305.51 354.077C1306.31 354.663 1306.84 355.3 1307.1 355.987C1307.36 356.674 1307.46 357.382 1307.4 358.11C1307.35 358.962 1307.12 359.759 1306.71 360.502C1306.29 361.246 1305.91 361.827 1305.58 362.246C1304.22 363.956 1302.53 365.177 1300.52 365.908C1298.5 366.639 1296.18 366.734 1293.56 366.196L1293.82 364.893C1295.31 365.265 1296.84 365.255 1298.41 364.864C1300.03 364.499 1301.23 363.81 1302.04 362.797C1302.37 362.379 1302.61 361.972 1302.75 361.578C1301.81 361.606 1300.95 361.34 1300.19 360.78C1299.25 360.088 1298.66 359.192 1298.44 358.092C1298.23 356.993 1298.53 355.919 1299.36 354.872C1300.14 353.894 1301.12 353.344 1302.31 353.222C1303.5 353.1 1304.57 353.385 1305.51 354.077Z" fill="#FEF2F2"/>
<path d="M1345.84 388.761C1347.42 390.347 1348.42 391.735 1348.85 392.924C1349.31 394.083 1349.62 395.192 1349.79 396.252C1349.94 396.845 1350.06 397.313 1350.15 397.657C1350.3 398.002 1350.49 398.285 1350.71 398.507C1351.02 398.825 1351.43 398.88 1351.92 398.673C1352.44 398.497 1353.11 398.123 1353.93 397.55L1355.02 398.645C1354.43 399.129 1353.7 399.704 1352.85 400.369C1352.06 401.036 1351 401.946 1349.68 403.098C1348.43 404.252 1346.76 405.785 1344.68 407.698L1343.59 406.604C1345.08 405.051 1346.27 403.321 1347.15 401.414C1348.04 399.507 1348.39 397.573 1348.2 395.613C1348.05 393.684 1347.1 391.831 1345.33 390.055C1343.65 388.373 1341.73 387.463 1339.57 387.325C1337.44 387.218 1335.51 387.954 1333.8 389.533C1332.31 390.899 1331.42 392.417 1331.12 394.088C1330.86 395.729 1330.92 397.531 1331.29 399.496C1331.73 401.462 1332.2 403.584 1332.7 405.862C1333.28 408.483 1333.68 410.914 1333.89 413.154C1334.16 415.396 1334.03 417.459 1333.51 419.342C1333.01 421.258 1331.87 423.035 1330.09 424.675C1327.97 426.618 1325.77 427.767 1323.46 428.122C1321.16 428.478 1318.9 428.213 1316.69 427.328C1314.48 426.442 1312.46 425.08 1310.63 423.24C1308.95 421.558 1307.82 420.044 1307.24 418.696C1306.66 417.348 1306.23 416.128 1305.97 415.035C1305.73 413.912 1305.43 413.161 1305.05 412.78C1304.73 412.463 1304.31 412.392 1303.79 412.567C1303.3 412.774 1302.65 413.164 1301.83 413.737L1300.74 412.642C1301.49 412.068 1302.33 411.356 1303.26 410.506C1304.25 409.657 1305.5 408.534 1307.02 407.138C1308.57 405.773 1310.5 404.028 1312.81 401.902L1313.9 402.997C1312.05 404.945 1310.55 406.995 1309.4 409.144C1308.28 411.326 1307.8 413.505 1307.94 415.683C1308.15 417.861 1309.26 419.966 1311.29 421.996C1312.33 423.043 1313.52 423.829 1314.87 424.354C1316.28 424.881 1317.76 425.005 1319.32 424.727C1320.91 424.419 1322.48 423.552 1324.04 422.125C1325.39 420.88 1326.25 419.485 1326.6 417.939C1327.03 416.395 1327.12 414.673 1326.87 412.774C1326.65 410.843 1326.27 408.708 1325.7 406.367C1325.18 403.995 1324.76 401.703 1324.46 399.492C1324.15 397.28 1324.25 395.186 1324.74 393.209C1325.31 391.233 1326.51 389.395 1328.36 387.694C1330.31 385.903 1332.32 384.843 1334.4 384.514C1336.54 384.186 1338.58 384.431 1340.54 385.249C1342.52 386.036 1344.29 387.207 1345.84 388.761Z" fill="#FEF2F2"/>
<path d="M1410.76 480.01C1414.18 487.149 1414.86 493.28 1412.79 498.404C1410.76 503.509 1406.28 507.597 1399.34 510.667C1394.82 512.67 1390.45 513.569 1386.22 513.361C1382.05 513.175 1378.26 511.88 1374.85 509.477C1371.43 507.074 1368.62 503.579 1366.42 498.993C1366.13 498.395 1365.77 497.588 1365.33 496.573C1364.9 495.557 1364.42 494.511 1363.9 493.435C1363.45 492.379 1363.01 491.413 1362.59 490.536C1361.92 489.14 1361.24 487.773 1360.55 486.436C1359.9 485.08 1359.33 484.001 1358.84 483.201L1360.09 482.649C1360.82 483.968 1361.48 484.912 1362.05 485.479C1362.64 486.087 1363.37 486.345 1364.23 486.253C1365.09 486.162 1366.27 485.785 1367.77 485.123L1398.65 471.447C1400.18 470.767 1401.25 470.151 1401.84 469.599C1402.47 469.029 1402.74 468.33 1402.64 467.502C1402.61 466.695 1402.29 465.605 1401.68 464.231L1402.92 463.679C1403.28 464.535 1403.75 465.659 1404.31 467.052C1404.92 468.426 1405.56 469.762 1406.24 471.06C1406.95 472.437 1407.74 473.994 1408.63 475.731C1409.51 477.467 1410.22 478.893 1410.76 480.01ZM1408.92 479.011C1408.04 477.176 1407.11 476.136 1406.14 475.89C1405.16 475.645 1403.6 476 1401.44 476.955L1370.31 490.742C1368.15 491.698 1366.85 492.611 1366.42 493.482C1366 494.392 1366.23 495.765 1367.11 497.6C1369.19 501.947 1371.62 504.958 1374.39 506.634C1377.2 508.291 1380.41 508.9 1384.02 508.46C1387.63 508.02 1391.7 506.799 1396.23 504.795C1400.87 502.736 1404.46 500.498 1406.97 498.079C1409.54 495.682 1410.99 492.936 1411.32 489.842C1411.71 486.769 1410.91 483.158 1408.92 479.011Z" fill="#FEF2F2"/>
<path d="M1437.44 554.396L1398.72 578.699C1397.16 579.689 1396.18 580.651 1395.78 581.586C1395.43 582.511 1395.3 583.322 1395.41 584.019L1394.07 584.291C1393.97 583.414 1393.78 582.352 1393.5 581.107C1393.27 579.852 1393.02 578.601 1392.75 577.355C1392.38 575.68 1392.01 574.116 1391.65 572.665C1391.32 571.204 1391.02 570.032 1390.73 569.148L1392.07 568.875C1392.64 571.048 1393.33 572.367 1394.13 572.832C1394.98 573.288 1396.45 572.854 1398.54 571.531L1428.34 553.312L1430.33 553.62L1397.55 548.572C1395.61 548.249 1394 548.15 1392.72 548.275C1391.48 548.392 1390.55 548.695 1389.91 549.184C1389.28 549.716 1388.9 550.444 1388.78 551.367C1388.66 552.332 1388.73 553.486 1388.98 554.827L1387.64 555.1C1387.46 553.878 1387.23 552.602 1386.93 551.27C1386.69 549.972 1386.45 548.765 1386.2 547.648C1385.97 546.574 1385.74 545.655 1385.53 544.891C1385.37 544.16 1385.17 543.482 1384.94 542.856L1386.28 542.583C1386.69 543.397 1387.4 544.173 1388.4 544.911C1389.45 545.641 1391.06 546.166 1393.24 546.487L1437.21 553.365C1437.25 553.536 1437.29 553.708 1437.33 553.88C1437.37 554.052 1437.4 554.224 1437.44 554.396ZM1409.88 564.599L1408.67 565.338L1405.25 549.757L1406.68 549.979L1409.88 564.599Z" fill="#FEF2F2"/>
<path d="M1444.76 650.941L1443.39 650.922C1443.37 649.428 1443.16 648.283 1442.76 647.487C1442.36 646.735 1441.71 646.22 1440.8 645.944C1439.89 645.668 1438.59 645.518 1436.89 645.494L1395.97 644.915C1395.98 644.652 1395.98 644.388 1395.98 644.125C1395.99 643.905 1395.99 643.664 1396 643.4L1440.91 616.367L1404.71 615.855C1403.07 615.832 1401.76 615.945 1400.8 616.195C1399.88 616.49 1399.21 617.051 1398.79 617.88C1398.41 618.753 1398.16 620.045 1398.04 621.756L1396.67 621.736C1396.77 620.947 1396.84 619.916 1396.86 618.643C1396.92 617.37 1396.96 616.163 1396.98 615.021C1397 613.924 1396.99 612.804 1396.96 611.661C1396.98 610.564 1396.95 609.641 1396.87 608.893L1398.24 608.913C1398.31 610.407 1398.52 611.53 1398.87 612.281C1399.27 613.078 1399.93 613.614 1400.84 613.89C1401.79 614.167 1403.09 614.317 1404.74 614.341L1438.05 614.812C1439.74 614.836 1440.98 614.721 1441.76 614.469C1442.58 614.217 1443.14 613.698 1443.43 612.911C1443.76 612.169 1443.96 611.052 1444.03 609.56L1445.4 609.58C1445.34 610.325 1445.28 611.247 1445.22 612.344C1445.16 613.485 1445.12 614.604 1445.1 615.702C1445.08 616.668 1445.09 617.59 1445.12 618.469C1445.16 619.348 1445.19 620.139 1445.23 620.842L1407.58 643.564L1436.92 643.979C1438.61 644.003 1439.91 643.867 1440.83 643.573C1441.75 643.322 1442.42 642.761 1442.85 641.889C1443.27 641.06 1443.52 639.79 1443.59 638.078L1444.96 638.098C1444.9 638.887 1444.84 639.919 1444.78 641.191C1444.71 642.508 1444.67 643.715 1444.65 644.813C1444.64 645.954 1444.64 647.074 1444.67 648.173C1444.7 649.315 1444.73 650.238 1444.76 650.941Z" fill="#FEF2F2"/>
<path d="M1435.51 709.186C1434.78 711.998 1433.74 714.192 1432.38 715.769C1431.07 717.398 1429.65 718.778 1428.13 719.907C1427.24 720.599 1426.99 721.217 1427.36 721.76C1427.77 722.357 1428.91 722.969 1430.77 723.597L1430.39 725.067C1428.77 724.588 1426.79 724.045 1424.45 723.438C1422.12 722.832 1419.02 722.065 1415.16 721.139L1415.54 719.67C1417.53 719.829 1419.11 719.914 1420.28 719.924C1421.5 719.946 1422.56 719.86 1423.46 719.668C1424.34 719.519 1425.26 719.242 1426.22 718.837C1428.38 717.953 1430.12 716.605 1431.44 714.794C1432.8 712.994 1433.77 710.986 1434.34 708.771C1434.89 706.683 1434.83 704.654 1434.16 702.684C1433.53 700.767 1432.35 698.946 1430.63 697.221C1428.91 695.539 1426.69 694.011 1423.98 692.637C1421.27 691.307 1418.11 690.21 1414.52 689.348C1410.8 688.454 1407.4 688.023 1404.33 688.056C1401.3 688.099 1398.65 688.526 1396.37 689.335C1394.07 690.188 1392.19 691.365 1390.71 692.867C1389.27 694.422 1388.29 696.222 1387.75 698.267C1387.26 700.184 1387.13 702.283 1387.39 704.562C1387.65 706.841 1388.51 708.79 1389.97 710.408C1391.01 711.654 1392.24 712.629 1393.66 713.331C1395.07 714.077 1397.09 714.923 1399.71 715.87L1399.33 717.34C1395.3 716.372 1392.03 715.611 1389.54 715.057C1387.09 714.515 1385.01 714.084 1383.3 713.765L1383.68 712.295C1385.63 712.582 1386.91 712.571 1387.51 712.262C1388.1 711.996 1388.2 711.319 1387.82 710.233C1387.08 708.38 1386.5 706.452 1386.08 704.45C1385.69 702.501 1385.85 700.142 1386.57 697.373C1387.63 693.326 1389.5 689.997 1392.21 687.387C1394.9 684.82 1398.27 683.115 1402.3 682.273C1406.32 681.474 1410.86 681.681 1415.92 682.894C1420.88 684.086 1425 686.002 1428.27 688.643C1431.54 691.283 1433.83 694.366 1435.12 697.891C1436.41 701.459 1436.54 705.224 1435.51 709.186Z" fill="#FEF2F2"/>
<path d="M1400.99 791.917C1399.64 791.076 1398.31 790.293 1397 789.57C1395.67 788.885 1394.65 788.377 1393.96 788.045C1393.22 787.693 1392.5 787.37 1391.78 787.077C1391.1 786.804 1390.53 786.579 1390.06 786.404L1390.76 785.047C1393.3 785.964 1395.38 786.539 1396.99 786.771C1398.65 787.023 1400.04 786.754 1401.16 785.966C1402.3 785.237 1403.41 783.831 1404.49 781.747L1407.02 776.851C1407.71 775.514 1408.12 774.433 1408.24 773.608C1408.38 772.842 1408.15 772.165 1407.53 771.577C1406.96 771.009 1405.91 770.363 1404.4 769.64L1373.95 755.096C1372.48 754.393 1371.31 753.983 1370.45 753.867C1369.6 753.751 1368.87 753.969 1368.28 754.52C1367.71 755.13 1367.08 756.103 1366.38 757.44L1364.16 761.746C1362.88 764.224 1362.26 766.258 1362.3 767.848C1362.33 769.478 1362.97 770.94 1364.24 772.233C1365.53 773.585 1367.46 775.044 1370.02 776.609L1369.32 777.966C1368.27 777.32 1366.83 776.557 1364.99 775.678C1364.21 775.306 1363.07 774.789 1361.58 774.124C1360.11 773.519 1358.55 772.923 1356.92 772.338C1358.04 770.371 1359.25 768.13 1360.55 765.613C1361.89 763.116 1363.07 760.885 1364.09 758.918C1364.54 758.053 1365.12 756.933 1365.83 755.556C1366.52 754.219 1367.25 752.755 1368.03 751.162C1368.84 749.589 1369.64 747.987 1370.44 746.355C1371.27 744.743 1372.04 743.2 1372.75 741.725L1373.98 742.312C1373.37 743.688 1373.02 744.769 1372.92 745.555C1372.8 746.38 1373.04 747.086 1373.66 747.674C1374.27 748.262 1375.32 748.907 1376.79 749.611L1407.24 764.154C1408.75 764.878 1409.92 765.287 1410.74 765.384C1411.59 765.5 1412.33 765.262 1412.94 764.672C1413.57 764.14 1414.26 763.216 1414.99 761.898L1416.22 762.485C1415.42 763.92 1414.59 765.434 1413.71 767.027C1412.88 768.639 1412.03 770.222 1411.18 771.775C1410.37 773.348 1409.61 774.803 1408.92 776.14C1408.21 777.516 1407.63 778.637 1407.18 779.502C1406.25 781.311 1405.19 783.355 1404.01 785.636C1402.85 787.976 1401.84 790.069 1400.99 791.917ZM1387.9 766.613C1387.9 766.613 1387.64 766.488 1387.23 766.293C1386.82 766.097 1386.67 766.026 1386.67 766.026L1388.68 762.129C1388.68 762.129 1388.87 762.224 1389.28 762.42C1389.69 762.615 1389.88 762.707 1389.88 762.707L1387.9 766.613ZM1392.46 777.325C1390.21 776.054 1388.47 775.125 1387.24 774.538C1385.99 773.991 1384.86 773.473 1383.84 772.985C1382.81 772.496 1381.68 771.978 1380.43 771.431C1379.18 770.884 1377.35 770.132 1374.94 769.175L1375.64 767.818C1377.03 768.287 1378.4 768.696 1379.75 769.047C1381.12 769.456 1382.39 769.473 1383.55 769.097C1384.74 768.78 1385.78 767.757 1386.67 766.026L1387.9 766.613C1387.23 767.91 1386.98 769.021 1387.17 769.943C1387.38 770.925 1387.83 771.778 1388.53 772.503C1389.22 773.228 1389.99 773.865 1390.83 774.413C1391.71 774.98 1392.49 775.499 1393.16 775.969L1392.46 777.325Z" fill="#FEF2F2"/>
</svg>
