<svg width="95" height="95" viewBox="0 0 95 95" fill="none" xmlns="http://www.w3.org/2000/svg">
<path d="M30.508 10.2051C30.6131 10.2609 30.7534 10.3082 30.9289 10.3472C31.1071 10.3937 31.3089 10.4232 31.5344 10.4357C31.7599 10.4482 31.9951 10.4402 32.2399 10.4118C32.4847 10.3833 32.7276 10.3258 32.9685 10.2393C33.4955 10.05 33.8519 9.81144 34.0375 9.52373C34.2232 9.23602 34.2538 8.919 34.1294 8.57267C34.0374 8.31668 33.8929 8.1391 33.6957 8.03991C33.5013 7.94824 33.2397 7.90622 32.9109 7.91382C32.5821 7.92143 32.1753 7.94855 31.6906 7.99519C31.1025 8.06193 30.5765 8.07662 30.1125 8.03928C29.6513 8.00946 29.2625 7.8856 28.9462 7.6677C28.63 7.4498 28.3853 7.09992 28.2122 6.61807C28.0661 6.21151 28.0156 5.83437 28.0607 5.48664C28.1058 5.13892 28.2301 4.82227 28.4335 4.53668C28.6397 4.25862 28.9034 4.01085 29.2248 3.79339C29.5489 3.58345 29.9143 3.40546 30.3208 3.25941C30.7199 3.11606 31.1338 3.01412 31.5626 2.9536C31.9838 2.89577 32.4035 2.88101 32.8217 2.90929C33.2351 2.94781 33.6343 3.02968 34.0193 3.15489L33.8328 4.44596C33.6997 4.38324 33.5212 4.32411 33.2973 4.26856C33.0685 4.22324 32.8147 4.19115 32.5359 4.17229C32.2496 4.15614 31.9498 4.16181 31.6367 4.1893C31.3187 4.22702 31.0092 4.29997 30.708 4.40816C30.2036 4.58937 29.8507 4.81389 29.6494 5.08171C29.4432 5.35977 29.3997 5.66444 29.5187 5.99572C29.6161 6.26676 29.7797 6.45023 30.0097 6.54613C30.2424 6.64956 30.5446 6.69824 30.9164 6.69217C31.2883 6.6861 31.7241 6.65704 32.224 6.60499C32.8024 6.55872 33.2983 6.55484 33.7116 6.59336C34.1277 6.63941 34.4734 6.76173 34.7488 6.96033C35.0193 7.16917 35.2289 7.48063 35.3777 7.89472C35.567 8.42175 35.5986 8.91194 35.4724 9.36528C35.349 9.82616 35.1014 10.2254 34.7296 10.5629C34.353 10.9107 33.8899 11.1834 33.3403 11.3808C32.9789 11.5106 32.6215 11.5923 32.268 11.6257C31.9172 11.6668 31.5782 11.6695 31.2509 11.6341C30.9161 11.6013 30.6009 11.5403 30.3053 11.451L30.508 10.2051Z" fill="#222831"/>
<path d="M18.4313 10.2217C18.9271 9.85613 19.4458 9.62279 19.9875 9.52164C20.5291 9.42049 21.0659 9.4273 21.5978 9.54208C22.1344 9.66329 22.6351 9.87061 23.0999 10.164C23.563 10.4687 23.956 10.8399 24.2788 11.2778C24.6158 11.735 24.8526 12.2313 24.989 12.7669C25.1301 13.3088 25.1713 13.85 25.1124 14.3903C25.0583 14.9371 24.9005 15.451 24.6389 15.9321C24.3757 16.4243 24.009 16.8437 23.5389 17.1903C23.0496 17.5511 22.5317 17.7788 21.9853 17.8735C21.4324 17.973 20.8909 17.9597 20.3608 17.8338C19.8241 17.7126 19.3266 17.5029 18.8683 17.2047C18.4035 16.9113 18.012 16.5488 17.694 16.1174C17.3569 15.6602 17.1178 15.1606 16.9767 14.6187C16.8338 14.0879 16.7895 13.5491 16.8436 13.0023C16.9024 12.462 17.0658 11.9489 17.3338 11.4631C17.5954 10.982 17.9612 10.5682 18.4313 10.2217ZM23.1777 12.0896C22.9403 11.7676 22.6586 11.4933 22.3324 11.2666C22.0063 11.0399 21.662 10.8762 21.2996 10.7757C20.9355 10.6863 20.5684 10.6737 20.1983 10.7378C19.8281 10.802 19.4757 10.9575 19.1408 11.2043C18.7931 11.4607 18.5362 11.7594 18.3702 12.1004C18.2042 12.4415 18.1189 12.7976 18.1142 13.1688C18.1079 13.5511 18.1656 13.926 18.2874 14.2934C18.4139 14.6673 18.5887 15.0055 18.8119 15.3082C19.0492 15.6301 19.3286 15.9012 19.65 16.1215C19.9697 16.3529 20.3116 16.5133 20.6757 16.6027C21.0445 16.6986 21.414 16.7144 21.7841 16.6502C22.1478 16.5908 22.4939 16.4401 22.8223 16.198C23.17 15.9416 23.4269 15.6429 23.5929 15.3019C23.7589 14.9608 23.8474 14.6023 23.8585 14.2264C23.8696 13.8505 23.8175 13.4765 23.7021 13.1043C23.5804 12.7369 23.4055 12.3986 23.1777 12.0896Z" fill="#222831"/>
<path d="M14.7624 19.9811C15.1798 20.2911 15.5328 20.6679 15.8213 21.1113C16.1162 21.5595 16.3225 22.0466 16.4402 22.5724C16.5595 23.1095 16.5629 23.655 16.4503 24.2092C16.3441 24.7681 16.0978 25.3077 15.7115 25.8279C15.2536 26.4444 14.7164 26.8726 14.0999 27.1123C13.4899 27.3567 12.8854 27.426 12.2865 27.32L12.3477 26.0501C12.7193 26.1267 13.0593 26.1251 13.3677 26.0453C13.6713 25.9719 13.9411 25.8434 14.1771 25.6599C14.4083 25.4828 14.6049 25.2851 14.7671 25.0667C15.0342 24.707 15.1941 24.3375 15.2467 23.958C15.3057 23.5834 15.2856 23.2146 15.1863 22.8519C15.0822 22.4956 14.9182 22.1596 14.6943 21.8438C14.4657 21.5345 14.2036 21.2701 13.9082 21.0507C13.5807 20.8074 13.2222 20.6259 12.8328 20.5062C12.4499 20.3912 12.0681 20.3417 11.6873 20.3579C11.3083 20.3853 10.9511 20.4838 10.6159 20.6534C10.2807 20.823 9.99385 21.0683 9.75535 21.3894C9.59318 21.6078 9.46238 21.8644 9.36297 22.1593C9.26355 22.4542 9.2202 22.7608 9.23289 23.0791C9.24724 23.4086 9.34636 23.7314 9.53025 24.0473L8.35426 24.5641C8.11881 24.17 7.99436 23.7337 7.98091 23.2554C7.96269 22.7835 8.03089 22.3159 8.18551 21.8528C8.33537 21.3961 8.54385 20.9879 8.81096 20.6283C9.1687 20.1466 9.59499 19.7806 10.0898 19.5302C10.5911 19.2847 11.116 19.1414 11.6646 19.1004C12.2196 19.0642 12.7655 19.1209 13.3022 19.2703C13.8454 19.4246 14.3321 19.6615 14.7624 19.9811Z" fill="#222831"/>
<path d="M4.25624 29.4698L12.1686 32.6297L11.6701 33.8779L3.75777 30.718L4.25624 29.4698Z" fill="#222831"/>
<path d="M9.54539 43.387L9.39169 44.6497L0.533936 46.908L0.705027 45.5023L3.1128 44.8888L3.51008 41.6248L1.31834 40.4635L1.49088 39.046L9.54539 43.387ZM4.1334 44.747L8.00335 43.84L4.46979 41.9834L4.1334 44.747Z" fill="#222831"/>
<path d="M1.31099 53.4504L9.72666 52.1212L9.93634 53.4487L2.69413 54.5926L3.40743 59.1086L2.23397 59.294L1.31099 53.4504Z" fill="#222831"/>
<path d="M25.1749 80.7291C25.169 80.6103 25.1378 80.4656 25.0813 80.2949C25.03 80.118 24.9519 79.9295 24.8471 79.7295C24.7424 79.5294 24.6151 79.3315 24.4652 79.1358C24.3154 78.9401 24.1416 78.761 23.9439 78.5984C23.5113 78.2428 23.124 78.0589 22.7818 78.0468C22.4396 78.0347 22.1516 78.1708 21.9179 78.4551C21.7451 78.6652 21.6667 78.8803 21.6825 79.1004C21.7033 79.3144 21.8012 79.5606 21.9762 79.8391C22.1511 80.1176 22.3828 80.453 22.6712 80.8455C23.0297 81.3164 23.3118 81.7606 23.5174 82.1782C23.728 82.5896 23.8208 82.9869 23.7957 83.3702C23.7705 83.7534 23.5954 84.1428 23.2702 84.5383C22.9959 84.872 22.6978 85.1085 22.3761 85.2479C22.0543 85.3873 21.7187 85.4428 21.3692 85.4144C21.0248 85.3798 20.6769 85.2801 20.3255 85.1155C19.9792 84.9447 19.6392 84.7221 19.3055 84.4477C18.978 84.1784 18.6784 83.8752 18.4068 83.5379C18.1414 83.2057 17.9137 82.8528 17.7238 82.4792C17.5451 82.1044 17.4109 81.7197 17.3213 81.3249L18.5256 80.8237C18.5399 80.9701 18.5806 81.1537 18.6476 81.3745C18.7258 81.5942 18.8283 81.8286 18.9549 82.0777C19.0877 82.3319 19.2461 82.5864 19.4301 82.8413C19.6254 83.095 19.8466 83.3235 20.0938 83.5268C20.5078 83.8672 20.8814 84.0552 21.2145 84.0909C21.5589 84.1255 21.8429 84.0069 22.0665 83.735C22.2494 83.5125 22.3231 83.278 22.2877 83.0313C22.2573 82.7785 22.1443 82.494 21.9486 82.1778C21.7529 81.8615 21.5047 81.5021 21.204 81.0995C20.868 80.6264 20.6106 80.2025 20.432 79.8278C20.2584 79.4468 20.1863 79.0873 20.2159 78.7491C20.2566 78.4097 20.4168 78.0701 20.6962 77.7303C21.0519 77.2977 21.4567 77.0195 21.9106 76.8956C22.3697 76.7656 22.8394 76.7737 23.3198 76.9201C23.8114 77.0654 24.2827 77.3235 24.7338 77.6944C25.0304 77.9383 25.2837 78.2034 25.4935 78.4899C25.7084 78.7701 25.8844 79.0599 26.0216 79.3591C26.165 79.6634 26.274 79.9654 26.3487 80.265L25.1749 80.7291Z" fill="#222831"/>
<path d="M31.3753 91.0926C30.8074 90.854 30.3413 90.5281 29.9769 90.1147C29.6126 89.7013 29.3435 89.2368 29.1696 88.7212C28.9989 88.1983 28.9204 87.662 28.9344 87.1125C28.9588 86.5588 29.0763 86.0311 29.287 85.5296C29.507 85.0059 29.8121 84.5483 30.2021 84.1569C30.5953 83.758 31.039 83.4455 31.5332 83.2192C32.0305 82.9856 32.5527 82.8579 33.0999 82.8361C33.6575 82.8101 34.2055 82.9101 34.7439 83.1363C35.3045 83.3718 35.7653 83.7 36.1266 84.1207C36.4952 84.5446 36.7612 85.0164 36.9246 85.5363C37.0953 86.0593 37.1701 86.5939 37.1488 87.1403C37.1349 87.6898 37.0241 88.2117 36.8165 88.7058C36.5965 89.2295 36.2899 89.6908 35.8967 90.0896C35.514 90.4842 35.074 90.7983 34.5767 91.0319C34.0825 91.2581 33.5582 91.3806 33.0036 91.3993C32.4565 91.421 31.9137 91.3188 31.3753 91.0926ZM30.5482 86.0594C30.3933 86.4282 30.302 86.8107 30.2744 87.2069C30.2468 87.6032 30.2826 87.9827 30.3818 88.3454C30.4915 88.7039 30.6688 89.0256 30.9135 89.3107C31.1582 89.5957 31.4723 89.8188 31.8558 89.9799C32.2541 90.1472 32.6422 90.2148 33.0201 90.1827C33.3981 90.1506 33.7476 90.0414 34.0688 89.8553C34.4004 89.6649 34.6928 89.4233 34.946 89.1305C35.2023 88.8303 35.4032 88.5069 35.5489 88.1603C35.7038 87.7915 35.7935 87.4127 35.818 87.0238C35.853 86.6307 35.8157 86.2549 35.706 85.8964C35.5993 85.5306 35.4237 85.2051 35.179 84.9201C34.9417 84.6382 34.6349 84.4182 34.2588 84.2602C33.8605 84.0928 33.4724 84.0252 33.0944 84.0574C32.7165 84.0895 32.3632 84.197 32.0347 84.3801C31.7062 84.5631 31.4116 84.7995 31.1511 85.0892C30.8979 85.382 30.697 85.7054 30.5482 86.0594Z" fill="#222831"/>
<path d="M41.6364 89.2445C41.6889 88.7271 41.8316 88.231 42.0647 87.7561C42.2986 87.2732 42.6112 86.8465 43.0025 86.4761C43.4027 86.0985 43.8695 85.8162 44.4031 85.629C44.9375 85.4339 45.5271 85.369 46.1717 85.4344C46.9358 85.5118 47.5787 85.7539 48.1003 86.1606C48.6228 86.5593 48.9919 87.043 49.2077 87.6116L48.0857 88.2095C47.9612 87.8511 47.7856 87.56 47.5591 87.336C47.3405 87.1128 47.0919 86.9469 46.8135 86.8382C46.5429 86.7304 46.2724 86.6628 46.0018 86.6354C45.5561 86.5902 45.1568 86.6422 44.8039 86.7914C44.4519 86.9326 44.1456 87.1388 43.8849 87.4099C43.6322 87.6818 43.4276 87.9947 43.2711 88.3487C43.1225 88.7036 43.0297 89.0641 42.9926 89.4302C42.9515 89.8361 42.9792 90.2369 43.0758 90.6327C43.1732 91.0205 43.3263 91.3737 43.5353 91.6924C43.753 92.004 44.0205 92.2602 44.3378 92.4613C44.6552 92.6623 45.0128 92.783 45.4108 92.8233C45.6814 92.8507 45.9688 92.8316 46.273 92.766C46.5771 92.7003 46.8627 92.5805 47.1296 92.4065C47.4052 92.2254 47.6316 91.9749 47.8088 91.6552L48.855 92.4005C48.6371 92.8046 48.3262 93.1349 47.9223 93.3915C47.5263 93.6488 47.0899 93.8298 46.6129 93.9342C46.1439 94.0394 45.6865 94.0695 45.2408 94.0243C44.6439 93.9638 44.1112 93.7852 43.6427 93.4884C43.175 93.1837 42.7831 92.8063 42.4669 92.3561C42.1515 91.8979 41.9205 91.4001 41.774 90.8626C41.6282 90.3171 41.5824 89.7777 41.6364 89.2445Z" fill="#222831"/>
<path d="M55.1674 93.4071L53.8283 84.993L55.1556 84.7817L56.4947 93.1959L55.1674 93.4071Z" fill="#222831"/>
<path d="M64.4108 81.7356L65.574 81.2208L72.0508 87.6715L70.7559 88.2445L68.9956 86.4909L65.9889 87.8216L66.1142 90.2989L64.8084 90.8768L64.4108 81.7356ZM68.3511 85.687L65.5897 82.8279L65.8053 86.8137L68.3511 85.687Z" fill="#222831"/>
<path d="M77.2717 83.6528L71.8193 77.106L72.852 76.2459L77.5442 81.8798L81.0573 78.9539L81.8176 79.8668L77.2717 83.6528Z" fill="#222831"/>
<path d="M88.4758 49.1843C88.3768 49.2502 88.2685 49.3511 88.1508 49.487C88.0252 49.6217 87.9033 49.7853 87.7851 49.9778C87.667 50.1703 87.5622 50.381 87.4709 50.6099C87.3796 50.8388 87.3148 51.0798 87.2764 51.3329C87.1926 51.8866 87.2331 52.3135 87.398 52.6136C87.5629 52.9136 87.8273 53.0912 88.1911 53.1464C88.4601 53.1871 88.685 53.1443 88.866 53.018C89.039 52.8905 89.2003 52.6803 89.3499 52.3874C89.4995 52.0945 89.6689 51.7236 89.8582 51.2749C90.079 50.7258 90.316 50.256 90.5694 49.8656C90.8148 49.4739 91.1085 49.1907 91.4506 49.016C91.7926 48.8412 92.2167 48.7922 92.7229 48.8689C93.1501 48.9336 93.5059 49.0684 93.7904 49.2733C94.0749 49.4782 94.2945 49.7381 94.4491 50.0528C94.5958 50.3663 94.6884 50.7161 94.727 51.1022C94.7577 51.4872 94.7407 51.8932 94.676 52.3203C94.6125 52.7395 94.5055 53.1522 94.355 53.5582C94.2057 53.9563 94.0192 54.3326 93.7956 54.6872C93.5653 55.0326 93.3035 55.3449 93.0104 55.6241L91.9631 54.8465C92.0815 54.7592 92.2183 54.6303 92.3736 54.4596C92.5222 54.2798 92.6711 54.0718 92.8202 53.8354C92.9704 53.5912 93.1079 53.3248 93.2325 53.0362C93.3504 52.7385 93.4334 52.4315 93.4813 52.1151C93.5616 51.5851 93.5317 51.1679 93.3917 50.8635C93.245 50.55 92.9977 50.3669 92.6496 50.3142C92.3649 50.2711 92.1257 50.3279 91.932 50.4846C91.7304 50.6402 91.544 50.883 91.3726 51.2131C91.2012 51.5431 91.0197 51.9404 90.8279 52.4049C90.5938 52.9358 90.3615 53.374 90.1312 53.7194C89.893 54.0636 89.621 54.3096 89.3154 54.4575C89.0031 54.5963 88.6295 54.6328 88.1944 54.5669C87.6407 54.483 87.1944 54.2778 86.8555 53.9514C86.5087 53.6238 86.2751 53.2162 86.1547 52.7286C86.0277 52.232 86.0079 51.695 86.0954 51.1176C86.1529 50.7379 86.2509 50.3846 86.3894 50.0577C86.5201 49.7295 86.6787 49.4299 86.8654 49.1588C87.0533 48.8798 87.2568 48.6315 87.4759 48.4139L88.4758 49.1843Z" fill="#222831"/>
<path d="M94.2003 38.5505C94.2863 39.1605 94.2451 39.7278 94.0767 40.2524C93.9083 40.7771 93.6472 41.2461 93.2935 41.6595C92.9318 42.0741 92.5115 42.4161 92.0324 42.6856C91.5443 42.9483 91.0309 43.1177 90.4922 43.1936C89.9298 43.2729 89.3806 43.2453 88.8445 43.1108C88.3006 42.9775 87.8049 42.7565 87.3574 42.448C86.9021 42.1405 86.5249 41.7574 86.2259 41.2987C85.9179 40.8331 85.7231 40.3112 85.6416 39.7329C85.5567 39.1309 85.6025 38.567 85.7788 38.0412C85.954 37.5075 86.223 37.0373 86.5858 36.6307C86.9474 36.2162 87.3684 35.8781 87.8485 35.6165C88.3276 35.347 88.8325 35.1748 89.3633 35.1C89.9257 35.0207 90.4789 35.0477 91.0228 35.1811C91.5577 35.3076 92.0529 35.5246 92.5083 35.8321C92.9557 36.1406 93.3295 36.5283 93.6296 36.9949C93.9286 37.4537 94.1188 37.9722 94.2003 38.5505ZM90.3013 41.839C90.6973 41.7832 91.0726 41.6656 91.4271 41.4864C91.7815 41.3072 92.0891 41.082 92.3498 40.811C92.6015 40.5331 92.787 40.2161 92.9065 39.8599C93.0259 39.5038 93.0566 39.1197 92.9985 38.7078C92.9382 38.28 92.7975 37.9121 92.5763 37.6039C92.3551 37.2958 92.0823 37.0515 91.758 36.871C91.4246 36.6837 91.0673 36.5563 90.6861 36.4889C90.2971 36.4226 89.9164 36.4156 89.544 36.4681C89.148 36.524 88.7767 36.641 88.4301 36.8191C88.0746 36.9904 87.7709 37.215 87.5193 37.4928C87.2597 37.7718 87.0701 38.0894 86.9507 38.4455C86.8301 38.7938 86.7983 39.1699 86.8553 39.5739C86.9156 40.0017 87.0564 40.3696 87.2775 40.6778C87.4987 40.9859 87.7721 41.2342 88.0975 41.4226C88.423 41.611 88.7769 41.7429 89.1592 41.8183C89.5403 41.8857 89.921 41.8926 90.3013 41.839Z" fill="#222831"/>
<path d="M87.3569 30.6845C86.8857 30.9044 86.3865 31.036 85.8592 31.0791C85.3247 31.1256 84.7982 31.0756 84.2796 30.9293C83.7503 30.779 83.2687 30.5227 82.8346 30.1603C82.3933 29.8013 82.0356 29.3282 81.7615 28.741C81.4366 28.0451 81.3152 27.369 81.3972 26.7127C81.4721 26.0597 81.6984 25.495 82.0763 25.0184L83.1645 25.6757C82.9205 25.9662 82.7603 26.2661 82.684 26.5755C82.6043 26.8775 82.5891 27.176 82.6385 27.4708C82.6844 27.7583 82.7649 28.0253 82.88 28.2718C83.0695 28.6778 83.3187 28.994 83.6276 29.2207C83.9292 29.4507 84.2632 29.6082 84.6295 29.6932C84.9925 29.7709 85.3661 29.7863 85.7503 29.7394C86.1311 29.6852 86.4883 29.5803 86.8217 29.4246C87.1914 29.252 87.5215 29.0229 87.8119 28.7372C88.0951 28.4549 88.32 28.1424 88.4867 27.7997C88.6427 27.4532 88.7258 27.0922 88.7359 26.7166C88.746 26.3411 88.6664 25.9721 88.4972 25.6097C88.3821 25.3632 88.2185 25.1262 88.0063 24.8986C87.7941 24.671 87.5449 24.4871 87.2588 24.347C86.962 24.203 86.631 24.1369 86.2656 24.1485L86.3698 22.8683C86.8284 22.8484 87.2714 22.9462 87.6987 23.1617C88.1226 23.3699 88.5015 23.6521 88.8355 24.0082C89.1661 24.3571 89.4262 24.7345 89.6157 25.1405C89.8695 25.6841 89.989 26.2331 89.9741 26.7875C89.952 27.3452 89.8286 27.8752 89.6039 28.3774C89.372 28.8829 89.0627 29.3363 88.6762 29.7375C88.2823 30.1421 87.8426 30.4577 87.3569 30.6845Z" fill="#222831"/>
<path d="M84.0009 16.9312L77.4604 22.3913L76.5991 21.3596L83.1395 15.8995L84.0009 16.9312Z" fill="#222831"/>
<path d="M69.2421 14.9712L68.2041 14.2359L70.4265 5.36907L71.582 6.18759L70.9776 8.5977L73.6606 10.4983L75.724 9.12179L76.8893 9.94725L69.2421 14.9712ZM70.6173 9.56304L69.5763 13.3991L72.8891 11.1723L70.6173 9.56304Z" fill="#222831"/>
<path d="M64.3008 2.94365L61.471 10.98L60.2033 10.5336L62.6385 3.61783L58.3261 2.09932L58.7206 0.97876L64.3008 2.94365Z" fill="#222831"/>
</svg>
