<svg width="95" height="94" viewBox="0 0 95 94" fill="none" xmlns="http://www.w3.org/2000/svg">
<path d="M29.9741 9.22633C30.0792 9.2821 30.2194 9.32947 30.3949 9.36843C30.5731 9.41492 30.775 9.44441 31.0005 9.45691C31.226 9.46941 31.4612 9.46144 31.706 9.433C31.9508 9.40456 32.1936 9.34707 32.4345 9.26052C32.9616 9.0712 33.3179 8.83268 33.5036 8.54497C33.6892 8.25726 33.7199 7.94024 33.5955 7.59391C33.5035 7.33792 33.359 7.16034 33.1618 7.06115C32.9674 6.96948 32.7058 6.92746 32.377 6.93506C32.0482 6.94267 31.6414 6.96979 31.1566 7.01643C30.5686 7.08317 30.0426 7.09787 29.5786 7.06052C29.1174 7.0307 28.7286 6.90684 28.4123 6.68894C28.096 6.47104 27.8513 6.12116 27.6782 5.63931C27.5322 5.23275 27.4817 4.85561 27.5268 4.50788C27.5719 4.16016 27.6962 3.84351 27.8996 3.55792C28.1057 3.27986 28.3695 3.03209 28.6909 2.81463C29.015 2.60469 29.3803 2.4267 29.7869 2.28065C30.1859 2.1373 30.5998 2.03536 31.0286 1.97484C31.4499 1.91701 31.8696 1.90225 32.2878 1.93053C32.7012 1.96905 33.1003 2.05092 33.4853 2.17613L33.2988 3.4672C33.1658 3.40448 32.9873 3.34535 32.7633 3.2898C32.5345 3.24448 32.2807 3.21239 32.002 3.19354C31.7156 3.17738 31.4159 3.18305 31.1028 3.21054C30.7848 3.24826 30.4752 3.32121 30.1741 3.4294C29.6696 3.61061 29.3167 3.83513 29.1154 4.10295C28.9093 4.38101 28.8657 4.68568 28.9848 5.01696C29.0821 5.288 29.2458 5.47147 29.4757 5.56737C29.7084 5.6708 30.0107 5.71948 30.3825 5.71341C30.7544 5.70734 31.1902 5.67828 31.69 5.62623C32.2684 5.57996 32.7643 5.57608 33.1777 5.6146C33.5938 5.66065 33.9395 5.78297 34.2148 5.98157C34.4854 6.19041 34.695 6.50187 34.8438 6.91596C35.0331 7.44299 35.0647 7.93318 34.9385 8.38652C34.8151 8.8474 34.5674 9.24662 34.1957 9.58418C33.8191 9.93198 33.356 10.2046 32.8064 10.402C32.445 10.5319 32.0875 10.6135 31.734 10.647C31.3832 10.688 31.0442 10.6908 30.717 10.6553C30.3822 10.6226 30.067 10.5616 29.7714 10.4722L29.9741 9.22633Z" fill="#F05454"/>
<path d="M17.8973 9.24291C18.3932 8.87737 18.9119 8.64403 19.4535 8.54288C19.9952 8.44173 20.532 8.44854 21.0638 8.56332C21.6005 8.68453 22.1012 8.89186 22.566 9.18529C23.0291 9.4899 23.422 9.86115 23.7449 10.299C24.0819 10.7562 24.3186 11.2526 24.455 11.7881C24.5962 12.3301 24.6373 12.8712 24.5785 13.4116C24.5244 13.9583 24.3666 14.4723 24.105 14.9533C23.8417 15.4456 23.4751 15.865 23.005 16.2115C22.5156 16.5723 21.9977 16.8001 21.4513 16.8948C20.8985 16.9942 20.357 16.981 19.8268 16.855C19.2902 16.7338 18.7927 16.5241 18.3343 16.2259C17.8695 15.9325 17.4781 15.5701 17.16 15.1386C16.823 14.6815 16.5839 14.1819 16.4427 13.6399C16.2999 13.1091 16.2555 12.5703 16.3096 12.0235C16.3685 11.4832 16.5319 10.9701 16.7999 10.4843C17.0615 10.0033 17.4273 9.58945 17.8973 9.24291ZM22.6437 11.1108C22.4064 10.7888 22.1246 10.5145 21.7985 10.2878C21.4723 10.0611 21.1281 9.89749 20.7657 9.79691C20.4016 9.70751 20.0345 9.69489 19.6644 9.75905C19.2942 9.82321 18.9417 9.97872 18.6069 10.2256C18.2592 10.4819 18.0023 10.7806 17.8363 11.1217C17.6703 11.4627 17.5849 11.8188 17.5803 12.19C17.5739 12.5724 17.6317 12.9472 17.7535 13.3147C17.88 13.6885 18.0548 14.0268 18.2779 14.3294C18.5153 14.6514 18.7947 14.9225 19.1161 15.1427C19.4358 15.3742 19.7777 15.5346 20.1417 15.624C20.5106 15.7198 20.8801 15.7356 21.2502 15.6715C21.6139 15.6121 21.9599 15.4613 22.2883 15.2192C22.6361 14.9629 22.8929 14.6642 23.0589 14.3231C23.225 13.9821 23.3135 13.6236 23.3246 13.2477C23.3357 12.8717 23.2836 12.4977 23.1682 12.1255C23.0464 11.7581 22.8716 11.4199 22.6437 11.1108Z" fill="#F05454"/>
<path d="M14.2285 19.0023C14.6459 19.3124 14.9989 19.6891 15.2874 20.1325C15.5823 20.5808 15.7886 21.0678 15.9063 21.5937C16.0256 22.1307 16.0289 22.6763 15.9163 23.2304C15.8102 23.7893 15.5639 24.3289 15.1776 24.8491C14.7196 25.4657 14.1825 25.8938 13.566 26.1335C12.9559 26.378 12.3514 26.4472 11.7525 26.3412L11.8138 25.0713C12.1853 25.148 12.5253 25.1464 12.8337 25.0665C13.1374 24.9931 13.4072 24.8646 13.6431 24.6811C13.8743 24.504 14.071 24.3063 14.2332 24.0879C14.5003 23.7283 14.6601 23.3587 14.7128 22.9793C14.7718 22.6046 14.7517 22.2359 14.6524 21.8732C14.5483 21.5168 14.3843 21.1808 14.1604 20.8651C13.9318 20.5557 13.6697 20.2914 13.3743 20.0719C13.0467 19.8287 12.6883 19.6472 12.2989 19.5274C11.916 19.4124 11.5341 19.363 11.1534 19.3792C10.7743 19.4066 10.4172 19.505 10.082 19.6746C9.74676 19.8442 9.45991 20.0895 9.22142 20.4107C9.05924 20.629 8.92845 20.8857 8.82903 21.1805C8.72962 21.4754 8.68626 21.782 8.69896 22.1003C8.71331 22.4299 8.81242 22.7526 8.99631 23.0686L7.82033 23.5853C7.58487 23.1912 7.46042 22.755 7.44697 22.2766C7.42875 21.8047 7.49696 21.3372 7.65158 20.8741C7.80143 20.4173 8.00992 20.0092 8.27703 19.6495C8.63477 19.1678 9.06105 18.8018 9.55588 18.5515C10.0571 18.3059 10.5821 18.1626 11.1307 18.1217C11.6857 18.0855 12.2316 18.1421 12.7683 18.2916C13.3114 18.4458 13.7981 18.6827 14.2285 19.0023Z" fill="#F05454"/>
<path d="M3.7223 28.491L11.6346 31.651L11.1362 32.8991L3.22383 29.7392L3.7223 28.491Z" fill="#F05454"/>
<path d="M9.01145 42.4082L8.85776 43.6709L0 45.9292L0.171091 44.5236L2.57887 43.91L2.97615 40.6461L0.784408 39.4848L0.956949 38.0672L9.01145 42.4082ZM3.59947 43.7683L7.46942 42.8612L3.93585 41.0047L3.59947 43.7683Z" fill="#F05454"/>
<path d="M0.777053 52.4717L9.19272 51.1424L9.40241 52.4699L2.16019 53.6138L2.87349 58.1299L1.70004 58.3152L0.777053 52.4717Z" fill="#F05454"/>
<path d="M24.6409 79.7503C24.635 79.6315 24.6039 79.4868 24.5474 79.3161C24.4961 79.1392 24.418 78.9508 24.3132 78.7507C24.2084 78.5506 24.0811 78.3527 23.9313 78.1571C23.7815 77.9614 23.6077 77.7823 23.41 77.6197C22.9774 77.264 22.59 77.0801 22.2478 77.0681C21.9056 77.056 21.6177 77.1921 21.3839 77.4763C21.2112 77.6864 21.1327 77.9015 21.1485 78.1217C21.1694 78.3356 21.2673 78.5818 21.4423 78.8603C21.6172 79.1388 21.8489 79.4743 22.1372 79.8667C22.4958 80.3376 22.7779 80.7818 22.9834 81.1994C23.1941 81.6108 23.2868 82.0082 23.2617 82.3914C23.2366 82.7747 23.0615 83.164 22.7363 83.5595C22.4619 83.8932 22.1639 84.1298 21.8421 84.2691C21.5204 84.4085 21.1848 84.464 20.8353 84.4356C20.4909 84.401 20.143 84.3014 19.7916 84.1367C19.4453 83.9659 19.1053 83.7433 18.7716 83.469C18.4441 83.1997 18.1445 82.8964 17.8729 82.5592C17.6074 82.227 17.3797 81.8741 17.1898 81.5004C17.0112 81.1257 16.877 80.7409 16.7873 80.3461L17.9917 79.8449C18.006 79.9913 18.0466 80.1749 18.1136 80.3957C18.1919 80.6154 18.2944 80.8499 18.421 81.099C18.5538 81.3531 18.7122 81.6076 18.8962 81.8625C19.0914 82.1163 19.3127 82.3448 19.5599 82.548C19.9739 82.8884 20.3475 83.0765 20.6806 83.1122C21.025 83.1468 21.309 83.0281 21.5325 82.7562C21.7154 82.5338 21.7892 82.2992 21.7537 82.0526C21.7234 81.7998 21.6104 81.5153 21.4147 81.199C21.219 80.8828 20.9708 80.5233 20.6701 80.1207C20.334 79.6477 20.0767 79.2238 19.898 78.849C19.7244 78.4681 19.6524 78.1085 19.6819 77.7703C19.7227 77.431 19.8828 77.0914 20.1623 76.7515C20.5179 76.3189 20.9227 76.0407 21.3767 75.9169C21.8358 75.7868 22.3055 75.795 22.7858 75.9414C23.2774 76.0866 23.7488 76.3447 24.1999 76.7156C24.4965 76.9595 24.7497 77.2247 24.9596 77.5111C25.1745 77.7914 25.3505 78.0811 25.4877 78.3803C25.6311 78.6846 25.7401 78.9866 25.8148 79.2862L24.6409 79.7503Z" fill="#F05454"/>
<path d="M30.8414 90.1139C30.2735 89.8753 29.8073 89.5493 29.443 89.1359C29.0787 88.7225 28.8096 88.2581 28.6357 87.7425C28.4649 87.2195 28.3865 86.6833 28.4004 86.1338C28.4248 85.58 28.5424 85.0523 28.7531 84.5508C28.9731 84.0271 29.2781 83.5696 29.6682 83.1781C30.0614 82.7792 30.5051 82.4667 30.9993 82.2405C31.4966 82.0068 32.0188 81.8791 32.5659 81.8574C33.1235 81.8313 33.6716 81.9314 34.21 82.1576C34.7705 82.3931 35.2314 82.7212 35.5926 83.142C35.9612 83.5658 36.2272 84.0377 36.3906 84.5575C36.5614 85.0805 36.6361 85.6152 36.6148 86.1616C36.6009 86.7111 36.4902 87.2329 36.2826 87.7271C36.0626 88.2507 35.756 88.712 35.3628 89.1108C34.9801 89.5054 34.5401 89.8195 34.0428 90.0531C33.5486 90.2794 33.0242 90.4018 32.4697 90.4205C31.9226 90.4423 31.3798 90.3401 30.8414 90.1139ZM30.0143 85.0807C29.8594 85.4494 29.7681 85.8319 29.7405 86.2282C29.7128 86.6244 29.7487 87.0039 29.8479 87.3666C29.9576 87.7251 30.1348 88.0469 30.3795 88.3319C30.6242 88.6169 30.9383 88.84 31.3219 89.0011C31.7202 89.1685 32.1083 89.2361 32.4862 89.2039C32.8641 89.1718 33.2137 89.0627 33.5349 88.8765C33.8665 88.6861 34.1589 88.4445 34.4121 88.1517C34.6683 87.8516 34.8693 87.5282 35.0149 87.1815C35.1699 86.8127 35.2596 86.4339 35.2841 86.0451C35.3191 85.6519 35.2817 85.2761 35.172 84.9176C35.0654 84.5518 34.8898 84.2264 34.6451 83.9413C34.4077 83.6594 34.101 83.4394 33.7248 83.2814C33.3265 83.1141 32.9384 83.0465 32.5605 83.0786C32.1826 83.1107 31.8293 83.2183 31.5008 83.4013C31.1722 83.5844 30.8777 83.8207 30.6171 84.1104C30.364 84.4032 30.163 84.7266 30.0143 85.0807Z" fill="#F05454"/>
<path d="M41.1025 88.2657C41.1549 87.7484 41.2977 87.2522 41.5308 86.7773C41.7646 86.2944 42.0773 85.8678 42.4686 85.4974C42.8687 85.1198 43.3356 84.8374 43.8692 84.6503C44.4036 84.4552 44.9931 84.3903 45.6378 84.4556C46.4019 84.5331 47.0448 84.7751 47.5664 85.1818C48.0889 85.5805 48.458 86.0642 48.6737 86.6329L47.5517 87.2308C47.4272 86.8724 47.2517 86.5812 47.0251 86.3572C46.8065 86.134 46.558 85.9681 46.2795 85.8595C46.009 85.7517 45.7385 85.684 45.4678 85.6566C45.0221 85.6114 44.6228 85.6634 44.27 85.8126C43.918 85.9538 43.6116 86.16 43.351 86.4311C43.0982 86.703 42.8936 87.016 42.7371 87.37C42.5886 87.7248 42.4958 88.0853 42.4587 88.4514C42.4175 88.8573 42.4453 89.2582 42.5418 89.6539C42.6392 90.0417 42.7924 90.395 43.0013 90.7137C43.219 91.0252 43.4865 91.2815 43.8039 91.4825C44.1212 91.6835 44.4789 91.8042 44.8768 91.8446C45.1475 91.872 45.4349 91.8529 45.739 91.7872C46.0432 91.7215 46.3287 91.6017 46.5956 91.4277C46.8713 91.2466 47.0977 90.9962 47.2749 90.6764L48.321 91.4217C48.1032 91.8258 47.7923 92.1561 47.3884 92.4127C46.9924 92.6701 46.5559 92.851 46.079 92.9554C45.6099 93.0607 45.1526 93.0907 44.7069 93.0455C44.1099 92.985 43.5772 92.8064 43.1088 92.5097C42.6411 92.2049 42.2492 91.8275 41.933 91.3773C41.6175 90.9192 41.3866 90.4213 41.24 89.8838C41.0943 89.3384 41.0484 88.799 41.1025 88.2657Z" fill="#F05454"/>
<path d="M54.6335 92.4283L53.2944 84.0142L54.6217 83.803L55.9608 92.2171L54.6335 92.4283Z" fill="#F05454"/>
<path d="M63.8769 80.7569L65.04 80.2421L71.5168 86.6927L70.222 87.2658L68.4617 85.5122L65.455 86.8429L65.5803 89.3201L64.2745 89.898L63.8769 80.7569ZM67.8172 84.7082L65.0558 81.8492L65.2713 85.835L67.8172 84.7082Z" fill="#F05454"/>
<path d="M76.7378 82.674L71.2853 76.1272L72.3181 75.2671L77.0102 80.9011L80.5234 77.9752L81.2837 78.8881L76.7378 82.674Z" fill="#F05454"/>
<path d="M87.9418 48.2055C87.8429 48.2715 87.7345 48.3724 87.6168 48.5083C87.4912 48.643 87.3694 48.8066 87.2512 48.9991C87.133 49.1915 87.0283 49.4022 86.937 49.6311C86.8457 49.86 86.7809 50.101 86.7425 50.3541C86.6586 50.9078 86.6992 51.3347 86.8641 51.6348C87.029 51.9349 87.2934 52.1125 87.6572 52.1676C87.9261 52.2083 88.1511 52.1656 88.3321 52.0392C88.5051 51.9117 88.6664 51.7015 88.816 51.4086C88.9655 51.1157 89.135 50.7449 89.3243 50.2962C89.545 49.7471 89.7821 49.2773 90.0354 48.8868C90.2809 48.4951 90.5746 48.2119 90.9166 48.0372C91.2586 47.8624 91.6828 47.8134 92.189 47.8901C92.6161 47.9548 92.9719 48.0896 93.2565 48.2945C93.541 48.4995 93.7605 48.7593 93.9152 49.074C94.0619 49.3875 94.1545 49.7373 94.1931 50.1235C94.2238 50.5084 94.2068 50.9144 94.1421 51.3416C94.0786 51.7608 93.9716 52.1734 93.8211 52.5794C93.6717 52.9776 93.4853 53.3539 93.2617 53.7084C93.0313 54.0538 92.7696 54.3661 92.4765 54.6454L91.4291 53.8677C91.5475 53.7805 91.6844 53.6515 91.8397 53.4809C91.9883 53.3011 92.1371 53.093 92.2862 52.8567C92.4365 52.6124 92.5739 52.346 92.6986 52.0574C92.8165 51.7597 92.8994 51.4527 92.9473 51.1363C93.0276 50.6064 92.9978 50.1892 92.8578 49.8848C92.7111 49.5713 92.4637 49.3882 92.1157 49.3354C91.8309 49.2923 91.5917 49.3491 91.3981 49.5059C91.1965 49.6614 91.01 49.9042 90.8387 50.2343C90.6673 50.5644 90.4857 50.9616 90.294 51.4262C90.0598 51.9571 89.8276 52.3952 89.5973 52.7406C89.359 53.0848 89.0871 53.3309 88.7815 53.4788C88.4692 53.6176 88.0955 53.654 87.6605 53.5881C87.1068 53.5042 86.6605 53.2991 86.3216 52.9726C85.9747 52.645 85.7411 52.2374 85.6208 51.7499C85.4938 51.2533 85.474 50.7162 85.5614 50.1388C85.619 49.7592 85.717 49.4059 85.8555 49.0789C85.9861 48.7508 86.1448 48.4512 86.3315 48.1801C86.5194 47.9011 86.7229 47.6527 86.942 47.4351L87.9418 48.2055Z" fill="#F05454"/>
<path d="M93.6664 37.5717C93.7524 38.1817 93.7112 38.749 93.5428 39.2736C93.3744 39.7983 93.1133 40.2673 92.7596 40.6808C92.3979 41.0953 91.9775 41.4374 91.4985 41.7069C91.0104 41.9696 90.497 42.1389 89.9583 42.2149C89.3959 42.2942 88.8466 42.2666 88.3106 42.1321C87.7667 41.9987 87.271 41.7777 86.8235 41.4692C86.3681 41.1618 85.991 40.7787 85.692 40.3199C85.384 39.8543 85.1892 39.3324 85.1077 38.7541C85.0228 38.1521 85.0685 37.5882 85.2448 37.0624C85.4201 36.5287 85.689 36.0586 86.0518 35.652C86.4135 35.2374 86.8344 34.8993 87.3146 34.6377C87.7937 34.3682 88.2986 34.196 88.8293 34.1212C89.3918 34.0419 89.945 34.069 90.4889 34.2023C91.0238 34.3289 91.519 34.5459 91.9743 34.8533C92.4218 35.1619 92.7956 35.5495 93.0957 36.0162C93.3946 36.4749 93.5849 36.9934 93.6664 37.5717ZM89.7673 40.8603C90.1634 40.8044 90.5387 40.6869 90.8931 40.5076C91.2476 40.3284 91.5552 40.1033 91.8159 39.8322C92.0675 39.5543 92.2531 39.2373 92.3725 38.8812C92.492 38.525 92.5227 38.141 92.4646 37.729C92.4043 37.3013 92.2635 36.9333 92.0424 36.6252C91.8212 36.317 91.5484 36.0727 91.224 35.8922C90.8906 35.705 90.5333 35.5776 90.1522 35.5101C89.7631 35.4438 89.3824 35.4369 89.0101 35.4894C88.614 35.5452 88.2427 35.6622 87.8962 35.8403C87.5406 36.0116 87.237 36.2362 86.9853 36.5141C86.7257 36.793 86.5362 37.1106 86.4168 37.4668C86.2962 37.815 86.2644 38.1911 86.3214 38.5951C86.3817 39.0229 86.5224 39.3909 86.7436 39.699C86.9648 40.0072 87.2381 40.2554 87.5636 40.4438C87.8891 40.6322 88.243 40.7641 88.6252 40.8395C89.0064 40.9069 89.3871 40.9139 89.7673 40.8603Z" fill="#F05454"/>
<path d="M86.823 29.7057C86.3518 29.9257 85.8526 30.0572 85.3253 30.1003C84.7908 30.1468 84.2642 30.0969 83.7456 29.9505C83.2164 29.8003 82.7347 29.544 82.3007 29.1815C81.8594 28.8225 81.5017 28.3494 81.2275 27.7623C80.9027 27.0664 80.7813 26.3902 80.8633 25.7339C80.9381 25.081 81.1645 24.5162 81.5423 24.0396L82.6306 24.697C82.3866 24.9875 82.2264 25.2874 82.1501 25.5967C82.0704 25.8988 82.0552 26.1972 82.1045 26.492C82.1505 26.7796 82.231 27.0466 82.3461 27.2931C82.5356 27.699 82.7848 28.0153 83.0936 28.2419C83.3952 28.4719 83.7292 28.6294 84.0956 28.7144C84.4585 28.7922 84.8321 28.8076 85.2164 28.7606C85.5972 28.7064 85.9543 28.6015 86.2878 28.4458C86.6575 28.2732 86.9875 28.0441 87.2779 27.7584C87.5611 27.4762 87.786 27.1637 87.9527 26.821C88.1088 26.4744 88.1919 26.1134 88.202 25.7379C88.212 25.3624 88.1325 24.9934 87.9633 24.6309C87.8482 24.3845 87.6846 24.1474 87.4724 23.9198C87.2602 23.6922 87.011 23.5084 86.7249 23.3682C86.4281 23.2243 86.097 23.1581 85.7317 23.1698L85.8359 21.8895C86.2945 21.8696 86.7375 21.9674 87.1647 22.1829C87.5886 22.3911 87.9676 22.6733 88.3016 23.0295C88.6322 23.3783 88.8923 23.7558 89.0818 24.1617C89.3356 24.7054 89.4551 25.2544 89.4402 25.8087C89.418 26.3665 89.2946 26.8964 89.07 27.3986C88.8381 27.9042 88.5288 28.3575 88.1422 28.7587C87.7484 29.1633 87.3087 29.479 86.823 29.7057Z" fill="#F05454"/>
<path d="M83.4669 15.9524L76.9265 21.4126L76.0652 20.3808L82.6056 14.9207L83.4669 15.9524Z" fill="#F05454"/>
<path d="M68.7081 13.9924L67.6702 13.2571L69.8926 4.39031L71.0481 5.20884L70.4437 7.61894L73.1267 9.51957L75.1901 8.14303L76.3553 8.96849L68.7081 13.9924ZM70.0834 8.58428L69.0424 12.4204L72.3551 10.1936L70.0834 8.58428Z" fill="#F05454"/>
<path d="M63.7669 1.96489L60.9371 10.0012L59.6694 9.55485L62.1046 2.63907L57.7921 1.12056L58.1867 0L63.7669 1.96489Z" fill="#F05454"/>
</svg>
