<svg width="42" height="42" viewBox="0 0 42 42" fill="none" xmlns="http://www.w3.org/2000/svg">
<path d="M21 31.5C23.7848 31.5 26.4555 30.3938 28.4246 28.4246C30.3938 26.4555 31.5 23.7848 31.5 21C31.5 18.2152 30.3938 15.5445 28.4246 13.5754C26.4555 11.6062 23.7848 10.5 21 10.5C18.2152 10.5 15.5445 11.6062 13.5754 13.5754C11.6062 15.5445 10.5 18.2152 10.5 21C10.5 23.7848 11.6062 26.4555 13.5754 28.4246C15.5445 30.3938 18.2152 31.5 21 31.5V31.5ZM21 0C21.3481 0 21.6819 0.138281 21.9281 0.384422C22.1742 0.630564 22.3125 0.964403 22.3125 1.3125V6.5625C22.3125 6.9106 22.1742 7.24444 21.9281 7.49058C21.6819 7.73672 21.3481 7.875 21 7.875C20.6519 7.875 20.3181 7.73672 20.0719 7.49058C19.8258 7.24444 19.6875 6.9106 19.6875 6.5625V1.3125C19.6875 0.964403 19.8258 0.630564 20.0719 0.384422C20.3181 0.138281 20.6519 0 21 0V0ZM21 34.125C21.3481 34.125 21.6819 34.2633 21.9281 34.5094C22.1742 34.7556 22.3125 35.0894 22.3125 35.4375V40.6875C22.3125 41.0356 22.1742 41.3694 21.9281 41.6156C21.6819 41.8617 21.3481 42 21 42C20.6519 42 20.3181 41.8617 20.0719 41.6156C19.8258 41.3694 19.6875 41.0356 19.6875 40.6875V35.4375C19.6875 35.0894 19.8258 34.7556 20.0719 34.5094C20.3181 34.2633 20.6519 34.125 21 34.125V34.125ZM42 21C42 21.3481 41.8617 21.6819 41.6156 21.9281C41.3694 22.1742 41.0356 22.3125 40.6875 22.3125H35.4375C35.0894 22.3125 34.7556 22.1742 34.5094 21.9281C34.2633 21.6819 34.125 21.3481 34.125 21C34.125 20.6519 34.2633 20.3181 34.5094 20.0719C34.7556 19.8258 35.0894 19.6875 35.4375 19.6875H40.6875C41.0356 19.6875 41.3694 19.8258 41.6156 20.0719C41.8617 20.3181 42 20.6519 42 21ZM7.875 21C7.875 21.3481 7.73672 21.6819 7.49058 21.9281C7.24444 22.1742 6.9106 22.3125 6.5625 22.3125H1.3125C0.964403 22.3125 0.630564 22.1742 0.384422 21.9281C0.138281 21.6819 0 21.3481 0 21C0 20.6519 0.138281 20.3181 0.384422 20.0719C0.630564 19.8258 0.964403 19.6875 1.3125 19.6875H6.5625C6.9106 19.6875 7.24444 19.8258 7.49058 20.0719C7.73672 20.3181 7.875 20.6519 7.875 21ZM35.8496 6.15037C36.0957 6.3965 36.2339 6.73028 36.2339 7.07831C36.2339 7.42634 36.0957 7.76012 35.8496 8.00625L32.1379 11.7206C32.0158 11.8425 31.871 11.9391 31.7116 12.005C31.5523 12.0709 31.3815 12.1047 31.209 12.1046C30.8607 12.1044 30.5268 11.9658 30.2807 11.7193C30.1588 11.5973 30.0622 11.4524 29.9963 11.2931C29.9304 11.1337 29.8966 10.9629 29.8967 10.7904C29.897 10.4422 30.0355 10.1082 30.282 9.86212L33.9937 6.15037C34.2399 5.90432 34.5737 5.76609 34.9217 5.76609C35.2697 5.76609 35.6035 5.90432 35.8496 6.15037V6.15037ZM11.718 30.282C11.9641 30.5281 12.1023 30.8619 12.1023 31.2099C12.1023 31.558 11.9641 31.8917 11.718 32.1379L8.00625 35.8496C7.75871 36.0887 7.42717 36.221 7.08304 36.218C6.7389 36.215 6.40971 36.077 6.16636 35.8336C5.92302 35.5903 5.78498 35.2611 5.78199 34.917C5.779 34.5728 5.91129 34.2413 6.15037 33.9937L9.86212 30.282C10.1083 30.0359 10.442 29.8977 10.7901 29.8977C11.1381 29.8977 11.4719 30.0359 11.718 30.282V30.282ZM35.8496 35.8496C35.6035 36.0957 35.2697 36.2339 34.9217 36.2339C34.5737 36.2339 34.2399 36.0957 33.9937 35.8496L30.282 32.1379C30.0429 31.8903 29.9106 31.5588 29.9136 31.2147C29.9166 30.8705 30.0546 30.5413 30.298 30.298C30.5413 30.0546 30.8705 29.9166 31.2147 29.9136C31.5588 29.9106 31.8903 30.0429 32.1379 30.282L35.8496 33.9937C36.0957 34.2399 36.2339 34.5737 36.2339 34.9217C36.2339 35.2697 36.0957 35.6035 35.8496 35.8496ZM11.718 11.7206C11.4719 11.9667 11.1381 12.1049 10.7901 12.1049C10.442 12.1049 10.1083 11.9667 9.86212 11.7206L6.15037 8.00625C6.02502 7.88518 5.92503 7.74035 5.85624 7.58022C5.78746 7.42009 5.75125 7.24786 5.74973 7.07359C5.74822 6.89932 5.78143 6.72649 5.84742 6.56519C5.91342 6.40388 6.01087 6.25734 6.13411 6.13411C6.25734 6.01087 6.40388 5.91342 6.56519 5.84742C6.72649 5.78143 6.89932 5.74822 7.07359 5.74973C7.24786 5.75125 7.42009 5.78746 7.58022 5.85624C7.74035 5.92503 7.88518 6.02502 8.00625 6.15037L11.718 9.86212C11.8402 9.98404 11.9372 10.1289 12.0034 10.2883C12.0695 10.4478 12.1036 10.6187 12.1036 10.7914C12.1036 10.964 12.0695 11.135 12.0034 11.2944C11.9372 11.4539 11.8402 11.5987 11.718 11.7206V11.7206Z" fill="#222831"/>
</svg>
