<svg width="679" height="146" viewBox="0 0 679 146" fill="none" xmlns="http://www.w3.org/2000/svg">
<path d="M39.5 135C61.3153 135 79 117.315 79 95.5C79 73.6848 61.3153 56 39.5 56C17.6848 56 0 73.6848 0 95.5C0 117.315 17.6848 135 39.5 135Z" fill="#0E9BFF"/>
<path d="M70.5 134.999C107 102.999 87 51.4988 45 45.9988C68 19.9999 114.5 28.5 119 70.4988C158 73.9988 160.5 129.499 119 134.999H70.5Z" fill="#0E9BFF"/>
<path d="M187.505 100.209C194.666 100.209 200.897 96.9541 202.85 92.2111L203.687 99.0001H213.638V71.1001C213.638 58.3591 206.012 51.6631 193.643 51.6631C181.181 51.6631 172.997 58.1731 172.997 68.1241H182.669C182.669 63.2881 186.389 60.4981 193.085 60.4981C198.851 60.4981 202.571 63.0091 202.571 69.2401V70.2631L188.807 71.2861C177.926 72.1231 171.788 77.4241 171.788 85.8871C171.788 94.5361 177.74 100.209 187.505 100.209ZM191.225 91.6531C186.11 91.6531 183.32 89.6071 183.32 85.4221C183.32 81.7021 186.017 79.3771 193.085 78.7261L202.664 77.9821V80.4001C202.664 87.4681 198.2 91.6531 191.225 91.6531ZM236.223 99.0001V29.8081H224.97V99.0001H236.223ZM259.564 99.0001V29.8081H248.311V99.0001H259.564ZM292.998 85.0501C292.998 94.0711 300.252 100.209 311.691 100.209C323.037 100.209 330.942 94.4431 330.942 85.1431C330.942 78.0751 327.036 74.5411 319.317 72.7741L311.04 70.8211C307.134 69.8911 305.088 68.2171 305.088 65.6131C305.088 62.1721 307.692 60.1261 312.156 60.1261C316.527 60.1261 319.131 62.6371 319.224 66.5431H330.012C329.919 57.6151 322.944 51.6631 312.621 51.6631C302.019 51.6631 294.393 57.0571 294.393 66.0781C294.393 73.4251 298.392 77.3311 306.669 79.1911L314.946 81.1441C319.038 82.0741 320.247 83.7481 320.247 86.0731C320.247 89.4211 317.364 91.5601 312.063 91.5601C306.855 91.5601 303.879 89.0491 303.786 85.0501H292.998ZM336.884 75.9361C336.884 90.2581 347.207 100.116 361.436 100.116C375.665 100.116 385.988 90.2581 385.988 75.9361C385.988 61.6141 375.665 51.7561 361.436 51.7561C347.207 51.7561 336.884 61.6141 336.884 75.9361ZM348.23 75.9361C348.23 67.5661 353.624 61.8931 361.436 61.8931C369.248 61.8931 374.642 67.5661 374.642 75.9361C374.642 84.3061 369.248 89.9791 361.436 89.9791C353.624 89.9791 348.23 84.3061 348.23 75.9361ZM406.42 99.0001V29.8081H395.167V99.0001H406.42ZM449.477 53.0581V77.1451C449.477 85.8871 446.036 90.0721 438.875 90.0721C432.551 90.0721 429.11 86.5381 429.11 77.7961V53.0581H417.764V81.7951C417.764 93.0481 423.995 100.209 434.597 100.209C440.735 100.209 446.687 97.2331 449.477 92.8621L450.314 99.0001H460.823V53.0581H449.477ZM488.166 99.0001V62.5441H497.094V53.0581H488.166V38.7361H476.82V53.0581H467.985V62.5441H476.82V99.0001H488.166ZM509.82 43.8511C513.54 43.8511 516.609 40.7821 516.609 36.9691C516.609 33.1561 513.54 30.1801 509.82 30.1801C505.914 30.1801 502.845 33.1561 502.845 36.9691C502.845 40.7821 505.914 43.8511 509.82 43.8511ZM504.147 99.0001H515.493V53.0581H504.147V99.0001ZM524.518 75.9361C524.518 90.2581 534.841 100.116 549.07 100.116C563.299 100.116 573.622 90.2581 573.622 75.9361C573.622 61.6141 563.299 51.7561 549.07 51.7561C534.841 51.7561 524.518 61.6141 524.518 75.9361ZM535.864 75.9361C535.864 67.5661 541.258 61.8931 549.07 61.8931C556.882 61.8931 562.276 67.5661 562.276 75.9361C562.276 84.3061 556.882 89.9791 549.07 89.9791C541.258 89.9791 535.864 84.3061 535.864 75.9361ZM593.962 99.0001V74.2621C593.962 66.8221 598.24 61.9861 605.215 61.9861C611.074 61.9861 614.887 65.7061 614.887 73.4251V99.0001H626.233V70.7281C626.233 58.8241 620.281 51.6631 608.749 51.6631C602.518 51.6631 596.938 54.3601 594.055 59.0101L593.125 53.0581H582.616V99.0001H593.962ZM633.302 85.0501C633.302 94.0711 640.556 100.209 651.995 100.209C663.341 100.209 671.246 94.4431 671.246 85.1431C671.246 78.0751 667.34 74.5411 659.621 72.7741L651.344 70.8211C647.438 69.8911 645.392 68.2171 645.392 65.6131C645.392 62.1721 647.996 60.1261 652.46 60.1261C656.831 60.1261 659.435 62.6371 659.528 66.5431H670.316C670.223 57.6151 663.248 51.6631 652.925 51.6631C642.323 51.6631 634.697 57.0571 634.697 66.0781C634.697 73.4251 638.696 77.3311 646.973 79.1911L655.25 81.1441C659.342 82.0741 660.551 83.7481 660.551 86.0731C660.551 89.4211 657.668 91.5601 652.367 91.5601C647.159 91.5601 644.183 89.0491 644.09 85.0501H633.302Z" fill="#0E9BFF"/>
<path d="M171.896 133V126.4H179.636V133H181.056V118.68H179.636V125.06H171.896V118.68H170.456V133H171.896ZM200.738 133V131.68H193.598V126.46H200.058V125.16H193.598V120H200.718V118.68H192.158V133H200.738ZM211.262 133L212.662 129.2H219.262L220.662 133H222.162L216.842 118.68H215.062L209.802 133H211.262ZM215.762 120.7C215.842 120.5 215.922 120.24 215.942 120.12C215.962 120.26 216.062 120.5 216.122 120.7L218.802 127.94H213.102L215.762 120.7ZM228.944 120H233.344V133H234.784V120H239.204V118.68H228.944V120ZM250.226 118.68H248.786V133H250.226V118.68ZM262.748 133V121.08L270.648 133H272.068V118.68H270.648V130.6L262.768 118.68H261.308V133H262.748ZM289.166 119.8C291.266 119.8 292.946 120.8 293.546 122.76H295.106C294.546 120.16 292.206 118.44 289.186 118.44C285.086 118.44 282.286 121.52 282.286 125.9C282.286 130.32 285.086 133.24 289.146 133.24C291.466 133.24 293.266 132.16 294.026 130.74L294.166 133.02H295.306V125.26H288.766V126.54H293.946V127.28C293.946 130.72 291.606 131.88 289.206 131.88C285.986 131.88 283.786 129.62 283.786 125.9C283.786 122.24 285.866 119.8 289.166 119.8ZM327.12 125.64V126.88H331.5V131.28H332.74V126.88H337.12V125.64H332.74V121.26H331.5V125.64H327.12ZM369.556 133L370.956 129.2H377.556L378.956 133H380.456L375.136 118.68H373.356L368.096 133H369.556ZM374.056 120.7C374.136 120.5 374.216 120.24 374.236 120.12C374.256 120.26 374.356 120.5 374.416 120.7L377.096 127.94H371.396L374.056 120.7ZM391.487 118.68H390.047V133H391.487V118.68ZM404.009 133V127.06H408.189L411.109 133H412.709L409.649 126.82C411.489 126.32 412.569 124.88 412.569 122.82C412.569 120.28 410.809 118.68 407.909 118.68H402.569V133H404.009ZM404.009 119.98H407.909C409.869 119.98 411.089 121 411.089 122.86C411.089 124.68 409.929 125.76 407.949 125.76H404.009V119.98ZM453.549 133.22C456.629 133.22 459.129 131.4 459.789 128.7H458.249C457.629 130.62 455.829 131.84 453.569 131.84C450.429 131.84 448.329 129.44 448.329 125.84C448.329 122.22 450.429 119.82 453.569 119.82C455.809 119.82 457.569 121.08 458.169 123.14H459.709C459.129 120.3 456.709 118.44 453.629 118.44C449.589 118.44 446.829 121.44 446.829 125.84C446.829 130.24 449.549 133.22 453.549 133.22ZM482.639 125.84C482.639 121.48 479.839 118.42 475.819 118.42C471.819 118.42 468.999 121.5 468.999 125.84C468.999 130.18 471.799 133.24 475.819 133.24C479.819 133.24 482.639 130.18 482.639 125.84ZM481.159 125.84C481.159 129.4 478.979 131.86 475.819 131.86C472.659 131.86 470.499 129.42 470.499 125.84C470.499 122.26 472.659 119.82 475.819 119.82C478.979 119.82 481.159 122.26 481.159 125.84ZM494.29 133V121.08L502.19 133H503.61V118.68H502.19V130.6L494.31 118.68H492.85V133H494.29ZM519.068 133C523.368 133 526.228 130.12 526.228 125.84C526.228 121.56 523.348 118.68 519.028 118.68H514.708V133H519.068ZM518.968 120C522.508 120 524.748 122.26 524.748 125.84C524.748 129.4 522.508 131.68 519.008 131.68H516.148V120H518.968ZM537.869 118.68H536.429V133H537.869V118.68ZM547.451 120H551.851V133H553.291V120H557.711V118.68H547.451V120ZM568.733 118.68H567.293V133H568.733V118.68ZM592.575 125.84C592.575 121.48 589.775 118.42 585.755 118.42C581.755 118.42 578.935 121.5 578.935 125.84C578.935 130.18 581.735 133.24 585.755 133.24C589.755 133.24 592.575 130.18 592.575 125.84ZM591.095 125.84C591.095 129.4 588.915 131.86 585.755 131.86C582.595 131.86 580.435 129.42 580.435 125.84C580.435 122.26 582.595 119.82 585.755 119.82C588.915 119.82 591.095 122.26 591.095 125.84ZM604.226 133V121.08L612.126 133H613.546V118.68H612.126V130.6L604.246 118.68H602.786V133H604.226ZM626.084 118.68H624.644V133H626.084V118.68ZM638.606 133V121.08L646.506 133H647.926V118.68H646.506V130.6L638.626 118.68H637.166V133H638.606ZM665.024 119.8C667.124 119.8 668.804 120.8 669.404 122.76H670.964C670.404 120.16 668.064 118.44 665.044 118.44C660.944 118.44 658.144 121.52 658.144 125.9C658.144 130.32 660.944 133.24 665.004 133.24C667.324 133.24 669.124 132.16 669.884 130.74L670.024 133.02H671.164V125.26H664.624V126.54H669.804V127.28C669.804 130.72 667.464 131.88 665.064 131.88C661.844 131.88 659.644 129.62 659.644 125.9C659.644 122.24 661.724 119.8 665.024 119.8Z" fill="#0E9BFF"/>
</svg>
