<svg width="598" height="598" viewBox="0 0 598 598" fill="none" xmlns="http://www.w3.org/2000/svg">
<circle cx="299" cy="299" r="299" fill="white"/>
<path d="M428.5 142.5C392.564 112.435 344.519 93 294 93C179.677 93 87 185.677 87 300C87 414.323 179.677 507 294 507C362.389 507 423.032 473.835 460.723 422.711M457.735 173.336C478.374 199.976 492.352 231.289 498 266M466.244 414.848C488.199 381.986 501 342.488 501 300C501 295.771 500.873 291.572 500.623 287.406M499.806 277.635C499.615 275.856 499.401 274.084 499.165 272.319" stroke="#313131" stroke-width="2"/>
<path d="M499.5 284C500.372 291.713 501 302.054 501 310C501 325.606 499.273 340.808 496 355.426M498.591 278.323C498.565 278.151 498.538 277.979 498.512 277.807C498.349 276.765 498.178 275.725 498 274.688M497.5 270C490.988 237.47 475.819 206.579 456 181.5L454 178.655C450.111 173.923 446.016 169.367 441.73 165L440 163.5M490.087 376.5C462.388 458.201 385.061 517 294 517C179.677 517 87 424.323 87 310C87 195.677 179.677 103 294 103C349.888 103 400.602 125.148 437.846 161.146" stroke="#313131" stroke-width="2"/>
<path d="M462.059 435L458.059 436.5L462.559 435.5C472.515 433.919 476.28 431.59 480.559 425.5C471.75 426.265 467.644 428.28 462.059 435Z" stroke="#313131" stroke-width="2"/>
<path d="M449.559 384C447.605 402.414 450.431 411.578 463.559 425.5L465.059 423C468.425 404.612 465.218 396.002 449.559 384Z" stroke="#313131" stroke-width="2"/>
<path d="M450.059 385C458.856 400.895 461.577 409.366 464.059 424" stroke="#313131" stroke-width="2"/>
<path d="M485.154 377H487.154C489.647 360.764 486.029 350.061 470.154 328C459.654 359.5 478.154 366.5 485.154 377Z" stroke="#313131" stroke-width="2"/>
<path d="M470.654 329C476.654 359 482.154 358.5 486.154 376.5" stroke="#313131" stroke-width="2"/>
<path d="M545 333.085C545 333.085 497 329.085 488 376.085L488.5 377.085C523.5 373.085 516.5 350.085 545 333.085Z" stroke="#313131" stroke-width="2"/>
<path d="M545.5 333.585C516.5 339.585 513.5 359.585 488.5 376.585" stroke="#313131" stroke-width="2"/>
<path d="M492.926 301.323L500.2 329L493.353 301.323C497.688 297.771 497.531 293.125 495.065 282.6C492.292 284.76 491.013 286.282 489.93 290.333C487.566 287.702 485.827 286.677 481.8 285.856C484.921 294.052 487.48 297.222 492.926 301.323Z" stroke="#313131" stroke-width="2"/>
<path d="M486.395 306.791C487.22 303.684 488.356 302.473 491.995 301.591L492.395 301.991C490.888 305.128 489.55 306.134 486.395 306.791Z" stroke="#313131" stroke-width="2"/>
<path d="M500.795 304.791C499.525 302.085 498.367 301.038 494.395 301.191L493.995 301.591C496.397 304.458 497.901 305.037 500.795 304.791Z" stroke="#313131" stroke-width="2"/>
<path d="M475.995 294.391L482.395 287.591L481.195 285.991C478.339 288.175 476.576 289.297 471.995 290.391C471.995 290.391 466.795 290.791 465.195 290.391C463.595 289.991 450.795 281.591 449.195 283.991C447.995 286.791 452.513 290.961 457.995 291.991L468.795 292.791C468.795 292.791 460.6 293 455.595 296.391C450.59 299.782 453.595 300.391 456.395 299.591C459.195 298.791 472.395 293.991 472.395 293.991C467.274 302.215 465.1 306.652 469.995 312.391C472.596 313.679 473.573 313.521 473.995 310.791V299.191C474.124 296.965 474.505 295.882 475.995 294.391Z" stroke="#313131" stroke-width="2"/>
<path d="M471.595 294.791C463.347 302.054 459.065 305.146 452.795 306.791" stroke="#313131" stroke-width="2"/>
<path d="M469.595 295.991L457.195 313.191" stroke="#313131" stroke-width="2"/>
<path d="M470.795 295.191C464.395 300.791 463.595 307.191 463.595 319.191" stroke="#313131" stroke-width="2"/>
<ellipse cx="452.795" cy="306.391" rx="2" ry="2.8" fill="#313131"/>
<ellipse cx="456.795" cy="312.791" rx="2.8" ry="2" transform="rotate(32.6641 456.795 312.791)" fill="#313131"/>
<ellipse cx="462.76" cy="319.354" rx="3.2" ry="2" transform="rotate(23.9855 462.76 319.354)" fill="#313131"/>
<path d="M481.595 286.791C463.409 283.651 454.554 281.213 449.995 271.191C449.995 271.191 449.69 267.081 453.595 268.791C462.219 277.266 469.017 280.523 481.595 285.991C466.47 272.773 462.595 266.749 463.195 258.391C463.135 257.3 465.487 252.818 467.995 257.591L474.395 273.991C473.544 269.314 473.013 266.693 473.995 261.991C474.337 261.183 476.494 260.372 477.595 263.191C478.689 271.566 479.961 275.383 483.195 280.791C482.574 278.154 482.428 276.561 482.395 273.591C483.431 272.029 484.172 272.318 485.595 273.591C486.744 275.225 487.146 276.302 487.595 278.391C484.554 268.072 483.779 262.066 484.795 250.791C485.542 247.121 488.861 250.118 488.395 250.791C491.995 259.591 488.395 271.191 488.795 278.391C488.731 275.77 491.117 268.858 491.195 269.191C491.551 268.128 494.471 266.854 494.795 270.391C494.395 272.453 494.179 273.613 493.595 275.591C496.063 270.995 497.469 269.994 499.995 269.191C499.747 274.022 497.753 277.04 491.995 282.791L489.195 288.391L481.595 286.791Z" stroke="#313131" stroke-width="2"/>
<path d="M485.195 286.791C478.166 281.314 475.153 277.939 473.195 270.791" stroke="#313131" stroke-width="2"/>
<path d="M489.595 288.791C485.391 285.236 483.718 283.226 482.795 279.591" stroke="#313131" stroke-width="2"/>
<path d="M489.595 289.191C488.506 284.576 488.145 281.866 487.995 276.791" stroke="#313131" stroke-width="3"/>
<path d="M489.595 289.191C490.69 282.725 491.646 279.383 493.995 273.991" stroke="#313131" stroke-width="2"/>
<path d="M494.5 281C502.118 275.803 503.595 258.791 504.795 255.591C505.995 252.391 508.061 253.234 509.595 256.391C511.976 264.388 506.55 270.407 495 281.4C509.156 277.15 516.365 268.185 523.195 264.391C527.055 265.569 514.795 278.2 505.195 279.991C518.795 279.991 520.765 276.688 522.795 276.791C526.392 277.342 525.949 278.291 523.595 280.391C516.776 282.838 512.151 282.71 503.5 282L514.795 282.791L509.595 285.991C514.246 289.264 516.284 291.351 518.795 295.591C519.007 298.467 518.681 299.631 514.795 298.391C508.048 289.443 503.819 285.494 494.795 281.991L494.5 281Z" stroke="#313131" stroke-width="2"/>
<path d="M503.995 281.991C514.224 286.544 519.036 288.357 525.595 289.991" stroke="#313131" stroke-width="2"/>
<path d="M505.595 282.391C512.719 285.034 518.325 285.691 531.595 285.191" stroke="#313131" stroke-width="2"/>
<path d="M508.795 282.791C518.27 284.467 522.78 284.224 528.795 280.791" stroke="#313131" stroke-width="2"/>
<circle cx="528.795" cy="280.791" r="2" fill="#313131"/>
<ellipse cx="531.995" cy="285.191" rx="2" ry="2.4" fill="#313131"/>
<ellipse cx="526.329" cy="290.554" rx="2" ry="2.4" transform="rotate(21.2849 526.329 290.554)" fill="#313131"/>
<path d="M497.5 269C499.761 255.416 499.986 241.263 497.5 200M497.5 200V197.5C513.095 185.249 516.626 179.396 515 170.5C506.254 177.741 502.61 183.857 497.5 197H496.5C494.376 178.058 490.48 170.713 479 163C485.033 182.991 488.893 190.343 496.5 198L497.5 200Z" stroke="#313131" stroke-width="2"/>
<path d="M541 198.5C541 198.5 508.5 194 499.5 232.5V234.5C520.93 226.481 534 215.5 541 198.5Z" stroke="#313131" stroke-width="2"/>
<path d="M541 199C521.071 211.016 512.189 218.71 500 234" stroke="#313131" stroke-width="2"/>
<path d="M451.151 192.685C456.338 192.038 460.246 194.511 468.346 202.142H467.056C459.078 201.425 455.467 199.567 451.151 192.685Z" stroke="#313131" stroke-width="2"/>
<path d="M467.486 172.91C462.708 169.404 460.054 168.405 455.45 171.19L456.739 172.48C460.596 172.332 462.969 172.446 467.486 172.91Z" stroke="#313131" stroke-width="2"/>
<path d="M448.571 182.367C449.048 177.26 450.014 174.579 455.449 170.76C455.78 171.622 455.891 172.095 455.879 172.91C452.432 176.841 450.909 178.881 448.571 182.367Z" stroke="#313131" stroke-width="2"/>
<path d="M457.169 149.696C458.392 159.516 458.604 164.58 455.45 170.331L454.59 171.19C447.267 168.286 444.014 165.653 440.833 157.864C444.548 157.409 446.626 157.562 450.291 159.154C451.671 154.12 453.264 152.138 457.169 149.696Z" stroke="#313131" stroke-width="2"/>
<path d="M436.964 179.788C435.413 171.887 437.631 167.757 442.123 160.443L440.403 157.864C436.669 164.066 433.903 166.38 428.367 169.471L404.293 169.041C397.995 169.369 395.045 170.604 390.537 174.2C388.381 175.919 388.817 178.498 391.397 178.928H399.565C410.545 176.548 424.068 172.05 425.787 172.48C425.788 173.77 409.257 180.218 400.854 187.096C397.178 190.105 399.565 192.725 402.574 191.395C412.888 186.835 420.013 181.213 433.095 170.331C431.147 180.585 431.98 185.308 436.964 191.825C440.341 193.075 441.285 192.421 441.263 188.816L436.964 179.788Z" stroke="#313131" stroke-width="2"/>
<path d="M432.666 170.76C428.264 179.301 427.002 184.866 427.507 196.554" stroke="#313131" stroke-width="2"/>
<path d="M432.236 172.05C426.002 180.872 423.34 187.078 419.769 199.993" stroke="#313131" stroke-width="2"/>
<path d="M431.806 172.05C424.677 178.567 420.936 183.385 414.611 193.544" stroke="#313131" stroke-width="2"/>
<ellipse cx="427.937" cy="196.554" rx="3.00919" ry="2.14942" fill="#313131"/>
<ellipse cx="414.599" cy="192.9" rx="2.90618" ry="2.22358" transform="rotate(24.3535 414.599 192.9)" fill="#313131"/>
<ellipse cx="419.629" cy="199.902" rx="3.05585" ry="2.29189" transform="rotate(17.6798 419.629 199.902)" fill="#313131"/>
<path d="M466.626 149.266C463.323 149.53 461.069 149.488 456.739 149.266L456.309 147.977C468.762 142.709 472.089 138.964 473.075 131.211C474.147 124.359 476.944 123.903 477.803 115.305C479.333 112.296 482.623 113.26 483.392 115.305C483.392 117.025 477.374 128.632 477.374 132.501L477.453 132.415C482.116 127.339 484.753 124.467 488.551 121.324C493.383 119.182 493.807 120.264 492.849 123.903C485.392 132.922 473.934 140.239 472.215 143.678C484.643 139.289 490.889 138.494 498.438 145.397C499.461 148.474 498.643 149.104 495.429 148.836L487.691 146.257C484.001 145.327 481.822 145.059 477.374 145.827C473.668 147.416 471.732 148.478 466.626 149.266Z" stroke="#313131" stroke-width="2"/>
<path d="M475.224 141.099C489.734 134.321 495.55 130.189 501.447 122.184" stroke="#313131" stroke-width="2"/>
<path d="M474.794 141.958C490.952 136.102 497.858 133.075 505.746 128.202" stroke="#313131" stroke-width="2"/>
<path d="M483.822 137.23C493.978 138.302 499.221 137.744 507.895 134.65" stroke="#313131" stroke-width="2"/>
<ellipse cx="500.699" cy="122.373" rx="2.21127" ry="2.97212" transform="rotate(-25.0035 500.699 122.373)" fill="#313131"/>
<ellipse cx="505.668" cy="127.68" rx="2.5793" ry="3.43907" transform="rotate(-25.0035 505.668 127.68)" fill="#313131"/>
<ellipse cx="507.851" cy="135.754" rx="2.33328" ry="3.15405" transform="rotate(-2.49584 507.851 135.754)" fill="#313131"/>
<path d="M460.178 144.108C456.859 146.474 454.656 149.07 449.861 157.004L449.431 155.715C450.912 152.679 451.372 151.082 451.581 148.407C455.628 143.135 460.178 138.519 460.178 134.65C460.178 134.65 460.4 130.972 460.178 128.632C459.802 124.659 457.599 118.745 457.599 118.745C457.169 117.025 456.807 115.461 456.739 112.726C456.671 109.991 459.091 109.287 460.178 111.007C462.85 115.232 463.723 118.214 464.907 123.903C465.272 128.098 465.185 130.451 464.477 134.65C463.916 138.902 463.089 141.031 460.178 144.108Z" stroke="#313131" stroke-width="2"/>
<path d="M455.879 132.931C454.542 139.878 453.335 143.112 451.151 148.837V152.276L448.571 155.285L446.852 144.538L450.721 134.221C451.927 130.651 452.251 128.589 452.01 124.763C453.721 121.742 454.732 121.105 456.739 124.333C456.688 127.869 456.485 129.744 455.879 132.931Z" stroke="#313131" stroke-width="2"/>
<path d="M443.413 104.129C449.318 114.453 449.73 124.722 447.282 147.977L446.422 147.547C445.408 130.558 444.475 121.664 438.684 106.708C439.576 102.893 440.634 102.369 443.413 104.129Z" stroke="#313131" stroke-width="2"/>
<path d="M442.983 128.632C445.27 135.331 446.07 141.096 447.282 152.276L445.992 151.846L439.114 129.922C434.558 123.917 432.07 120.482 427.937 114.016C427.243 111.455 427.439 110.388 431.806 111.007C437.439 114.879 439.824 118.878 442.983 128.632Z" stroke="#313131" stroke-width="2"/>
<path d="M435.675 129.492C437.56 128.277 439.887 132.752 447.282 153.995H445.132C437.801 147.648 436.07 141.98 435.675 129.492Z" stroke="#313131" stroke-width="2"/>
<path d="M403.433 159.154C410.055 166.279 419.018 165.554 442.123 157.864L439.974 157.434C427.041 160.495 419.795 159.601 406.873 154.855C402.135 155.211 401.828 156.326 403.433 159.154Z" stroke="#313131" stroke-width="2"/>
<path d="M410.312 146.687C415.646 154.547 421.491 157.429 439.114 158.724V157.864C429.071 152.685 423.991 149.307 415.47 142.818C410.648 141.823 409.479 142.616 410.312 146.687Z" stroke="#313131" stroke-width="2"/>
<path d="M428.367 145.397C429.787 149.376 432.506 151.846 443.413 157.004L446.852 156.574C440.514 151.835 437.378 148.833 432.666 142.818C429.24 141.618 428.163 142.011 428.367 145.397Z" stroke="#313131" stroke-width="2"/>
<path d="M428.367 131.211C430.199 136.141 435.245 140.669 438.684 146.257L435.675 145.397L420.629 131.641C418.562 128.514 418.106 125.917 417.62 120.894C418.877 116.114 420.041 115.925 422.778 119.604C425.75 123.462 427.052 125.933 428.367 131.211Z" stroke="#313131" stroke-width="2"/>
<path d="M435.675 136.37C427.018 116.519 418.407 104.839 399.565 83.4942M399.565 83.4942C401.941 72.1853 396.618 68.348 385.808 62C388.406 73.977 390.994 79.1399 399.135 83.4942H399.565Z" stroke="#313131" stroke-width="2"/>
<path d="M421.919 92.5217C420.47 97.1308 419.298 99.4853 416.76 103.269L416.33 102.839C415.149 99.8763 414.634 98.0183 415.04 92.9516C416.995 87.7587 417.682 84.3203 418.05 77.0459C421.93 82.603 422.976 85.9504 421.919 92.5217Z" stroke="#313131" stroke-width="2"/>
<path d="M368.183 104.129C384.273 95.7557 395.361 96.0075 421.059 110.577V111.437C405.153 106.278 405.583 124.333 374.631 105.418C374.631 105.418 370.864 104.242 368.183 104.129Z" stroke="#313131" stroke-width="2"/>
<path d="M420.629 110.577C399.699 105.322 388.587 104.057 369.473 103.699" stroke="#313131" stroke-width="2"/>
<path d="M449.861 158.294L445.562 154.425" stroke="#313131" stroke-width="3"/>
<path d="M173.413 289.818C173.413 291.4 174.508 292.227 176.7 292.297C176.793 292.297 176.84 292.344 176.84 292.438V292.859C176.84 292.953 176.793 293 176.7 293H165.52C165.426 293 165.379 292.953 165.379 292.859V292.438C165.379 292.344 165.672 292.297 166.258 292.297C166.844 292.297 167.512 292.168 168.262 291.91C169.411 291.535 169.985 290.902 169.985 290.012V281.627C169.985 281.51 169.967 281.434 169.932 281.398C169.897 281.363 169.821 281.346 169.704 281.346H155.852C155.735 281.346 155.659 281.363 155.624 281.398C155.588 281.434 155.571 281.51 155.571 281.627V290.188C155.571 291.594 156.608 292.297 158.682 292.297C158.776 292.297 158.823 292.344 158.823 292.438V292.859C158.823 292.953 158.782 293 158.7 293H148.997C148.903 293 148.856 292.953 148.856 292.859V292.438C148.856 292.344 148.973 292.297 149.208 292.297C151.165 292.297 152.143 291.459 152.143 289.783V271.027C152.143 269.656 151.329 268.93 149.7 268.848C149.454 268.836 149.331 268.783 149.331 268.689V268.355C149.331 268.262 149.372 268.215 149.454 268.215H158.278C158.372 268.215 158.418 268.262 158.418 268.355V268.689C158.418 268.76 158.307 268.795 158.084 268.795C156.409 268.795 155.571 269.621 155.571 271.273V279.395C155.571 279.512 155.588 279.588 155.624 279.623C155.659 279.658 155.735 279.676 155.852 279.676H169.704C169.821 279.676 169.897 279.658 169.932 279.623C169.967 279.588 169.985 279.512 169.985 279.395V270.992C169.961 270.887 169.944 270.793 169.932 270.711C169.932 270.617 169.915 270.477 169.879 270.289C169.797 269.891 169.381 269.568 168.631 269.322C167.881 269.064 167.032 268.9 166.083 268.83C165.989 268.83 165.942 268.783 165.942 268.689V268.355C165.942 268.262 165.983 268.215 166.065 268.215H176.208C176.301 268.215 176.348 268.262 176.348 268.355V268.689C176.348 268.76 176.237 268.795 176.014 268.795C174.28 268.795 173.413 269.621 173.413 271.273V289.818ZM200.79 291.488C199.771 292.109 198.657 292.596 197.45 292.947C196.243 293.299 195.171 293.475 194.234 293.475C192.312 293.475 190.478 293.164 188.732 292.543C186.341 291.676 184.419 290.393 182.966 288.693C181.114 286.525 180.189 283.777 180.189 280.449C180.189 278.047 180.804 275.861 182.034 273.893C183.265 271.912 184.964 270.348 187.132 269.199C189.312 268.051 191.65 267.477 194.146 267.477C196.653 267.477 198.898 268.033 200.878 269.146C202.859 270.26 204.446 271.789 205.642 273.734C206.837 275.68 207.435 277.789 207.435 280.062C207.435 282.324 206.843 284.48 205.659 286.531C204.476 288.57 202.853 290.223 200.79 291.488ZM183.88 279.887C183.88 281.832 184.308 283.766 185.163 285.688C186.03 287.598 187.267 289.156 188.872 290.363C190.478 291.57 192.335 292.174 194.444 292.174C197.444 292.174 199.782 291.025 201.458 288.729C202.97 286.654 203.726 284.006 203.726 280.783C203.726 277.561 202.8 274.783 200.948 272.451C200.046 271.314 198.939 270.406 197.626 269.727C196.325 269.035 195.007 268.689 193.671 268.689C192.347 268.689 191.257 268.836 190.401 269.129C189.558 269.422 188.79 269.826 188.099 270.342C187.407 270.846 186.798 271.449 186.271 272.152C185.743 272.855 185.304 273.617 184.952 274.438C184.237 276.125 183.88 277.941 183.88 279.887ZM210.924 293C210.83 293 210.783 292.953 210.783 292.859V292.438C210.783 292.344 210.842 292.297 210.959 292.297H211.363C212.008 292.297 212.447 292.238 212.681 292.121C213.549 291.699 213.982 290.539 213.982 288.641V270.377C213.982 269.592 213.22 269.123 211.697 268.971C211.357 268.936 211.117 268.918 210.976 268.918C210.847 268.918 210.783 268.871 210.783 268.777V268.355C210.783 268.262 210.83 268.215 210.924 268.215H217.357L234.039 286.654C234.097 286.713 234.138 286.76 234.162 286.795C234.185 286.818 234.22 286.83 234.267 286.83C234.326 286.83 234.355 286.777 234.355 286.672V274.561C234.355 272.229 234.162 270.705 233.775 269.99C233.388 269.275 232.609 268.918 231.437 268.918H230.541C230.447 268.918 230.4 268.871 230.4 268.777V268.355C230.4 268.262 230.447 268.215 230.541 268.215H239.681C239.775 268.215 239.822 268.262 239.822 268.355V268.777C239.822 268.871 239.646 268.918 239.295 268.918C238.955 268.918 238.386 269.117 237.59 269.516C236.804 269.914 236.412 270.406 236.412 270.992V292.49C236.412 292.748 236.377 292.93 236.306 293.035C236.236 293.152 236.066 293.211 235.797 293.211C235.539 293.211 235.345 293.158 235.217 293.053C235.088 292.947 234.935 292.795 234.76 292.596L216.636 272.504C216.519 272.387 216.414 272.328 216.32 272.328C216.261 272.328 216.232 272.387 216.232 272.504V290.047C216.232 291.113 217.076 291.816 218.763 292.156C219.232 292.25 219.59 292.297 219.836 292.297C220.082 292.297 220.205 292.344 220.205 292.438V292.859C220.205 292.953 220.158 293 220.064 293H210.924ZM240.938 292.859V292.367C240.938 292.273 240.985 292.227 241.079 292.227H241.465C241.957 292.191 242.461 292.174 242.977 292.174C243.493 292.162 243.961 292.098 244.383 291.98C245.344 291.699 245.825 290.996 245.825 289.871V271.344C245.825 270.184 245.139 269.445 243.768 269.129C243.381 269.047 242.989 268.977 242.59 268.918H242.221C242.127 268.918 242.08 268.871 242.08 268.777V268.355C242.08 268.262 242.127 268.215 242.221 268.215H258.938C259.149 268.215 259.301 268.256 259.395 268.338C259.489 268.408 259.547 268.572 259.571 268.83L259.887 273.928C259.887 274.045 259.799 274.104 259.623 274.104C259.448 274.104 259.319 274.051 259.237 273.945C259.166 273.828 259.073 273.4 258.955 272.662C258.85 271.924 258.651 271.309 258.358 270.816C258.065 270.324 257.549 270.014 256.811 269.885H249.481C249.329 269.885 249.252 269.961 249.252 270.113V279.201C249.252 279.318 249.311 279.377 249.428 279.377H255.51C257.08 279.377 257.866 278.463 257.866 276.635C257.866 276.541 257.913 276.494 258.006 276.494H258.428C258.522 276.494 258.569 276.541 258.569 276.635V284.158C258.569 284.252 258.522 284.299 258.428 284.299H258.006C257.913 284.299 257.866 284.252 257.866 284.158C257.866 282.424 257.362 281.422 256.354 281.152C256.073 281.082 255.774 281.047 255.457 281.047H249.428C249.311 281.047 249.252 281.105 249.252 281.223V289.783C249.252 290.662 249.657 291.16 250.465 291.277C250.7 291.312 250.946 291.33 251.204 291.33H257.057C258.264 291.33 259.202 290.797 259.87 289.73C260.35 288.969 260.643 288.096 260.748 287.111C260.784 286.783 260.959 286.619 261.276 286.619C261.416 286.619 261.487 286.695 261.487 286.848L260.907 292.754C260.836 292.918 260.754 293 260.661 293H241.079C240.985 293 240.938 292.953 240.938 292.859ZM272.64 293C272.241 293 272.042 292.883 272.042 292.648V292.473C272.042 292.285 272.212 292.174 272.552 292.139C272.903 292.092 273.132 292.062 273.237 292.051C274.128 291.957 274.755 291.74 275.118 291.4C275.481 291.049 275.663 290.527 275.663 289.836V284.018C275.663 283.936 275.646 283.848 275.61 283.754L268.421 272.293C267.296 270.5 266.183 269.469 265.081 269.199C265.023 269.188 264.917 269.164 264.765 269.129C264.612 269.094 264.273 269.035 263.745 268.953C263.558 268.918 263.464 268.789 263.464 268.566C263.464 268.332 263.552 268.215 263.728 268.215H273.782C273.981 268.215 274.081 268.332 274.081 268.566C274.081 268.801 273.981 268.918 273.782 268.918C272.997 269 272.476 269.082 272.218 269.164C271.632 269.375 271.339 269.75 271.339 270.289C271.339 270.57 271.409 270.822 271.55 271.045L277.491 280.537C277.62 280.725 277.696 280.848 277.72 280.906C277.755 280.953 277.819 280.977 277.913 280.977C278.019 280.977 278.177 280.807 278.388 280.467L283.134 272.398C283.274 272.117 283.433 271.818 283.608 271.502C283.796 271.174 283.89 270.84 283.89 270.5C283.89 269.645 283.304 269.141 282.132 268.988C281.71 268.93 281.481 268.865 281.446 268.795C281.411 268.725 281.394 268.637 281.394 268.531C281.394 268.32 281.493 268.215 281.692 268.215H289.901C290.065 268.215 290.148 268.297 290.148 268.461C290.148 268.625 290.118 268.736 290.06 268.795C290.013 268.854 289.942 268.9 289.849 268.936C289.767 268.959 289.673 268.982 289.567 269.006C289.462 269.018 289.233 269.064 288.882 269.146C288.062 269.346 287.171 269.996 286.21 271.098C286.105 271.227 286.046 271.303 286.034 271.326L279.091 283.279V289.836C279.091 290.469 279.267 290.967 279.618 291.33C279.981 291.693 280.585 291.934 281.429 292.051C282.284 292.156 282.712 292.291 282.712 292.455V292.648C282.712 292.883 282.513 293 282.114 293H272.64ZM305.449 268.426C305.566 268.426 305.625 268.555 305.625 268.812L306.082 272.557C306.129 272.791 306.152 272.943 306.152 273.014C306.152 273.072 306.058 273.102 305.871 273.102C305.695 273.102 305.584 273.078 305.537 273.031C305.49 272.984 305.443 272.908 305.396 272.803C305.349 272.686 305.291 272.557 305.22 272.416C305.162 272.275 305.097 272.135 305.027 271.994C304.781 271.455 304.394 270.922 303.867 270.395C302.578 269.152 301.125 268.531 299.508 268.531C298.535 268.531 297.615 268.848 296.748 269.48C295.881 270.113 295.447 270.863 295.447 271.73C295.447 272.586 295.605 273.33 295.922 273.963C296.25 274.596 296.677 275.182 297.205 275.721C297.732 276.26 298.336 276.775 299.015 277.268C299.695 277.76 300.386 278.258 301.09 278.762C302.953 280.062 304.277 281.176 305.062 282.102C306.293 283.531 306.961 285.137 307.066 286.918C307.066 288.91 306.299 290.504 304.763 291.699C303.24 292.883 301.465 293.475 299.437 293.475C298.136 293.475 297.099 293.34 296.326 293.07C295.564 292.812 295.037 292.625 294.744 292.508C294.451 292.391 294.234 292.332 294.093 292.332C293.965 292.332 293.883 292.338 293.847 292.35L292.986 292.525C292.834 292.525 292.74 292.402 292.705 292.156C292.365 289.25 292.195 287.709 292.195 287.533C292.195 287.346 292.207 287.223 292.23 287.164C292.265 287.094 292.347 287.059 292.476 287.059C292.804 287.059 293.103 287.527 293.373 288.465C294.603 291.102 296.648 292.42 299.508 292.42C300.82 292.42 301.939 292.021 302.865 291.225C303.802 290.428 304.271 289.391 304.271 288.113C304.271 286.074 303.052 284.176 300.615 282.418C299.924 281.926 298.927 281.24 297.627 280.361C296.326 279.482 295.289 278.604 294.515 277.725C293.308 276.365 292.705 274.854 292.705 273.189C292.705 271.514 293.367 270.143 294.691 269.076C296.027 268.01 297.556 267.477 299.279 267.477C300.17 267.477 301.148 267.629 302.215 267.934C303.293 268.238 304.043 268.443 304.465 268.549L305.449 268.426ZM319.098 268.918C317.129 268.918 316.145 269.703 316.145 271.273V283.859C316.145 286.18 316.912 288.078 318.448 289.555C319.983 291.02 321.951 291.752 324.354 291.752C326.85 291.752 328.895 291.084 330.489 289.748C332.094 288.4 332.897 286.537 332.897 284.158V272.979C332.897 271.865 332.797 271.092 332.598 270.658C332.094 269.498 330.957 268.918 329.188 268.918C329.094 268.918 329.047 268.871 329.047 268.777V268.355C329.047 268.262 329.094 268.215 329.188 268.215H337.836C337.93 268.215 337.977 268.262 337.977 268.355V268.777C337.977 268.871 337.848 268.918 337.59 268.918C336.055 268.918 335.118 269.516 334.778 270.711C334.719 270.91 334.69 271.098 334.69 271.273V282.787C334.69 287.932 332.721 291.242 328.784 292.719C327.459 293.223 326.141 293.475 324.828 293.475C320.129 293.475 316.666 292.244 314.44 289.783C313.291 288.518 312.717 286.953 312.717 285.09V271.027C312.717 270.031 312.114 269.375 310.907 269.059C310.555 268.965 310.256 268.918 310.01 268.918C309.764 268.918 309.641 268.871 309.641 268.777V268.355C309.641 268.262 309.682 268.215 309.764 268.215H319.291C319.385 268.215 319.432 268.262 319.432 268.355V268.777C319.432 268.871 319.321 268.918 319.098 268.918ZM362.401 292.332C362.343 292.426 362.196 292.449 361.962 292.402C361.739 292.344 361.476 292.314 361.171 292.314C360.866 292.314 360.433 292.379 359.87 292.508C359.319 292.625 358.446 292.812 357.251 293.07C356.056 293.34 354.966 293.475 353.981 293.475C351.755 293.475 349.593 292.953 347.495 291.91C345.409 290.855 343.739 289.367 342.485 287.445C341.231 285.512 340.604 283.273 340.604 280.73C340.604 278.188 341.231 275.885 342.485 273.822C344.313 270.799 347.067 268.83 350.747 267.916C351.919 267.623 353.091 267.477 354.263 267.477C355.868 267.477 357.772 267.746 359.976 268.285C360.644 268.449 361.206 268.619 361.663 268.795C362.132 268.971 362.419 269.059 362.524 269.059L363.052 268.918H363.597C363.737 268.918 363.808 269.018 363.808 269.217V274.684C363.808 274.801 363.702 274.859 363.491 274.859C363.28 274.859 363.157 274.836 363.122 274.789C363.087 274.73 363.052 274.666 363.017 274.596C362.981 274.514 362.94 274.432 362.894 274.35C362.858 274.268 362.817 274.191 362.77 274.121C362.735 274.051 362.712 273.998 362.7 273.963C360.942 270.436 358.276 268.672 354.702 268.672C351.479 268.672 348.96 269.697 347.144 271.748C345.327 273.799 344.419 276.518 344.419 279.904C344.419 283.279 345.415 286.18 347.407 288.605C349.411 291.031 352.13 292.244 355.563 292.244C357.438 292.244 359.144 291.688 360.679 290.574C362.226 289.461 363.438 288.096 364.317 286.479C364.341 286.408 364.411 286.373 364.528 286.373H364.757C364.874 286.373 364.933 286.443 364.933 286.584C364.933 286.725 364.897 286.859 364.827 286.988L362.401 292.332ZM377.949 292.859C377.949 292.953 377.902 293 377.808 293H367.472C367.39 293 367.349 292.953 367.349 292.859V292.525C367.349 292.432 367.595 292.379 368.088 292.367C368.591 292.355 369.201 292.174 369.916 291.822C370.642 291.459 371.005 290.914 371.005 290.188V271.027C371.005 269.703 369.834 268.971 367.49 268.83C367.396 268.83 367.349 268.783 367.349 268.689V268.355C367.349 268.262 367.39 268.215 367.472 268.215H377.808C377.902 268.215 377.949 268.262 377.949 268.355V268.689C377.949 268.76 377.703 268.795 377.211 268.795C376.73 268.795 376.197 268.936 375.611 269.217C374.826 269.592 374.433 270.207 374.433 271.062V278.814C374.433 279.846 374.533 280.361 374.732 280.361C375.236 280.361 375.875 280.045 376.648 279.412C377.421 278.768 378.107 278.105 378.705 277.426C379.302 276.746 379.9 275.943 380.498 275.018C381.107 274.08 381.529 273.441 381.763 273.102C382.642 271.859 383.082 270.928 383.082 270.307C383.082 269.674 382.812 269.252 382.273 269.041C381.921 268.9 381.418 268.83 380.761 268.83H380.586C380.492 268.83 380.445 268.783 380.445 268.689V268.355C380.445 268.262 380.492 268.215 380.586 268.215H390.746C390.839 268.215 390.886 268.262 390.886 268.355V268.689C390.886 268.83 390.816 268.9 390.675 268.9C389.175 268.947 388.08 269.146 387.388 269.498C386.697 269.838 386.14 270.213 385.718 270.623C385.308 271.033 384.857 271.654 384.365 272.486C382.865 275.029 381.371 277.062 379.882 278.586C379.25 279.23 378.921 279.629 378.898 279.781C378.957 279.898 379.437 280.367 380.339 281.188C382.589 283.25 384.951 286.045 387.423 289.572C388.349 290.92 389.562 291.752 391.062 292.068C392.058 292.303 392.685 292.42 392.943 292.42C393.213 292.42 393.347 292.467 393.347 292.561V292.859C393.347 292.953 393.3 293 393.207 293H381.711C381.617 293 381.57 292.953 381.57 292.859V292.525C381.57 292.432 381.769 292.367 382.168 292.332C383.492 292.215 384.154 291.828 384.154 291.172C384.072 290.516 382.894 288.893 380.621 286.303C380.211 285.846 379.783 285.336 379.338 284.773C377.556 282.582 376.091 281.486 374.943 281.486H374.609C374.492 281.486 374.433 281.568 374.433 281.732V289.959C374.433 291.6 375.558 292.42 377.808 292.42C377.902 292.42 377.949 292.467 377.949 292.561V292.859ZM394.639 293C394.545 293 394.498 292.953 394.498 292.859V292.438C394.498 292.344 394.545 292.297 394.639 292.297H395.061C396.069 292.297 396.948 292.086 397.698 291.664C398.002 291.488 398.254 291.219 398.453 290.855C398.653 290.48 398.752 290.064 398.752 289.607V271.01C398.752 270.283 398.283 269.727 397.346 269.34C396.69 269.059 395.992 268.918 395.254 268.918H394.867C394.774 268.918 394.727 268.871 394.727 268.777V268.355C394.727 268.262 394.774 268.215 394.867 268.215H406.768C406.862 268.215 406.908 268.262 406.908 268.355V268.777C406.908 268.871 406.862 268.918 406.768 268.918H406.012C404.805 268.918 403.739 269.088 402.813 269.428C402.543 269.521 402.367 269.68 402.285 269.902C402.215 270.113 402.18 270.482 402.18 271.01V290.504C402.203 290.703 402.309 290.891 402.496 291.066C402.684 291.242 402.895 291.33 403.129 291.33H410.073C411.115 291.33 412.141 290.715 413.149 289.484C413.418 289.156 413.752 288.723 414.151 288.184C414.549 287.633 414.795 287.322 414.889 287.252C415.264 286.971 415.451 286.977 415.451 287.27C415.451 287.34 415.434 287.41 415.399 287.48L412.744 292.684C412.639 292.895 412.516 293 412.375 293H394.639ZM416.075 292.859V292.367C416.075 292.273 416.122 292.227 416.216 292.227H416.602C417.095 292.191 417.599 292.174 418.114 292.174C418.63 292.162 419.099 292.098 419.52 291.98C420.481 291.699 420.962 290.996 420.962 289.871V271.344C420.962 270.184 420.276 269.445 418.905 269.129C418.518 269.047 418.126 268.977 417.727 268.918H417.358C417.265 268.918 417.218 268.871 417.218 268.777V268.355C417.218 268.262 417.265 268.215 417.358 268.215H434.075C434.286 268.215 434.438 268.256 434.532 268.338C434.626 268.408 434.684 268.572 434.708 268.83L435.024 273.928C435.024 274.045 434.936 274.104 434.761 274.104C434.585 274.104 434.456 274.051 434.374 273.945C434.304 273.828 434.21 273.4 434.093 272.662C433.987 271.924 433.788 271.309 433.495 270.816C433.202 270.324 432.686 270.014 431.948 269.885H424.618C424.466 269.885 424.39 269.961 424.39 270.113V279.201C424.39 279.318 424.448 279.377 424.565 279.377H430.647C432.218 279.377 433.003 278.463 433.003 276.635C433.003 276.541 433.05 276.494 433.143 276.494H433.565C433.659 276.494 433.706 276.541 433.706 276.635V284.158C433.706 284.252 433.659 284.299 433.565 284.299H433.143C433.05 284.299 433.003 284.252 433.003 284.158C433.003 282.424 432.499 281.422 431.491 281.152C431.21 281.082 430.911 281.047 430.595 281.047H424.565C424.448 281.047 424.39 281.105 424.39 281.223V289.783C424.39 290.662 424.794 291.16 425.602 291.277C425.837 291.312 426.083 291.33 426.341 291.33H432.194C433.401 291.33 434.339 290.797 435.007 289.73C435.487 288.969 435.78 288.096 435.886 287.111C435.921 286.783 436.097 286.619 436.413 286.619C436.554 286.619 436.624 286.695 436.624 286.848L436.044 292.754C435.974 292.918 435.891 293 435.798 293H416.216C416.122 293 416.075 292.953 416.075 292.859ZM229.49 325.426C229.607 325.426 229.666 325.555 229.666 325.812L230.123 329.557C230.17 329.791 230.193 329.943 230.193 330.014C230.193 330.072 230.1 330.102 229.912 330.102C229.736 330.102 229.625 330.078 229.578 330.031C229.531 329.984 229.484 329.908 229.438 329.803C229.391 329.686 229.332 329.557 229.262 329.416C229.203 329.275 229.139 329.135 229.068 328.994C228.822 328.455 228.436 327.922 227.908 327.395C226.619 326.152 225.166 325.531 223.549 325.531C222.576 325.531 221.656 325.848 220.789 326.48C219.922 327.113 219.488 327.863 219.488 328.73C219.488 329.586 219.647 330.33 219.963 330.963C220.291 331.596 220.719 332.182 221.246 332.721C221.774 333.26 222.377 333.775 223.057 334.268C223.736 334.76 224.428 335.258 225.131 335.762C226.994 337.062 228.318 338.176 229.104 339.102C230.334 340.531 231.002 342.137 231.107 343.918C231.107 345.91 230.34 347.504 228.805 348.699C227.281 349.883 225.506 350.475 223.479 350.475C222.178 350.475 221.141 350.34 220.367 350.07C219.606 349.812 219.078 349.625 218.785 349.508C218.492 349.391 218.275 349.332 218.135 349.332C218.006 349.332 217.924 349.338 217.889 349.35L217.027 349.525C216.875 349.525 216.781 349.402 216.746 349.156C216.406 346.25 216.236 344.709 216.236 344.533C216.236 344.346 216.248 344.223 216.272 344.164C216.307 344.094 216.389 344.059 216.518 344.059C216.846 344.059 217.145 344.527 217.414 345.465C218.645 348.102 220.69 349.42 223.549 349.42C224.861 349.42 225.981 349.021 226.906 348.225C227.844 347.428 228.313 346.391 228.313 345.113C228.313 343.074 227.094 341.176 224.656 339.418C223.965 338.926 222.969 338.24 221.668 337.361C220.367 336.482 219.33 335.604 218.557 334.725C217.35 333.365 216.746 331.854 216.746 330.189C216.746 328.514 217.408 327.143 218.732 326.076C220.068 325.01 221.598 324.477 223.32 324.477C224.211 324.477 225.19 324.629 226.256 324.934C227.334 325.238 228.084 325.443 228.506 325.549L229.49 325.426ZM240.063 349.438C240.063 349.344 240.116 349.297 240.221 349.297H240.714C241.862 349.297 242.782 349.051 243.473 348.559C244.176 348.066 244.528 347.492 244.528 346.836V327.377C244.528 327.131 244.475 326.996 244.37 326.973C244.276 326.938 244.159 326.908 244.018 326.885H237.268C236.178 327.119 235.464 327.957 235.124 329.398C234.936 330.172 234.825 330.67 234.79 330.893C234.755 331.104 234.69 331.209 234.596 331.209H234.28C234.21 331.209 234.175 331.186 234.175 331.139V330.559L234.825 325.074C234.895 324.711 235.012 324.529 235.176 324.529C235.341 324.529 235.516 324.646 235.704 324.881C235.891 325.104 236.249 325.215 236.776 325.215H255.725C256.229 325.215 256.534 325.156 256.639 325.039C256.745 324.922 256.844 324.811 256.938 324.705C257.032 324.588 257.149 324.529 257.29 324.529C257.442 324.529 257.536 324.588 257.571 324.705C257.618 324.822 257.653 324.945 257.676 325.074L258.327 330.559V331.139C258.327 331.186 258.292 331.209 258.221 331.209H257.905C257.811 331.209 257.747 331.121 257.712 330.945C257.524 329.773 257.255 328.848 256.903 328.168C256.551 327.477 255.995 327.049 255.233 326.885H248.466C248.325 326.908 248.202 326.938 248.096 326.973C248.003 326.996 247.956 327.131 247.956 327.377V346.836C247.956 347.492 248.301 348.066 248.993 348.559C249.696 349.051 250.622 349.297 251.77 349.297H252.28C252.374 349.297 252.421 349.344 252.421 349.438V349.859C252.421 349.953 252.374 350 252.28 350H240.204C240.11 350 240.063 349.953 240.063 349.859V349.438ZM269.902 325.918C267.933 325.918 266.949 326.703 266.949 328.273V340.859C266.949 343.18 267.716 345.078 269.251 346.555C270.786 348.02 272.755 348.752 275.158 348.752C277.654 348.752 279.699 348.084 281.292 346.748C282.898 345.4 283.701 343.537 283.701 341.158V329.979C283.701 328.865 283.601 328.092 283.402 327.658C282.898 326.498 281.761 325.918 279.992 325.918C279.898 325.918 279.851 325.871 279.851 325.777V325.355C279.851 325.262 279.898 325.215 279.992 325.215H288.64C288.734 325.215 288.781 325.262 288.781 325.355V325.777C288.781 325.871 288.652 325.918 288.394 325.918C286.859 325.918 285.921 326.516 285.581 327.711C285.523 327.91 285.494 328.098 285.494 328.273V339.787C285.494 344.932 283.525 348.242 279.587 349.719C278.263 350.223 276.945 350.475 275.632 350.475C270.933 350.475 267.47 349.244 265.244 346.783C264.095 345.518 263.521 343.953 263.521 342.09V328.027C263.521 327.031 262.917 326.375 261.71 326.059C261.359 325.965 261.06 325.918 260.814 325.918C260.568 325.918 260.445 325.871 260.445 325.777V325.355C260.445 325.262 260.486 325.215 260.568 325.215H270.095C270.189 325.215 270.236 325.262 270.236 325.355V325.777C270.236 325.871 270.124 325.918 269.902 325.918ZM290.354 325.303C290.354 325.209 290.4 325.162 290.494 325.162H290.881L296.523 325.039C297.203 325.016 297.941 325.004 298.738 325.004H300.936C302.975 325.004 304.504 325.08 305.523 325.232C306.555 325.385 307.562 325.566 308.547 325.777C309.543 325.977 310.598 326.439 311.711 327.166C312.836 327.893 313.809 328.771 314.629 329.803C316.363 332.006 317.23 334.385 317.23 336.939C317.23 339.494 316.562 341.785 315.227 343.812C313.305 346.754 310.521 348.676 306.877 349.578C305.717 349.859 304.527 350 303.309 350H290.494C290.4 350 290.354 349.953 290.354 349.859V349.367C290.354 349.273 290.4 349.227 290.494 349.227H290.881C293.014 349.227 294.08 348.547 294.08 347.188V327.922C294.08 327.266 293.828 326.773 293.324 326.445C292.82 326.105 292.252 325.936 291.619 325.936H290.494C290.4 325.936 290.354 325.889 290.354 325.795V325.303ZM297.947 325.83C297.654 325.83 297.508 325.988 297.508 326.305V347.803C297.508 348.67 298.322 349.121 299.951 349.156C300.432 349.168 300.936 349.174 301.463 349.174C305.201 349.174 308.137 348.125 310.27 346.027C312.414 343.93 313.486 341.141 313.486 337.66C313.486 334.168 312.496 331.326 310.516 329.135C308.547 326.932 305.951 325.83 302.729 325.83H297.947ZM323.602 328.027C323.602 326.621 322.794 325.918 321.176 325.918C320.919 325.918 320.79 325.871 320.79 325.777V325.355C320.79 325.262 320.837 325.215 320.93 325.215H329.737C329.831 325.215 329.878 325.262 329.878 325.355V325.777C329.878 325.871 329.62 325.918 329.104 325.918C328.589 325.918 328.114 326.082 327.68 326.41C327.247 326.738 327.03 327.412 327.03 328.432V347.188C327.03 348.594 327.844 349.297 329.473 349.297C329.719 349.297 329.842 349.344 329.842 349.438V349.859C329.842 349.953 329.796 350 329.702 350H320.895C320.801 350 320.755 349.953 320.755 349.859V349.438C320.755 349.344 321.012 349.297 321.528 349.297C322.044 349.297 322.518 349.133 322.952 348.805C323.385 348.477 323.602 347.803 323.602 346.783V328.027ZM354.372 348.488C353.353 349.109 352.24 349.596 351.033 349.947C349.825 350.299 348.753 350.475 347.816 350.475C345.894 350.475 344.06 350.164 342.314 349.543C339.923 348.676 338.001 347.393 336.548 345.693C334.697 343.525 333.771 340.777 333.771 337.449C333.771 335.047 334.386 332.861 335.616 330.893C336.847 328.912 338.546 327.348 340.714 326.199C342.894 325.051 345.232 324.477 347.728 324.477C350.236 324.477 352.48 325.033 354.46 326.146C356.441 327.26 358.029 328.789 359.224 330.734C360.419 332.68 361.017 334.789 361.017 337.062C361.017 339.324 360.425 341.48 359.241 343.531C358.058 345.57 356.435 347.223 354.372 348.488ZM337.462 336.887C337.462 338.832 337.89 340.766 338.745 342.688C339.613 344.598 340.849 346.156 342.454 347.363C344.06 348.57 345.917 349.174 348.027 349.174C351.027 349.174 353.365 348.025 355.04 345.729C356.552 343.654 357.308 341.006 357.308 337.783C357.308 334.561 356.382 331.783 354.531 329.451C353.628 328.314 352.521 327.406 351.208 326.727C349.908 326.035 348.589 325.689 347.253 325.689C345.929 325.689 344.839 325.836 343.984 326.129C343.14 326.422 342.372 326.826 341.681 327.342C340.99 327.846 340.38 328.449 339.853 329.152C339.325 329.855 338.886 330.617 338.534 331.438C337.82 333.125 337.462 334.941 337.462 336.887ZM378.146 325.426C378.264 325.426 378.322 325.555 378.322 325.812L378.779 329.557C378.826 329.791 378.85 329.943 378.85 330.014C378.85 330.072 378.756 330.102 378.568 330.102C378.393 330.102 378.281 330.078 378.234 330.031C378.187 329.984 378.141 329.908 378.094 329.803C378.047 329.686 377.988 329.557 377.918 329.416C377.859 329.275 377.795 329.135 377.725 328.994C377.478 328.455 377.092 327.922 376.564 327.395C375.275 326.152 373.822 325.531 372.205 325.531C371.232 325.531 370.312 325.848 369.445 326.48C368.578 327.113 368.144 327.863 368.144 328.73C368.144 329.586 368.303 330.33 368.619 330.963C368.947 331.596 369.375 332.182 369.902 332.721C370.43 333.26 371.033 333.775 371.713 334.268C372.393 334.76 373.084 335.258 373.787 335.762C375.65 337.062 376.975 338.176 377.76 339.102C378.99 340.531 379.658 342.137 379.764 343.918C379.764 345.91 378.996 347.504 377.461 348.699C375.937 349.883 374.162 350.475 372.135 350.475C370.834 350.475 369.797 350.34 369.023 350.07C368.262 349.812 367.734 349.625 367.441 349.508C367.148 349.391 366.932 349.332 366.791 349.332C366.662 349.332 366.58 349.338 366.545 349.35L365.684 349.525C365.531 349.525 365.437 349.402 365.402 349.156C365.062 346.25 364.893 344.709 364.893 344.533C364.893 344.346 364.904 344.223 364.928 344.164C364.963 344.094 365.045 344.059 365.174 344.059C365.502 344.059 365.801 344.527 366.07 345.465C367.301 348.102 369.346 349.42 372.205 349.42C373.518 349.42 374.637 349.021 375.562 348.225C376.5 347.428 376.969 346.391 376.969 345.113C376.969 343.074 375.75 341.176 373.312 339.418C372.621 338.926 371.625 338.24 370.324 337.361C369.023 336.482 367.986 335.604 367.213 334.725C366.006 333.365 365.402 331.854 365.402 330.189C365.402 328.514 366.064 327.143 367.389 326.076C368.725 325.01 370.254 324.477 371.976 324.477C372.867 324.477 373.846 324.629 374.912 324.934C375.99 325.238 376.74 325.443 377.162 325.549L378.146 325.426Z" fill="#313131"/>
</svg>
